<svg width="283" height="177" viewBox="0 0 283 177" fill="none" xmlns="http://www.w3.org/2000/svg">
<g filter="url(#filter0_ddd_415_62981)">
<g clip-path="url(#clip0_415_62981)">
<path d="M12.2764 19.223C12.2764 18.6025 12.7794 18.0995 13.3998 18.0995H143.447V148.478H13.3998C12.7794 148.478 12.2764 147.975 12.2764 147.355V19.223Z" fill="white"/>
<g clip-path="url(#clip1_415_62981)">
<g clip-path="url(#clip2_415_62981)">
<g clip-path="url(#clip3_415_62981)">
<path d="M19.7055 22.1089H18.3628C18.279 22.1089 18.1987 22.1422 18.1394 22.2015C18.0802 22.2607 18.0469 22.3411 18.0469 22.4249V24.9523C18.0469 25.0361 18.0802 25.1164 18.1394 25.1757C18.1987 25.2349 18.279 25.2682 18.3628 25.2682H20.2583C20.3421 25.2682 20.4225 25.2349 20.4817 25.1757C20.541 25.1164 20.5743 25.0361 20.5743 24.9523V22.9777L19.7055 22.1089Z" stroke="#718096" stroke-width="0.315925" stroke-linecap="round" stroke-linejoin="round"/>
<path d="M19.627 22.1089V23.0567H20.5747" stroke="#718096" stroke-width="0.315925" stroke-linecap="round" stroke-linejoin="round"/>
</g>
<path d="M24.7765 23.6104L24.2069 23.6454C24.1971 23.5967 24.1762 23.5529 24.1441 23.514C24.1119 23.474 24.0696 23.4424 24.017 23.419C23.9654 23.3947 23.9036 23.3825 23.8315 23.3825C23.7351 23.3825 23.6538 23.403 23.5876 23.4439C23.5214 23.4838 23.4883 23.5373 23.4883 23.6045C23.4883 23.6581 23.5097 23.7034 23.5526 23.7404C23.5954 23.7774 23.6689 23.8071 23.7731 23.8294L24.1791 23.9112C24.3972 23.956 24.5598 24.0281 24.667 24.1274C24.7741 24.2267 24.8276 24.3572 24.8276 24.5188C24.8276 24.6659 24.7843 24.7949 24.6976 24.9059C24.6119 25.0169 24.4941 25.1035 24.3442 25.1659C24.1952 25.2272 24.0233 25.2579 23.8286 25.2579C23.5316 25.2579 23.295 25.196 23.1188 25.0724C22.9435 24.9477 22.8408 24.7783 22.8106 24.5641L23.4226 24.532C23.4411 24.6225 23.4859 24.6917 23.5569 24.7394C23.628 24.7861 23.7191 24.8095 23.8301 24.8095C23.9391 24.8095 24.0267 24.7885 24.093 24.7467C24.1601 24.7038 24.1942 24.6488 24.1952 24.5816C24.1942 24.5252 24.1704 24.4789 24.1236 24.4429C24.0769 24.4059 24.0048 24.3776 23.9075 24.3582L23.519 24.2808C23.2999 24.2369 23.1368 24.161 23.0297 24.0529C22.9235 23.9448 22.8705 23.8071 22.8705 23.6396C22.8705 23.4955 22.9094 23.3713 22.9873 23.2671C23.0662 23.163 23.1767 23.0826 23.3189 23.0261C23.462 22.9697 23.6295 22.9414 23.8213 22.9414C24.1046 22.9414 24.3276 23.0013 24.4902 23.1211C24.6538 23.2408 24.7492 23.4039 24.7765 23.6104ZM26.233 25.2579C26.0032 25.2579 25.8056 25.2092 25.64 25.1118C25.4755 25.0135 25.3489 24.8772 25.2603 24.7029C25.1727 24.5286 25.1289 24.328 25.1289 24.1011C25.1289 23.8713 25.1732 23.6698 25.2618 23.4964C25.3513 23.3222 25.4784 23.1863 25.643 23.089C25.8075 22.9906 26.0032 22.9414 26.2301 22.9414C26.4258 22.9414 26.5972 22.977 26.7442 23.0481C26.8913 23.1191 27.0076 23.2189 27.0933 23.3475C27.179 23.476 27.2262 23.6269 27.235 23.8002H26.6478C26.6313 23.6883 26.5875 23.5982 26.5164 23.53C26.4463 23.4609 26.3543 23.4263 26.2403 23.4263C26.1439 23.4263 26.0597 23.4526 25.9877 23.5052C25.9166 23.5568 25.8611 23.6323 25.8212 23.7316C25.7812 23.8309 25.7613 23.9512 25.7613 24.0923C25.7613 24.2355 25.7807 24.3572 25.8197 24.4575C25.8596 24.5578 25.9156 24.6342 25.9877 24.6868C26.0597 24.7394 26.1439 24.7657 26.2403 24.7657C26.3114 24.7657 26.3752 24.7511 26.4317 24.7218C26.4891 24.6926 26.5363 24.6503 26.5733 24.5948C26.6113 24.5383 26.6361 24.4706 26.6478 24.3918H27.235C27.2252 24.5631 27.1785 24.7141 27.0948 24.8445C27.012 24.974 26.8976 25.0753 26.7515 25.1483C26.6055 25.2214 26.4326 25.2579 26.233 25.2579ZM28.2555 23.9171V25.2141H27.6333V22.2228H28.238V23.3665H28.2643C28.3149 23.234 28.3967 23.1303 28.5097 23.0554C28.6226 22.9794 28.7643 22.9414 28.9347 22.9414C29.0905 22.9414 29.2263 22.9755 29.3422 23.0437C29.459 23.1109 29.5496 23.2077 29.6138 23.3343C29.6791 23.4599 29.7112 23.6104 29.7102 23.7856V25.2141H29.088V23.8966C29.089 23.7584 29.054 23.6508 28.9829 23.5739C28.9128 23.4969 28.8144 23.4585 28.6878 23.4585C28.6031 23.4585 28.5282 23.4765 28.4629 23.5125C28.3987 23.5485 28.348 23.6011 28.311 23.6702C28.275 23.7384 28.2565 23.8207 28.2555 23.9171ZM31.2223 25.2579C30.9915 25.2579 30.7929 25.2111 30.6264 25.1177C30.4608 25.0232 30.3333 24.8898 30.2437 24.7175C30.1541 24.5441 30.1093 24.3392 30.1093 24.1026C30.1093 23.8718 30.1541 23.6693 30.2437 23.495C30.3333 23.3207 30.4594 23.1849 30.622 23.0875C30.7856 22.9901 30.9774 22.9414 31.1974 22.9414C31.3454 22.9414 31.4832 22.9653 31.6108 23.013C31.7393 23.0597 31.8513 23.1303 31.9467 23.2248C32.0431 23.3192 32.1181 23.438 32.1716 23.5812C32.2252 23.7233 32.252 23.8898 32.252 24.0807V24.2515H30.3576V23.866H31.6663C31.6663 23.7764 31.6468 23.697 31.6079 23.6279C31.5689 23.5588 31.5149 23.5047 31.4457 23.4658C31.3776 23.4259 31.2982 23.4059 31.2077 23.4059C31.1132 23.4059 31.0295 23.4278 30.9564 23.4716C30.8844 23.5145 30.8279 23.5724 30.787 23.6454C30.7461 23.7175 30.7252 23.7978 30.7242 23.8864V24.253C30.7242 24.364 30.7447 24.4599 30.7856 24.5407C30.8274 24.6216 30.8863 24.6839 30.9623 24.7277C31.0382 24.7715 31.1283 24.7934 31.2325 24.7934C31.3016 24.7934 31.3649 24.7837 31.4224 24.7642C31.4798 24.7447 31.529 24.7155 31.5699 24.6766C31.6108 24.6376 31.6419 24.5899 31.6634 24.5334L32.2388 24.5714C32.2096 24.7097 32.1497 24.8304 32.0592 24.9336C31.9696 25.0359 31.8537 25.1157 31.7115 25.1732C31.5704 25.2296 31.4073 25.2579 31.2223 25.2579ZM32.658 25.2141V22.9706H33.251V23.3665H33.2773C33.324 23.235 33.4019 23.1313 33.5109 23.0554C33.62 22.9794 33.7505 22.9414 33.9024 22.9414C34.0562 22.9414 34.1872 22.9799 34.2953 23.0568C34.4033 23.1328 34.4754 23.236 34.5114 23.3665H34.5348C34.5806 23.2379 34.6633 23.1352 34.7831 23.0583C34.9038 22.9804 35.0465 22.9414 35.211 22.9414C35.4204 22.9414 35.5903 23.0081 35.7208 23.1415C35.8522 23.274 35.9179 23.4619 35.9179 23.7053V25.2141H35.2972V23.828C35.2972 23.7034 35.2641 23.6099 35.1979 23.5476C35.1317 23.4852 35.0489 23.4541 34.9496 23.4541C34.8366 23.4541 34.7485 23.4901 34.6852 23.5622C34.6219 23.6332 34.5903 23.7272 34.5903 23.8441V25.2141H33.9871V23.8148C33.9871 23.7048 33.9554 23.6172 33.8922 23.5519C33.8298 23.4867 33.7476 23.4541 33.6453 23.4541C33.5762 23.4541 33.5139 23.4716 33.4584 23.5067C33.4038 23.5407 33.3605 23.5889 33.3284 23.6513C33.2962 23.7126 33.2802 23.7847 33.2802 23.8674V25.2141H32.658ZM37.0491 25.2564C36.906 25.2564 36.7784 25.2316 36.6665 25.1819C36.5545 25.1313 36.4659 25.0568 36.4006 24.9585C36.3364 24.8591 36.3042 24.7355 36.3042 24.5875C36.3042 24.4628 36.3271 24.3582 36.3729 24.2735C36.4187 24.1887 36.481 24.1206 36.5598 24.069C36.6387 24.0174 36.7283 23.9784 36.8286 23.9521C36.9298 23.9258 37.036 23.9073 37.147 23.8966C37.2775 23.883 37.3826 23.8703 37.4625 23.8587C37.5423 23.846 37.6002 23.8275 37.6363 23.8032C37.6723 23.7788 37.6903 23.7428 37.6903 23.6951V23.6863C37.6903 23.5938 37.6611 23.5222 37.6027 23.4716C37.5452 23.421 37.4634 23.3957 37.3573 23.3957C37.2453 23.3957 37.1562 23.4205 37.09 23.4702C37.0238 23.5188 36.98 23.5802 36.9586 23.6542L36.3831 23.6074C36.4123 23.4711 36.4698 23.3533 36.5555 23.254C36.6411 23.1537 36.7517 23.0768 36.887 23.0232C37.0233 22.9687 37.1811 22.9414 37.3602 22.9414C37.4849 22.9414 37.6041 22.956 37.7181 22.9853C37.833 23.0145 37.9347 23.0597 38.0233 23.1211C38.1129 23.1824 38.1835 23.2613 38.2351 23.3577C38.2867 23.4531 38.3125 23.5675 38.3125 23.7009V25.2141H37.7224V24.903H37.7049C37.6689 24.9731 37.6207 25.0349 37.5603 25.0884C37.5 25.141 37.4274 25.1824 37.3427 25.2126C37.258 25.2418 37.1601 25.2564 37.0491 25.2564ZM37.2273 24.827C37.3188 24.827 37.3997 24.809 37.4698 24.773C37.5399 24.736 37.5949 24.6863 37.6348 24.624C37.6747 24.5617 37.6947 24.4911 37.6947 24.4122V24.1741C37.6752 24.1868 37.6484 24.1985 37.6144 24.2092C37.5813 24.2189 37.5438 24.2282 37.5019 24.2369C37.46 24.2447 37.4182 24.252 37.3763 24.2589C37.3344 24.2647 37.2964 24.27 37.2624 24.2749C37.1893 24.2856 37.1256 24.3027 37.071 24.326C37.0165 24.3494 36.9742 24.3811 36.944 24.421C36.9138 24.4599 36.8987 24.5086 36.8987 24.567C36.8987 24.6517 36.9294 24.7165 36.9907 24.7613C37.053 24.8051 37.1319 24.827 37.2273 24.827ZM39.1589 25.252C39.0625 25.252 38.9797 25.2179 38.9106 25.1498C38.8424 25.0807 38.8084 24.9979 38.8084 24.9015C38.8084 24.8061 38.8424 24.7243 38.9106 24.6561C38.9797 24.588 39.0625 24.5539 39.1589 24.5539C39.2524 24.5539 39.3342 24.588 39.4043 24.6561C39.4744 24.7243 39.5094 24.8061 39.5094 24.9015C39.5094 24.9658 39.4929 25.0247 39.4598 25.0782C39.4276 25.1308 39.3853 25.1732 39.3327 25.2053C39.2801 25.2364 39.2222 25.252 39.1589 25.252ZM40.0203 26.0553V22.9706H40.6337V23.3475H40.6614C40.6887 23.2871 40.7281 23.2258 40.7797 23.1634C40.8323 23.1001 40.9005 23.0476 40.9842 23.0057C41.0689 22.9629 41.1741 22.9414 41.2997 22.9414C41.4633 22.9414 41.6142 22.9843 41.7525 23.07C41.8907 23.1547 42.0012 23.2827 42.084 23.4541C42.1668 23.6245 42.2082 23.8382 42.2082 24.0953C42.2082 24.3455 42.1677 24.5568 42.0869 24.7291C42.0071 24.9005 41.898 25.0305 41.7598 25.1191C41.6225 25.2067 41.4686 25.2506 41.2982 25.2506C41.1775 25.2506 41.0748 25.2306 40.9901 25.1907C40.9063 25.1508 40.8377 25.1006 40.7841 25.0402C40.7306 24.9789 40.6897 24.9171 40.6614 24.8548H40.6424V26.0553H40.0203ZM40.6293 24.0923C40.6293 24.2257 40.6478 24.3421 40.6848 24.4414C40.7218 24.5407 40.7754 24.6181 40.8455 24.6736C40.9156 24.7282 41.0008 24.7554 41.1011 24.7554C41.2023 24.7554 41.288 24.7277 41.3581 24.6722C41.4282 24.6157 41.4813 24.5378 41.5173 24.4385C41.5543 24.3382 41.5728 24.2228 41.5728 24.0923C41.5728 23.9628 41.5548 23.8489 41.5188 23.7506C41.4827 23.6522 41.4297 23.5753 41.3596 23.5198C41.2895 23.4643 41.2033 23.4366 41.1011 23.4366C40.9998 23.4366 40.9141 23.4633 40.844 23.5169C40.7749 23.5704 40.7218 23.6464 40.6848 23.7447C40.6478 23.8431 40.6293 23.959 40.6293 24.0923ZM42.6229 25.2141V22.9706H43.2262V23.3621H43.2495C43.2904 23.2228 43.3591 23.1177 43.4555 23.0466C43.5519 22.9745 43.6629 22.9385 43.7885 22.9385C43.8196 22.9385 43.8532 22.9405 43.8892 22.9444C43.9253 22.9483 43.9569 22.9536 43.9842 22.9604V23.5125C43.955 23.5037 43.9146 23.496 43.863 23.4891C43.8113 23.4823 43.7641 23.4789 43.7213 23.4789C43.6298 23.4789 43.548 23.4989 43.4759 23.5388C43.4048 23.5777 43.3484 23.6323 43.3065 23.7024C43.2656 23.7725 43.2451 23.8533 43.2451 23.9448V25.2141H42.6229ZM44.3059 25.2141V22.9706H44.9281V25.2141H44.3059ZM44.6184 22.6815C44.5259 22.6815 44.4466 22.6508 44.3804 22.5894C44.3151 22.5271 44.2825 22.4526 44.2825 22.366C44.2825 22.2803 44.3151 22.2068 44.3804 22.1454C44.4466 22.0831 44.5259 22.052 44.6184 22.052C44.7109 22.052 44.7898 22.0831 44.855 22.1454C44.9212 22.2068 44.9544 22.2803 44.9544 22.366C44.9544 22.4526 44.9212 22.5271 44.855 22.5894C44.7898 22.6508 44.7109 22.6815 44.6184 22.6815ZM47.2931 23.6104L46.7234 23.6454C46.7137 23.5967 46.6928 23.5529 46.6606 23.514C46.6285 23.474 46.5862 23.4424 46.5336 23.419C46.482 23.3947 46.4201 23.3825 46.3481 23.3825C46.2517 23.3825 46.1704 23.403 46.1042 23.4439C46.038 23.4838 46.0049 23.5373 46.0049 23.6045C46.0049 23.6581 46.0263 23.7034 46.0691 23.7404C46.112 23.7774 46.1855 23.8071 46.2897 23.8294L46.6957 23.9112C46.9138 23.956 47.0764 24.0281 47.1835 24.1274C47.2906 24.2267 47.3442 24.3572 47.3442 24.5188C47.3442 24.6659 47.3008 24.7949 47.2142 24.9059C47.1285 25.0169 47.0107 25.1035 46.8607 25.1659C46.7118 25.2272 46.5399 25.2579 46.3452 25.2579C46.0482 25.2579 45.8116 25.196 45.6353 25.0724C45.4601 24.9477 45.3573 24.7783 45.3272 24.5641L45.9391 24.532C45.9576 24.6225 46.0024 24.6917 46.0735 24.7394C46.1446 24.7861 46.2356 24.8095 46.3466 24.8095C46.4557 24.8095 46.5433 24.7885 46.6095 24.7467C46.6767 24.7038 46.7108 24.6488 46.7118 24.5816C46.7108 24.5252 46.6869 24.4789 46.6402 24.4429C46.5935 24.4059 46.5214 24.3776 46.424 24.3582L46.0355 24.2808C45.8164 24.2369 45.6533 24.161 45.5462 24.0529C45.4401 23.9448 45.387 23.8071 45.387 23.6396C45.387 23.4955 45.426 23.3713 45.5039 23.2671C45.5828 23.163 45.6933 23.0826 45.8354 23.0261C45.9786 22.9697 46.146 22.9414 46.3379 22.9414C46.6212 22.9414 46.8442 23.0013 47.0068 23.1211C47.1704 23.2408 47.2658 23.4039 47.2931 23.6104ZM47.736 25.2141V22.9706H48.3289V23.3665H48.3552C48.402 23.235 48.4799 23.1313 48.5889 23.0554C48.698 22.9794 48.8285 22.9414 48.9804 22.9414C49.1342 22.9414 49.2652 22.9799 49.3732 23.0568C49.4813 23.1328 49.5534 23.236 49.5894 23.3665H49.6128C49.6585 23.2379 49.7413 23.1352 49.8611 23.0583C49.9818 22.9804 50.1245 22.9414 50.289 22.9414C50.4984 22.9414 50.6683 23.0081 50.7987 23.1415C50.9302 23.274 50.9959 23.4619 50.9959 23.7053V25.2141H50.3752V23.828C50.3752 23.7034 50.3421 23.6099 50.2759 23.5476C50.2097 23.4852 50.1269 23.4541 50.0276 23.4541C49.9146 23.4541 49.8265 23.4901 49.7632 23.5622C49.6999 23.6332 49.6683 23.7272 49.6683 23.8441V25.2141H49.0651V23.8148C49.0651 23.7048 49.0334 23.6172 48.9701 23.5519C48.9078 23.4867 48.8255 23.4541 48.7233 23.4541C48.6542 23.4541 48.5918 23.4716 48.5363 23.5067C48.4818 23.5407 48.4385 23.5889 48.4064 23.6513C48.3742 23.7126 48.3582 23.7847 48.3582 23.8674V25.2141H47.736ZM52.1271 25.2564C51.984 25.2564 51.8564 25.2316 51.7444 25.1819C51.6325 25.1313 51.5439 25.0568 51.4786 24.9585C51.4144 24.8591 51.3822 24.7355 51.3822 24.5875C51.3822 24.4628 51.4051 24.3582 51.4509 24.2735C51.4966 24.1887 51.559 24.1206 51.6378 24.069C51.7167 24.0174 51.8063 23.9784 51.9066 23.9521C52.0078 23.9258 52.114 23.9073 52.225 23.8966C52.3554 23.883 52.4606 23.8703 52.5404 23.8587C52.6203 23.846 52.6782 23.8275 52.7142 23.8032C52.7503 23.7788 52.7683 23.7428 52.7683 23.6951V23.6863C52.7683 23.5938 52.7391 23.5222 52.6807 23.4716C52.6232 23.421 52.5414 23.3957 52.4353 23.3957C52.3233 23.3957 52.2342 23.4205 52.168 23.4702C52.1018 23.5188 52.058 23.5802 52.0366 23.6542L51.4611 23.6074C51.4903 23.4711 51.5478 23.3533 51.6334 23.254C51.7191 23.1537 51.8296 23.0768 51.965 23.0232C52.1013 22.9687 52.259 22.9414 52.4382 22.9414C52.5628 22.9414 52.6821 22.956 52.796 22.9853C52.9109 23.0145 53.0127 23.0597 53.1013 23.1211C53.1909 23.1824 53.2615 23.2613 53.3131 23.3577C53.3647 23.4531 53.3905 23.5675 53.3905 23.7009V25.2141H52.8004V24.903H52.7829C52.7469 24.9731 52.6987 25.0349 52.6383 25.0884C52.5779 25.141 52.5054 25.1824 52.4207 25.2126C52.336 25.2418 52.2381 25.2564 52.1271 25.2564ZM52.3053 24.827C52.3968 24.827 52.4776 24.809 52.5477 24.773C52.6179 24.736 52.6729 24.6863 52.7128 24.624C52.7527 24.5617 52.7727 24.4911 52.7727 24.4122V24.1741C52.7532 24.1868 52.7264 24.1985 52.6923 24.2092C52.6592 24.2189 52.6217 24.2282 52.5799 24.2369C52.538 24.2447 52.4961 24.252 52.4543 24.2589C52.4124 24.2647 52.3744 24.27 52.3403 24.2749C52.2673 24.2856 52.2035 24.3027 52.149 24.326C52.0945 24.3494 52.0521 24.3811 52.0219 24.421C51.9918 24.4599 51.9767 24.5086 51.9767 24.567C51.9767 24.6517 52.0073 24.7165 52.0687 24.7613C52.131 24.8051 52.2099 24.827 52.3053 24.827Z" fill="#4A5568"/>
<path d="M15.416 21.4773C15.416 20.2559 16.4061 19.2658 17.6275 19.2658H55.9937C57.215 19.2658 58.2052 20.2559 58.2052 21.4773H57.5733C57.5733 20.6049 56.8661 19.8977 55.9937 19.8977H17.6275C16.7551 19.8977 16.0479 20.6049 16.0479 21.4773H15.416ZM57.8892 27.4798H15.7319H57.8892ZM15.416 27.4798V21.4773C15.416 20.2559 16.4061 19.2658 17.6275 19.2658V19.8977C16.7551 19.8977 16.0479 20.6049 16.0479 21.4773V27.4798H15.416ZM55.9937 19.2658C57.215 19.2658 58.2052 20.2559 58.2052 21.4773V27.4798H57.5733V21.4773C57.5733 20.6049 56.8661 19.8977 55.9937 19.8977V19.2658Z" fill="#E2E8F0" mask="url(#path-5-inside-2_415_62981)"/>
<path d="M183.267 27.4799H10.6772V28.1117H183.267V27.4799Z" fill="#E2E8F0" mask="url(#path-3-inside-1_415_62981)"/>
<rect width="173.378" height="219.252" transform="translate(11.9409 29.0594)" fill="white"/>
<g clip-path="url(#clip4_415_62981)">
<g clip-path="url(#clip5_415_62981)">
<rect width="6.19015" height="229.993" transform="translate(11.9409 29.0594)" fill="white"/>
<path d="M12.353 31.958C12.353 30.9111 13.2017 30.0624 14.2486 30.0624H18.353V37.0624H14.2486C13.2017 37.0624 12.353 36.2138 12.353 35.1669V31.958Z" fill="#EBF4FF"/>
</g>
<g clip-path="url(#clip6_415_62981)">
<rect width="10.3663" height="229.993" transform="translate(18.1309 29.0594)" fill="white"/>
<rect width="10.523" height="7" transform="translate(18.1309 30.3224)" fill="#EBF4FF"/>
<path d="M25.808 35.3224V34.9876H24.9312V32.206H24.5576L23.6289 32.8086V33.2146L24.5209 32.638H24.5554V34.9876H23.6354V35.3224H25.808Z" fill="#2D3748"/>
<path d="M21.0961 41.8996V41.9125H21.4632V41.8996C21.4632 41.5324 21.7008 41.2927 22.0593 41.2927C22.4221 41.2927 22.6575 41.513 22.6575 41.8477C22.6575 42.0939 22.5625 42.2602 22.1672 42.7029L21.1133 43.8756V44.1391H23.0851V43.7936H21.6576V43.7568L22.3918 42.9578C22.8886 42.4157 23.0354 42.1565 23.0354 41.8326C23.0354 41.3121 22.6424 40.9579 22.0701 40.9579C21.5021 40.9579 21.0961 41.351 21.0961 41.8996Z" fill="#A0A2A5"/>
<path d="M21.7094 52.6338H22.0657C22.4977 52.6338 22.7719 52.8648 22.7719 53.2277C22.7719 53.5797 22.5063 53.8 22.0787 53.8C21.69 53.8 21.4135 53.584 21.379 53.2514H21.0183C21.0464 53.7892 21.474 54.1433 22.0895 54.1433C22.7115 54.1433 23.1564 53.7654 23.1564 53.2363C23.1564 52.8108 22.9102 52.5193 22.4955 52.4653V52.4307C22.8302 52.3487 23.0268 52.0809 23.0268 51.7051C23.0268 51.2321 22.6294 50.8974 22.0722 50.8974C21.4956 50.8974 21.1155 51.2321 21.0788 51.7721H21.4438C21.474 51.4373 21.7072 51.2321 22.0571 51.2321C22.4091 51.2321 22.6424 51.4416 22.6424 51.7591C22.6424 52.0852 22.3983 52.3141 22.0485 52.3141H21.7094V52.6338Z" fill="#A0A2A5"/>
<path d="M22.4545 64.019H22.8022V63.3604H23.2795V63.0256H22.8043V62.1402H22.4588V63.0299H21.4373V63.0019L22.4804 60.9027H22.0917L21.0334 63.0515V63.3604H22.4545V64.019Z" fill="#A0A2A5"/>
<path d="M22.0636 74.0201C22.6963 74.0201 23.1261 73.5925 23.1261 72.9619C23.1261 72.3485 22.7244 71.9188 22.1478 71.9188C21.8735 71.9188 21.6511 72.0159 21.4977 72.2017H21.4632L21.5496 71.1845H22.9533V70.8411H21.2494L21.0917 72.6012H21.4524C21.5755 72.3809 21.8066 72.2535 22.0852 72.2535C22.4847 72.2535 22.7547 72.5429 22.7547 72.9705C22.7547 73.3938 22.4869 73.6767 22.0852 73.6767C21.7202 73.6767 21.4416 73.4521 21.407 73.126H21.0399C21.0723 73.6616 21.4826 74.0201 22.0636 74.0201Z" fill="#A0A2A5"/>
<path d="M23.1585 82.897C23.1585 82.329 22.7482 81.9079 22.1932 81.9079C21.9945 81.9079 21.7699 82.0007 21.677 82.126L21.6446 82.1087C21.6597 82.0742 21.6511 82.0828 21.7461 81.9489L22.597 80.7806H22.1586C22.137 80.8129 21.4891 81.72 21.461 81.7675C21.163 82.2016 21.0399 82.532 21.0399 82.897C21.0399 83.5168 21.4826 83.9617 22.096 83.9617C22.7136 83.9617 23.1585 83.5147 23.1585 82.897ZM22.0981 83.6226C21.7072 83.6226 21.4092 83.316 21.4092 82.9164C21.4092 82.5147 21.7072 82.2081 22.0981 82.2081C22.4912 82.2081 22.7892 82.5147 22.7892 82.9164C22.7892 83.316 22.4912 83.6226 22.0981 83.6226Z" fill="#A0A2A5"/>
<path d="M21.3423 93.8364H21.7483L23.1456 91.072V90.72H21.0658V91.0612H22.7568V91.0893L21.3423 93.8364Z" fill="#A0A2A5"/>
<path d="M22.1003 103.845C22.7482 103.845 23.1974 103.473 23.1974 102.942C23.1974 102.549 22.9404 102.227 22.5625 102.147V102.113C22.8799 102.024 23.0721 101.759 23.0721 101.42C23.0721 100.934 22.6683 100.59 22.1003 100.59C21.5323 100.59 21.1263 100.934 21.1263 101.42C21.1263 101.759 21.3228 102.027 21.636 102.113V102.147C21.2516 102.24 21.001 102.556 21.001 102.942C21.001 103.473 21.4524 103.845 22.1003 103.845ZM22.1003 101.983C21.7396 101.983 21.4999 101.772 21.4999 101.452C21.4999 101.135 21.7396 100.923 22.1003 100.923C22.4609 100.923 22.6985 101.135 22.6985 101.452C22.6985 101.772 22.4609 101.983 22.1003 101.983ZM22.1003 103.515C21.677 103.515 21.3854 103.268 21.3854 102.912C21.3854 102.556 21.677 102.309 22.1003 102.309C22.5236 102.309 22.8151 102.556 22.8151 102.912C22.8151 103.268 22.5236 103.515 22.1003 103.515Z" fill="#A0A2A5"/>
<path d="M21.0248 111.599C21.0248 112.169 21.433 112.588 21.9901 112.588C22.1867 112.588 22.407 112.495 22.4998 112.37L22.5322 112.387C22.5128 112.422 22.4977 112.45 22.4264 112.547L21.5777 113.715H22.0139C22.0377 113.683 22.6834 112.776 22.7115 112.728C23.0181 112.283 23.1434 111.953 23.1434 111.599C23.1434 110.977 22.7007 110.534 22.0852 110.534C21.4697 110.534 21.0248 110.981 21.0248 111.599ZM22.083 110.873C22.4761 110.873 22.7741 111.18 22.7741 111.579C22.7741 111.981 22.4761 112.288 22.083 112.288C21.6921 112.288 21.3941 111.981 21.3941 111.579C21.3941 111.18 21.6921 110.873 22.083 110.873Z" fill="#A0A2A5"/>
<path d="M21.6866 123.655V123.344H20.8724V120.761H20.5255L19.6631 121.321V121.698L20.4914 121.162H20.5235V123.344H19.6692V123.655H21.6866ZM23.1345 123.721C23.7621 123.721 24.1111 123.184 24.1111 122.209C24.1111 121.234 23.7621 120.697 23.1345 120.697C22.5048 120.697 22.1578 121.234 22.1578 122.209C22.1578 123.184 22.5048 123.721 23.1345 123.721ZM22.5088 122.209C22.5088 121.423 22.7254 121.01 23.1345 121.01C23.4072 121.01 23.5957 121.194 23.6899 121.553L22.5228 122.528C22.5148 122.429 22.5088 122.323 22.5088 122.209ZM23.1345 123.408C22.8617 123.408 22.6752 123.224 22.581 122.869L23.7441 121.886C23.7541 121.986 23.7581 122.093 23.7581 122.209C23.7581 122.993 23.5436 123.408 23.1345 123.408Z" fill="#A0A2A5"/>
<path d="M21.6866 133.595V133.284H20.8724V130.701H20.5255L19.6631 131.261V131.638L20.4914 131.103H20.5235V133.284H19.6692V133.595H21.6866ZM24.2254 133.595V133.284H23.4112V130.701H23.0643L22.202 131.261V131.638L23.0302 131.103H23.0623V133.284H22.208V133.595H24.2254Z" fill="#A0A2A5"/>
<path d="M21.6866 143.535V143.224H20.8724V140.641H20.5255L19.6631 141.2V141.577L20.4914 141.042H20.5235V143.224H19.6692V143.535H21.6866ZM22.21 141.455V141.467H22.5509V141.455C22.5509 141.114 22.7715 140.892 23.1044 140.892C23.4413 140.892 23.6599 141.096 23.6599 141.407C23.6599 141.636 23.5716 141.79 23.2046 142.201L22.226 143.29V143.535H24.0569V143.214H22.7314V143.18L23.4132 142.438C23.8744 141.934 24.0108 141.694 24.0108 141.393C24.0108 140.91 23.6458 140.581 23.1144 140.581C22.587 140.581 22.21 140.946 22.21 141.455Z" fill="#A0A2A5"/>
</g>
<path d="M31.3945 31.5768C31.3945 30.8197 32.0083 30.2059 32.7655 30.2059H131.475C132.232 30.2059 132.846 30.8197 132.846 31.5768V34.3188C132.846 35.0759 132.232 35.6897 131.475 35.6897H32.7655C32.0083 35.6897 31.3945 35.0759 31.3945 34.3188V31.5768Z" fill="#EBF4FF"/>
<path d="M31.3945 40.4884C31.3945 39.7312 32.0083 39.1174 32.7655 39.1174H106.455C107.212 39.1174 107.826 39.7312 107.826 40.4884V43.2303C107.826 43.9875 107.212 44.6013 106.455 44.6013H32.7655C32.0083 44.6013 31.3945 43.9875 31.3945 43.2303V40.4884Z" fill="#EBF4FF"/>
<path d="M31.3945 49.4C31.3945 48.6429 32.0083 48.0291 32.7655 48.0291H89.6607C90.4179 48.0291 91.0317 48.6429 91.0317 49.4V52.142C91.0317 52.8991 90.4179 53.5129 89.6607 53.5129H32.7655C32.0083 53.5129 31.3945 52.8991 31.3945 52.142V49.4Z" fill="#EBF4FF"/>
<path d="M31.3945 70.3078C31.3945 69.5506 32.0083 68.9368 32.7655 68.9368H106.455C107.212 68.9368 107.826 69.5506 107.826 70.3078V73.0497C107.826 73.8069 107.212 74.4207 106.455 74.4207H32.7655C32.0083 74.4207 31.3945 73.8069 31.3945 73.0497V70.3078Z" fill="#EBF4FF"/>
<path d="M31.3945 90.1867C31.3945 89.4295 32.0083 88.8157 32.7655 88.8157H99.943C100.7 88.8157 101.314 89.4295 101.314 90.1867V92.9286C101.314 93.6858 100.7 94.2996 99.943 94.2996H32.7655C32.0083 94.2996 31.3945 93.6858 31.3945 92.9286V90.1867Z" fill="#EBF4FF"/>
<path d="M31.3945 100.126C31.3945 99.369 32.0083 98.7552 32.7655 98.7552H82.4631C83.2203 98.7552 83.8341 99.369 83.8341 100.126V102.868C83.8341 103.625 83.2203 104.239 82.4631 104.239H32.7655C32.0083 104.239 31.3945 103.625 31.3945 102.868V100.126Z" fill="#EBF4FF"/>
<path d="M31.3945 120.005C31.3945 119.248 32.0083 118.634 32.7655 118.634H99.943C100.7 118.634 101.314 119.248 101.314 120.005V122.747C101.314 123.504 100.7 124.118 99.943 124.118H32.7655C32.0083 124.118 31.3945 123.504 31.3945 122.747V120.005Z" fill="#EBF4FF"/>
<path d="M31.3945 80.2473C31.3945 79.4901 32.0083 78.8763 32.7655 78.8763H118.794C119.551 78.8763 120.165 79.4901 120.165 80.2473V82.9892C120.165 83.7464 119.551 84.3602 118.794 84.3602H32.7655C32.0083 84.3602 31.3945 83.7464 31.3945 82.9892V80.2473Z" fill="#EBF4FF"/>
</g>
</g>
</g>
</g>
</g>
<g filter="url(#filter1_ddd_415_62981)">
<g clip-path="url(#clip7_415_62981)">
<rect x="143.515" y="24.9645" width="127.482" height="135.986" rx="1.58355" fill="#1A202C"/>
<g clip-path="url(#clip8_415_62981)">
<g clip-path="url(#clip9_415_62981)">
<path d="M151.875 76.7011H248.009V76.3295H151.875V76.7011Z" fill="#4A5568" mask="url(#path-32-inside-3_415_62981)"/>
<rect x="151.875" y="93.2345" width="96.8309" height="20.3616" rx="1.48619" fill="#2D3748"/>
<path d="M248.705 99.2915H151.875V99.6631H248.705V99.2915Z" fill="#4A5568" mask="url(#path-35-inside-4_415_62981)"/>
<path d="M152.04 41.4508C152.04 40.6936 152.654 40.0798 153.411 40.0798H249.722C250.479 40.0798 251.093 40.6936 251.093 41.4508V44.1927C251.093 44.9499 250.479 45.5637 249.722 45.5637H153.411C152.654 45.5637 152.04 44.9499 152.04 44.1927V41.4508Z" fill="#2D3748"/>
<path d="M152.04 83.608C152.04 82.8509 152.654 82.2371 153.411 82.2371H190.77C191.527 82.2371 192.141 82.8509 192.141 83.608V86.35C192.141 87.1071 191.527 87.7209 190.77 87.7209H153.411C152.654 87.7209 152.04 87.1071 152.04 86.35V83.608Z" fill="#2D3748"/>
<path d="M152.04 119.184C152.04 118.426 152.654 117.813 153.411 117.813H190.77C191.527 117.813 192.141 118.426 192.141 119.184V121.925C192.141 122.683 191.527 123.296 190.77 123.296H153.411C152.654 123.296 152.04 122.683 152.04 121.925V119.184Z" fill="#2D3748"/>
<path d="M152.04 50.3622C152.04 49.6051 152.654 48.9913 153.411 48.9913H194.197C194.955 48.9913 195.568 49.6051 195.568 50.3622V53.1042C195.568 53.8613 194.955 54.4751 194.197 54.4751H153.411C152.654 54.4751 152.04 53.8613 152.04 53.1042V50.3622Z" fill="#2D3748"/>
<path d="M152.04 59.2736C152.04 58.5165 152.654 57.9026 153.411 57.9026H212.705C213.463 57.9026 214.076 58.5165 214.076 59.2736V62.0156C214.076 62.7727 213.463 63.3865 212.705 63.3865H153.411C152.654 63.3865 152.04 62.7727 152.04 62.0156V59.2736Z" fill="#2D3748"/>
<path d="M152.04 68.185C152.04 67.4278 152.654 66.814 153.411 66.814H238.411C239.168 66.814 239.782 67.4278 239.782 68.185V70.9269C239.782 71.6841 239.168 72.2979 238.411 72.2979H153.411C152.654 72.2979 152.04 71.6841 152.04 70.9269V68.185Z" fill="#2D3748"/>
<rect x="256.85" y="40.0798" width="5.15596" height="2.69776" rx="1.34888" fill="#68D391"/>
<rect x="229.621" y="140.824" width="20.3222" height="8.4456" rx="1.58355" fill="#48BB78"/>
<rect x="232.305" y="143.284" width="14.9547" height="3.52484" rx="1.0557" fill="#C6F6D5"/>
<rect x="143.515" y="24.9641" width="128.593" height="9.42894" fill="#2D3748"/>
<path d="M150.081 29.6869H149.386V31.6785H148.835V29.6869H148.143V29.2396H150.081V29.6869ZM151.922 30.9608H150.786C150.804 31.2136 150.963 31.34 151.263 31.34C151.455 31.34 151.623 31.2947 151.769 31.204V31.5917C151.608 31.6779 151.398 31.721 151.141 31.721C150.86 31.721 150.642 31.6433 150.486 31.488C150.331 31.3315 150.253 31.1138 150.253 30.8349C150.253 30.5458 150.337 30.3167 150.505 30.1478C150.673 29.9789 150.879 29.8944 151.124 29.8944C151.378 29.8944 151.574 29.9698 151.712 30.1206C151.852 30.2714 151.922 30.476 151.922 30.7346V30.9608ZM151.423 30.6308C151.423 30.3814 151.322 30.2566 151.121 30.2566C151.034 30.2566 150.96 30.2924 150.896 30.3638C150.834 30.4352 150.796 30.5242 150.782 30.6308H151.423ZM153.377 30.4216C153.313 30.3865 153.237 30.3689 153.151 30.3689C153.034 30.3689 152.943 30.412 152.877 30.4981C152.812 30.5832 152.779 30.6994 152.779 30.8468V31.6785H152.241V29.9369H152.779V30.26H152.786C152.871 30.0242 153.024 29.9063 153.245 29.9063C153.301 29.9063 153.346 29.9131 153.377 29.9267V30.4216ZM156.395 31.6785H155.859V30.6852C155.859 30.4324 155.766 30.306 155.58 30.306C155.491 30.306 155.419 30.3439 155.364 30.4199C155.308 30.4959 155.281 30.5906 155.281 30.7039V31.6785H154.743V30.675C154.743 30.429 154.652 30.306 154.469 30.306C154.378 30.306 154.304 30.3422 154.248 30.4148C154.194 30.4874 154.167 30.586 154.167 30.7107V31.6785H153.629V29.9369H154.167V30.209H154.173C154.229 30.116 154.307 30.0406 154.406 29.9828C154.507 29.9239 154.617 29.8944 154.736 29.8944C154.982 29.8944 155.151 30.0027 155.241 30.2192C155.374 30.0027 155.569 29.8944 155.827 29.8944C156.205 29.8944 156.395 30.128 156.395 30.5951V31.6785ZM157.092 29.6614C157.001 29.6614 156.927 29.6347 156.869 29.5814C156.811 29.527 156.782 29.4607 156.782 29.3825C156.782 29.302 156.811 29.2362 156.869 29.1852C156.927 29.1342 157.001 29.1086 157.092 29.1086C157.184 29.1086 157.258 29.1342 157.315 29.1852C157.373 29.2362 157.401 29.302 157.401 29.3825C157.401 29.4641 157.373 29.531 157.315 29.5831C157.258 29.6353 157.184 29.6614 157.092 29.6614ZM157.357 31.6785H156.82V29.9369H157.357V31.6785ZM159.492 31.6785H158.956V30.7107C158.956 30.4409 158.86 30.306 158.667 30.306C158.574 30.306 158.497 30.3417 158.437 30.4131C158.377 30.4845 158.347 30.5752 158.347 30.6852V31.6785H157.81V29.9369H158.347V30.2124H158.354C158.482 30.0004 158.668 29.8944 158.913 29.8944C159.299 29.8944 159.492 30.1336 159.492 30.6121V31.6785ZM161.368 31.6785H160.859V31.4285H160.852C160.735 31.6235 160.563 31.721 160.334 31.721C160.165 31.721 160.031 31.6734 159.934 31.5781C159.837 31.4817 159.789 31.3536 159.789 31.1938C159.789 30.8559 159.989 30.6609 160.39 30.6087L160.862 30.5458C160.862 30.3553 160.759 30.26 160.553 30.26C160.345 30.26 160.148 30.3218 159.961 30.4454V30.0406C160.036 30.0021 160.138 29.9681 160.267 29.9386C160.398 29.9091 160.516 29.8944 160.623 29.8944C161.119 29.8944 161.368 30.1421 161.368 30.6376V31.6785ZM160.862 30.971V30.8536L160.546 30.8944C160.371 30.9171 160.284 30.9959 160.284 31.1308C160.284 31.1921 160.305 31.2425 160.347 31.2822C160.39 31.3207 160.448 31.34 160.521 31.34C160.622 31.34 160.704 31.3054 160.767 31.2363C160.831 31.166 160.862 31.0775 160.862 30.971ZM162.33 31.6785H161.793V29.1001H162.33V31.6785Z" fill="#A0AEC0"/>
</g>
</g>
<rect x="257.042" y="44.8881" width="4.45857" height="4.45857" rx="2.22928" fill="white"/>
<g clip-path="url(#clip10_415_62981)">
<path d="M260.262 46.3732L258.9 47.7355L258.28 47.1163" stroke="#68D391" stroke-width="0.371547" stroke-linecap="round" stroke-linejoin="round"/>
</g>
<rect x="259.085" y="49.3483" width="0.371547" height="5.94476" fill="white"/>
<rect x="257.042" y="55.2925" width="4.45857" height="4.45857" rx="2.22928" fill="white"/>
<g clip-path="url(#clip11_415_62981)">
<path d="M260.262 56.7784L258.9 58.1407L258.28 57.5215" stroke="#68D391" stroke-width="0.371547" stroke-linecap="round" stroke-linejoin="round"/>
</g>
<rect x="259.085" y="59.7515" width="0.371547" height="5.94476" fill="white"/>
<rect x="257.228" y="65.8816" width="4.08702" height="4.08702" rx="2.04351" fill="white"/>
<rect x="258.342" y="66.9948" width="1.85774" height="1.85774" rx="0.928868" fill="#68D391" fill-opacity="0.695001"/>
<rect x="257.228" y="65.8816" width="4.08702" height="4.08702" rx="2.04351" stroke="white" stroke-width="0.371547"/>
<rect x="259.085" y="70.1537" width="0.371547" height="5.94476" fill="#68D391" fill-opacity="0.5"/>
<rect x="257.228" y="76.2849" width="4.08702" height="4.08702" rx="2.04351" stroke="#68D391" stroke-opacity="0.5" stroke-width="0.371547"/>
<rect x="259.085" y="80.557" width="0.371547" height="5.94476" fill="#68D391" fill-opacity="0.5"/>
<rect x="257.228" y="86.6882" width="4.08702" height="4.08702" rx="2.04351" stroke="#68D391" stroke-opacity="0.5" stroke-width="0.371547"/>
<rect x="259.085" y="90.9603" width="0.371547" height="5.94476" fill="#68D391" fill-opacity="0.5"/>
<rect x="257.228" y="97.0926" width="4.08702" height="4.08702" rx="2.04351" stroke="#68D391" stroke-opacity="0.5" stroke-width="0.371547"/>
</g>
</g>
<g filter="url(#filter2_d_415_62981)">
<rect x="141.938" y="3.80615" width="2.27371" height="166.495" fill="#71E8DF"/>
</g>
<defs>
<filter id="filter0_ddd_415_62981" x="0.276367" y="6.09949" width="155.171" height="158.379" filterUnits="userSpaceOnUse" color-interpolation-filters="sRGB">
<feFlood flood-opacity="0" result="BackgroundImageFix"/>
<feColorMatrix in="SourceAlpha" type="matrix" values="0 0 0 0 0 0 0 0 0 0 0 0 0 0 0 0 0 0 127 0" result="hardAlpha"/>
<feOffset dy="4"/>
<feGaussianBlur stdDeviation="6"/>
<feColorMatrix type="matrix" values="0 0 0 0 0.0901961 0 0 0 0 0.168627 0 0 0 0 0.301961 0 0 0 0.08 0"/>
<feBlend mode="normal" in2="BackgroundImageFix" result="effect1_dropShadow_415_62981"/>
<feColorMatrix in="SourceAlpha" type="matrix" values="0 0 0 0 0 0 0 0 0 0 0 0 0 0 0 0 0 0 127 0" result="hardAlpha"/>
<feOffset dy="4"/>
<feGaussianBlur stdDeviation="6"/>
<feColorMatrix type="matrix" values="0 0 0 0 0.0901961 0 0 0 0 0.168627 0 0 0 0 0.301961 0 0 0 0.05 0"/>
<feBlend mode="normal" in2="effect1_dropShadow_415_62981" result="effect2_dropShadow_415_62981"/>
<feColorMatrix in="SourceAlpha" type="matrix" values="0 0 0 0 0 0 0 0 0 0 0 0 0 0 0 0 0 0 127 0" result="hardAlpha"/>
<feOffset/>
<feGaussianBlur stdDeviation="6"/>
<feComposite in2="hardAlpha" operator="out"/>
<feColorMatrix type="matrix" values="0 0 0 0 0.0901961 0 0 0 0 0.168627 0 0 0 0 0.301961 0 0 0 0.01 0"/>
<feBlend mode="normal" in2="effect2_dropShadow_415_62981" result="effect3_dropShadow_415_62981"/>
<feBlend mode="normal" in="SourceGraphic" in2="effect3_dropShadow_415_62981" result="shape"/>
</filter>
<filter id="filter1_ddd_415_62981" x="131.515" y="12.9645" width="151.482" height="163.986" filterUnits="userSpaceOnUse" color-interpolation-filters="sRGB">
<feFlood flood-opacity="0" result="BackgroundImageFix"/>
<feColorMatrix in="SourceAlpha" type="matrix" values="0 0 0 0 0 0 0 0 0 0 0 0 0 0 0 0 0 0 127 0" result="hardAlpha"/>
<feOffset dy="4"/>
<feGaussianBlur stdDeviation="6"/>
<feColorMatrix type="matrix" values="0 0 0 0 0.0901961 0 0 0 0 0.168627 0 0 0 0 0.301961 0 0 0 0.08 0"/>
<feBlend mode="normal" in2="BackgroundImageFix" result="effect1_dropShadow_415_62981"/>
<feColorMatrix in="SourceAlpha" type="matrix" values="0 0 0 0 0 0 0 0 0 0 0 0 0 0 0 0 0 0 127 0" result="hardAlpha"/>
<feOffset dy="4"/>
<feGaussianBlur stdDeviation="6"/>
<feColorMatrix type="matrix" values="0 0 0 0 0.0901961 0 0 0 0 0.168627 0 0 0 0 0.301961 0 0 0 0.05 0"/>
<feBlend mode="normal" in2="effect1_dropShadow_415_62981" result="effect2_dropShadow_415_62981"/>
<feColorMatrix in="SourceAlpha" type="matrix" values="0 0 0 0 0 0 0 0 0 0 0 0 0 0 0 0 0 0 127 0" result="hardAlpha"/>
<feOffset/>
<feGaussianBlur stdDeviation="6"/>
<feComposite in2="hardAlpha" operator="out"/>
<feColorMatrix type="matrix" values="0 0 0 0 0.0901961 0 0 0 0 0.168627 0 0 0 0 0.301961 0 0 0 0.01 0"/>
<feBlend mode="normal" in2="effect2_dropShadow_415_62981" result="effect3_dropShadow_415_62981"/>
<feBlend mode="normal" in="SourceGraphic" in2="effect3_dropShadow_415_62981" result="shape"/>
</filter>
<filter id="filter2_d_415_62981" x="137.41" y="0.671338" width="11.3301" height="175.551" filterUnits="userSpaceOnUse" color-interpolation-filters="sRGB">
<feFlood flood-opacity="0" result="BackgroundImageFix"/>
<feColorMatrix in="SourceAlpha" type="matrix" values="0 0 0 0 0 0 0 0 0 0 0 0 0 0 0 0 0 0 127 0" result="hardAlpha"/>
<feOffset dy="1.39325"/>
<feGaussianBlur stdDeviation="2.26403"/>
<feComposite in2="hardAlpha" operator="out"/>
<feColorMatrix type="matrix" values="0 0 0 0 0.572549 0 0 0 0 0.937255 0 0 0 0 0.901961 0 0 0 1 0"/>
<feBlend mode="normal" in2="BackgroundImageFix" result="effect1_dropShadow_415_62981"/>
<feBlend mode="normal" in="SourceGraphic" in2="effect1_dropShadow_415_62981" result="shape"/>
</filter>
<clipPath id="clip0_415_62981">
<path d="M12.2764 19.223C12.2764 18.6025 12.7794 18.0995 13.3998 18.0995H143.447V148.478H13.3998C12.7794 148.478 12.2764 147.975 12.2764 147.355V19.223Z" fill="white"/>
</clipPath>
<clipPath id="clip1_415_62981">
<rect width="442.294" height="231.257" fill="white" transform="translate(10.8149 18.1758)"/>
</clipPath>
<clipPath id="clip2_415_62981">
<rect width="442.294" height="231.257" fill="white" transform="translate(10.6772 18.3181)"/>
</clipPath>
<clipPath id="clip3_415_62981">
<rect width="3.79109" height="3.79109" fill="white" transform="translate(17.415 21.7945)"/>
</clipPath>
<clipPath id="clip4_415_62981">
<rect width="173.378" height="219.252" fill="white" transform="translate(11.9409 29.0594)"/>
</clipPath>
<clipPath id="clip5_415_62981">
<rect width="6.19015" height="229.993" fill="white" transform="translate(11.9409 29.0594)"/>
</clipPath>
<clipPath id="clip6_415_62981">
<rect width="10.3663" height="229.993" fill="white" transform="translate(18.1309 29.0594)"/>
</clipPath>
<clipPath id="clip7_415_62981">
<rect x="143.515" y="24.9645" width="127.482" height="135.986" rx="1.58355" fill="white"/>
</clipPath>
<clipPath id="clip8_415_62981">
<rect width="145.591" height="135.986" fill="white" transform="translate(143.515 24.9645)"/>
</clipPath>
<clipPath id="clip9_415_62981">
<rect width="141.876" height="135.986" fill="white" transform="translate(143.515 24.9645)"/>
</clipPath>
<clipPath id="clip10_415_62981">
<rect width="2.97238" height="2.97238" fill="white" transform="translate(257.785 45.631)"/>
</clipPath>
<clipPath id="clip11_415_62981">
<rect width="2.97238" height="2.97238" fill="white" transform="translate(257.785 56.0342)"/>
</clipPath>
</defs>
</svg>
