<svg width="38" height="39" viewBox="0 0 38 39" fill="none" xmlns="http://www.w3.org/2000/svg">
<rect x="0.00195312" y="0.492432" width="37.9649" height="38" rx="4" fill="#1A202C"/>
<g clip-path="url(#clip0_415_62976)">
<path fill-rule="evenodd" clip-rule="evenodd" d="M10.4791 22.4632C10.2663 22.8111 10.2696 23.2501 10.4876 23.5948L14.433 29.8338C14.6891 30.2387 15.1826 30.4234 15.6407 30.2856L27.0263 26.8616C27.6476 26.6747 27.9602 25.9799 27.6886 25.3893L20.3694 9.47352C20.0125 8.69734 18.9365 8.63363 18.4909 9.36229L10.4791 22.4632ZM20.2038 13.1074C20.048 12.7467 19.5206 12.8023 19.4432 13.1875L16.6217 27.247C16.5623 27.5434 16.8396 27.7966 17.1291 27.7101L25.0058 25.357C25.2358 25.2884 25.3542 25.0342 25.259 24.8138L20.2038 13.1074Z" fill="white"/>
</g>
<defs>
<clipPath id="clip0_415_62976">
<rect width="21.4958" height="21.4958" fill="white" transform="translate(8.30664 8.85181)"/>
</clipPath>
</defs>
</svg>
