<svg width="75" height="75" viewBox="0 0 75 75" fill="none" xmlns="http://www.w3.org/2000/svg">
<rect x="11.1992" y="0.457153" width="64" height="64" rx="6" transform="rotate(10 11.1992 0.457153)" fill="#1A202C"/>
<path d="M53.2505 17.5277H21.063C18.9056 17.5277 17.1567 19.2766 17.1567 21.434V53.6215C17.1567 55.7788 18.9056 57.5277 21.063 57.5277H53.2505C55.4079 57.5277 57.1567 55.7788 57.1567 53.6215V21.434C57.1567 19.2766 55.4079 17.5277 53.2505 17.5277Z" fill="#3178C6"/>
<path d="M53.2505 17.5277H21.063C18.9056 17.5277 17.1567 19.2766 17.1567 21.434V53.6215C17.1567 55.7788 18.9056 57.5277 21.063 57.5277H53.2505C55.4079 57.5277 57.1567 55.7788 57.1567 53.6215V21.434C57.1567 19.2766 55.4079 17.5277 53.2505 17.5277Z" fill="#3178C6"/>
<path fill-rule="evenodd" clip-rule="evenodd" d="M41.9176 49.3577V53.2687C42.5534 53.5947 43.3053 53.839 44.1735 54.002C45.0416 54.165 45.9565 54.2465 46.9184 54.2465C47.8558 54.2465 48.7463 54.1569 49.5899 53.9776C50.4336 53.7983 51.1734 53.5029 51.8092 53.0915C52.4449 52.6801 52.9483 52.1422 53.3192 51.4782C53.69 50.8141 53.8755 49.9933 53.8755 49.0155C53.8755 48.3066 53.7696 47.6854 53.5576 47.1517C53.3456 46.618 53.04 46.1434 52.6406 45.7279C52.2412 45.3123 51.7623 44.9395 51.2039 44.6095C50.6456 44.2795 50.0159 43.9679 49.3149 43.6746C48.8013 43.4627 48.3408 43.257 47.9332 43.0574C47.5256 42.8577 47.1792 42.654 46.8939 42.4463C46.6086 42.2385 46.3885 42.0185 46.2337 41.7863C46.0788 41.554 46.0013 41.2913 46.0013 40.9979C46.0013 40.7291 46.0706 40.4867 46.2092 40.2708C46.3478 40.0548 46.5435 39.8695 46.7961 39.7147C47.0488 39.5599 47.3585 39.4397 47.7253 39.3541C48.0922 39.2686 48.4997 39.2258 48.9481 39.2258C49.2741 39.2258 49.6185 39.2503 49.9812 39.2991C50.3439 39.348 50.7087 39.4234 51.0756 39.5252C51.4424 39.6271 51.7989 39.7554 52.1454 39.9102C52.4918 40.0651 52.8117 40.2443 53.1052 40.448V36.7936C52.5102 36.5655 51.8601 36.3965 51.155 36.2865C50.4499 36.1765 49.6409 36.1215 48.728 36.1215C47.7987 36.1215 46.9184 36.2213 46.087 36.4209C45.2556 36.6205 44.524 36.9322 43.8922 37.3558C43.2605 37.7796 42.7613 38.3194 42.3945 38.9753C42.0277 39.6311 41.8442 40.4154 41.8442 41.3279C41.8442 42.4931 42.1805 43.4872 42.853 44.3101C43.5254 45.133 44.5463 45.8297 45.9158 46.4001C46.4538 46.6201 46.9551 46.8359 47.4197 47.0478C47.8843 47.2597 48.2858 47.4797 48.624 47.7078C48.9623 47.9359 49.2292 48.1844 49.4249 48.4533C49.6206 48.7222 49.7184 49.0277 49.7184 49.37C49.7184 49.6226 49.6572 49.8568 49.5349 50.0727C49.4127 50.2886 49.2272 50.476 48.9786 50.6349C48.73 50.7938 48.4203 50.918 48.0494 51.0076C47.6785 51.0973 47.2445 51.1421 46.7472 51.1421C45.8995 51.1421 45.0599 50.9934 44.2285 50.696C43.3971 50.3986 42.6267 49.9526 41.9176 49.3577ZM35.3427 39.7216H40.3599V36.5121H26.3755V39.7216H31.3681V54.0121H35.3427V39.7216Z" fill="white"/>
</svg>
