<svg width="599" height="289" viewBox="0 0 599 289" fill="none" xmlns="http://www.w3.org/2000/svg">
<g opacity="0.5">
<rect x="42.2266" y="0.345703" width="547.176" height="261.935" rx="7.7466" transform="rotate(0.857824 42.2266 0.345703)" fill="#C3DAFE"/>
</g>
<g clip-path="url(#clip0_285_21450)" filter="url(#filter0_dddddd_285_21450)">
<path d="M26.6758 29.0121C26.6758 23.9588 31.4652 19.8623 37.3732 19.8623H561.546C567.454 19.8623 572.243 23.9588 572.243 29.0121V244.948C572.243 250 567.454 254.097 561.546 254.097H37.3732C31.4652 254.097 26.6758 250 26.6758 244.948V29.0121Z" fill="white"/>
<path d="M227.38 210.684H171.754C168.209 210.684 165.336 213.493 165.336 216.958V229.506C165.336 232.972 168.209 235.781 171.754 235.781H227.38C230.925 235.781 233.799 232.972 233.799 229.506V216.958C233.799 213.493 230.925 210.684 227.38 210.684Z" fill="#EBF4FF"/>
<path d="M150.36 210.684H62.6411C59.0964 210.684 56.2227 213.493 56.2227 216.958V229.506C56.2227 232.972 59.0964 235.781 62.6411 235.781H150.36C153.904 235.781 156.778 232.972 156.778 229.506V216.958C156.778 213.493 153.904 210.684 150.36 210.684Z" fill="#EBF4FF"/>
<path d="M409.238 210.684H248.777C245.232 210.684 242.359 213.493 242.359 216.958V229.506C242.359 232.972 245.232 235.781 248.777 235.781H409.238C412.784 235.781 415.658 232.972 415.658 229.506V216.958C415.658 213.493 412.784 210.684 409.238 210.684Z" fill="#EBF4FF"/>
<path d="M544.027 210.684H430.634C427.089 210.684 424.215 213.493 424.215 216.958V229.506C424.215 232.972 427.089 235.781 430.634 235.781H544.027C547.571 235.781 550.445 232.972 550.445 229.506V216.958C550.445 213.493 547.571 210.684 544.027 210.684Z" fill="#EBF4FF"/>
<path d="M227.38 177.222H171.754C168.209 177.222 165.336 180.031 165.336 183.495V196.044C165.336 199.509 168.209 202.318 171.754 202.318H227.38C230.925 202.318 233.799 199.509 233.799 196.044V183.495C233.799 180.031 230.925 177.222 227.38 177.222Z" fill="#EBF4FF"/>
<path d="M150.36 177.222H62.6411C59.0964 177.222 56.2227 180.031 56.2227 183.495V196.044C56.2227 199.509 59.0964 202.318 62.6411 202.318H150.36C153.904 202.318 156.778 199.509 156.778 196.044V183.495C156.778 180.031 153.904 177.222 150.36 177.222Z" fill="#EBF4FF"/>
<path d="M409.238 177.222H248.777C245.232 177.222 242.359 180.031 242.359 183.495V196.044C242.359 199.509 245.232 202.318 248.777 202.318H409.238C412.784 202.318 415.658 199.509 415.658 196.044V183.495C415.658 180.031 412.784 177.222 409.238 177.222Z" fill="#EBF4FF"/>
<path d="M544.027 177.222H430.634C427.089 177.222 424.215 180.031 424.215 183.495V196.044C424.215 199.509 427.089 202.318 430.634 202.318H544.027C547.571 202.318 550.445 199.509 550.445 196.044V183.495C550.445 180.031 547.571 177.222 544.027 177.222Z" fill="#EBF4FF"/>
<path d="M227.38 143.76H171.754C168.209 143.76 165.336 146.569 165.336 150.034V162.582C165.336 166.048 168.209 168.857 171.754 168.857H227.38C230.925 168.857 233.799 166.048 233.799 162.582V150.034C233.799 146.569 230.925 143.76 227.38 143.76Z" fill="#EBF4FF"/>
<path d="M150.36 143.76H62.6411C59.0964 143.76 56.2227 146.569 56.2227 150.034V162.582C56.2227 166.048 59.0964 168.857 62.6411 168.857H150.36C153.904 168.857 156.778 166.048 156.778 162.582V150.034C156.778 146.569 153.904 143.76 150.36 143.76Z" fill="#EBF4FF"/>
<path d="M409.238 143.76H248.777C245.232 143.76 242.359 146.569 242.359 150.034V162.582C242.359 166.048 245.232 168.857 248.777 168.857H409.238C412.784 168.857 415.658 166.048 415.658 162.582V150.034C415.658 146.569 412.784 143.76 409.238 143.76Z" fill="#EBF4FF"/>
<path d="M544.027 143.76H430.634C427.089 143.76 424.215 146.569 424.215 150.034V162.582C424.215 166.048 427.089 168.857 430.634 168.857H544.027C547.571 168.857 550.445 166.048 550.445 162.582V150.034C550.445 146.569 547.571 143.76 544.027 143.76Z" fill="#EBF4FF"/>
<path d="M227.38 110.298H171.754C168.209 110.298 165.336 113.107 165.336 116.572V129.121C165.336 132.585 168.209 135.394 171.754 135.394H227.38C230.925 135.394 233.799 132.585 233.799 129.121V116.572C233.799 113.107 230.925 110.298 227.38 110.298Z" fill="#EBF4FF"/>
<path d="M150.36 110.298H62.6411C59.0964 110.298 56.2227 113.107 56.2227 116.572V129.121C56.2227 132.585 59.0964 135.394 62.6411 135.394H150.36C153.904 135.394 156.778 132.585 156.778 129.121V116.572C156.778 113.107 153.904 110.298 150.36 110.298Z" fill="#EBF4FF"/>
<path d="M409.238 110.298H248.777C245.232 110.298 242.359 113.107 242.359 116.572V129.121C242.359 132.585 245.232 135.394 248.777 135.394H409.238C412.784 135.394 415.658 132.585 415.658 129.121V116.572C415.658 113.107 412.784 110.298 409.238 110.298Z" fill="#EBF4FF"/>
<path d="M544.027 110.298H430.634C427.089 110.298 424.215 113.107 424.215 116.572V129.121C424.215 132.585 427.089 135.394 430.634 135.394H544.027C547.571 135.394 550.445 132.585 550.445 129.121V116.572C550.445 113.107 547.571 110.298 544.027 110.298Z" fill="#EBF4FF"/>
<rect x="0.878906" y="96.041" width="312.946" height="103.783" rx="7.7466" fill="#4A5568"/>
<rect x="23.3711" y="113.471" width="141.113" height="30.5882" rx="7.7466" fill="#2D3748"/>
<path d="M37.1371 133.43C36.4438 133.43 35.8388 133.271 35.3221 132.953C34.8054 132.635 34.4042 132.191 34.1186 131.619C33.833 131.048 33.6902 130.381 33.6902 129.617C33.6902 128.85 33.833 128.179 34.1186 127.604C34.4042 127.03 34.8054 126.584 35.3221 126.266C35.8388 125.948 36.4438 125.79 37.1371 125.79C37.8303 125.79 38.4353 125.948 38.952 126.266C39.4687 126.584 39.8699 127.03 40.1555 127.604C40.4411 128.179 40.584 128.85 40.584 129.617C40.584 130.381 40.4411 131.048 40.1555 131.619C39.8699 132.191 39.4687 132.635 38.952 132.953C38.4353 133.271 37.8303 133.43 37.1371 133.43ZM37.1419 132.221C37.5912 132.221 37.9635 132.102 38.2587 131.865C38.554 131.627 38.7722 131.311 38.9135 130.917C39.0579 130.522 39.1301 130.087 39.1301 129.612C39.1301 129.14 39.0579 128.707 38.9135 128.312C38.7722 127.914 38.554 127.595 38.2587 127.354C37.9635 127.113 37.5912 126.993 37.1419 126.993C36.6893 126.993 36.3138 127.113 36.0154 127.354C35.7201 127.595 35.5003 127.914 35.3558 128.312C35.2146 128.707 35.144 129.14 35.144 129.612C35.144 130.087 35.2146 130.522 35.3558 130.917C35.5003 131.311 35.7201 131.627 36.0154 131.865C36.3138 132.102 36.6893 132.221 37.1419 132.221ZM42.1907 133.28V125.886H43.5819V127.06H43.659C43.7938 126.662 44.0313 126.35 44.3715 126.122C44.7149 125.891 45.1032 125.775 45.5365 125.775C45.6263 125.775 45.7323 125.778 45.8542 125.785C45.9794 125.791 46.0773 125.799 46.1479 125.809V127.186C46.0901 127.17 45.9874 127.152 45.8398 127.133C45.6921 127.11 45.5445 127.099 45.3969 127.099C45.0567 127.099 44.7534 127.171 44.487 127.316C44.2238 127.457 44.0152 127.654 43.8612 127.908C43.7071 128.158 43.6301 128.444 43.6301 128.765V133.28H42.1907ZM49.8969 133.425C49.2999 133.425 48.7671 133.272 48.2986 132.967C47.8332 132.659 47.4673 132.221 47.201 131.653C46.9378 131.082 46.8062 130.397 46.8062 129.597C46.8062 128.798 46.9394 128.115 47.2058 127.547C47.4754 126.979 47.8444 126.544 48.313 126.242C48.7816 125.94 49.3127 125.79 49.9065 125.79C50.3654 125.79 50.7345 125.867 51.0137 126.021C51.2962 126.171 51.5144 126.348 51.6685 126.55C51.8257 126.752 51.9477 126.93 52.0343 127.085H52.121V123.421H53.5604V133.28H52.1547V132.13H52.0343C51.9477 132.287 51.8225 132.467 51.6588 132.669C51.4984 132.871 51.2769 133.048 50.9945 133.198C50.7121 133.349 50.3462 133.425 49.8969 133.425ZM50.2146 132.197C50.6286 132.197 50.9784 132.088 51.2641 131.87C51.5529 131.648 51.7712 131.342 51.9188 130.95C52.0696 130.559 52.1451 130.103 52.1451 129.583C52.1451 129.07 52.0712 128.62 51.9236 128.235C51.776 127.85 51.5593 127.55 51.2737 127.335C50.9881 127.12 50.635 127.012 50.2146 127.012C49.7813 127.012 49.4203 127.125 49.1314 127.349C48.8426 127.574 48.6243 127.88 48.4767 128.269C48.3323 128.657 48.2601 129.095 48.2601 129.583C48.2601 130.077 48.3339 130.522 48.4815 130.917C48.6291 131.311 48.8474 131.624 49.1362 131.855C49.4283 132.083 49.7877 132.197 50.2146 132.197ZM58.8018 133.43C58.0732 133.43 57.4458 133.274 56.9194 132.963C56.3963 132.648 55.9919 132.207 55.7063 131.639C55.4239 131.067 55.2826 130.398 55.2826 129.631C55.2826 128.874 55.4239 128.206 55.7063 127.629C55.9919 127.051 56.3899 126.6 56.9002 126.276C57.4137 125.952 58.0139 125.79 58.7007 125.79C59.1179 125.79 59.5223 125.859 59.9138 125.997C60.3054 126.135 60.6568 126.351 60.9681 126.646C61.2794 126.942 61.5249 127.325 61.7047 127.797C61.8844 128.266 61.9743 128.835 61.9743 129.506V130.016H56.0962V128.938H60.5637C60.5637 128.559 60.4867 128.224 60.3327 127.932C60.1786 127.637 59.962 127.404 59.6827 127.234C59.4067 127.064 59.0826 126.979 58.7103 126.979C58.3059 126.979 57.9529 127.078 57.6512 127.277C57.3527 127.473 57.1216 127.73 56.958 128.047C56.7975 128.362 56.7173 128.704 56.7173 129.073V129.915C56.7173 130.409 56.8039 130.83 56.9772 131.177C57.1537 131.523 57.3993 131.788 57.7138 131.971C58.0283 132.151 58.3958 132.24 58.8162 132.24C59.089 132.24 59.3377 132.202 59.5624 132.125C59.7871 132.045 59.9812 131.926 60.1449 131.769C60.3086 131.611 60.4338 131.417 60.5204 131.186L61.8828 131.432C61.7737 131.833 61.5779 132.184 61.2955 132.486C61.0163 132.784 60.6648 133.017 60.2412 133.184C59.8208 133.348 59.3409 133.43 58.8018 133.43ZM63.5713 133.28V125.886H64.9626V127.06H65.0397C65.1744 126.662 65.4119 126.35 65.7521 126.122C66.0955 125.891 66.4839 125.775 66.9172 125.775C67.007 125.775 67.1129 125.778 67.2349 125.785C67.3601 125.791 67.4579 125.799 67.5285 125.809V127.186C67.4708 127.17 67.3681 127.152 67.2204 127.133C67.0728 127.11 66.9252 127.099 66.7775 127.099C66.4373 127.099 66.1341 127.171 65.8677 127.316C65.6045 127.457 65.3959 127.654 65.2418 127.908C65.0878 128.158 65.0108 128.444 65.0108 128.765V133.28H63.5713ZM74.0553 133.28V134.503H67.7921V133.28H74.0553ZM78.4614 125.886V127.041H74.4224V125.886H78.4614ZM75.5055 124.114H76.945V131.109C76.945 131.388 76.9867 131.599 77.0701 131.74C77.1536 131.878 77.2611 131.972 77.3927 132.024C77.5275 132.072 77.6735 132.096 77.8307 132.096C77.9463 132.096 78.0474 132.088 78.134 132.072C78.2207 132.056 78.2881 132.043 78.3362 132.033L78.5962 133.223C78.5127 133.255 78.394 133.287 78.2399 133.319C78.0859 133.354 77.8933 133.373 77.6623 133.377C77.2835 133.383 76.9305 133.316 76.6031 133.174C76.2758 133.033 76.011 132.815 75.8088 132.52C75.6066 132.224 75.5055 131.854 75.5055 131.408V124.114ZM83.089 133.43C82.3957 133.43 81.7908 133.271 81.274 132.953C80.7573 132.635 80.3562 132.191 80.0705 131.619C79.7849 131.048 79.6421 130.381 79.6421 129.617C79.6421 128.85 79.7849 128.179 80.0705 127.604C80.3562 127.03 80.7573 126.584 81.274 126.266C81.7908 125.948 82.3957 125.79 83.089 125.79C83.7822 125.79 84.3872 125.948 84.9039 126.266C85.4206 126.584 85.8218 127.03 86.1074 127.604C86.393 128.179 86.5359 128.85 86.5359 129.617C86.5359 130.381 86.393 131.048 86.1074 131.619C85.8218 132.191 85.4206 132.635 84.9039 132.953C84.3872 133.271 83.7822 133.43 83.089 133.43ZM83.0938 132.221C83.5431 132.221 83.9154 132.102 84.2107 131.865C84.5059 131.627 84.7242 131.311 84.8654 130.917C85.0098 130.522 85.082 130.087 85.082 129.612C85.082 129.14 85.0098 128.707 84.8654 128.312C84.7242 127.914 84.5059 127.595 84.2107 127.354C83.9154 127.113 83.5431 126.993 83.0938 126.993C82.6413 126.993 82.2658 127.113 81.9673 127.354C81.672 127.595 81.4522 127.914 81.3077 128.312C81.1665 128.707 81.0959 129.14 81.0959 129.612C81.0959 130.087 81.1665 130.522 81.3077 130.917C81.4522 131.311 81.672 131.627 81.9673 131.865C82.2658 132.102 82.6413 132.221 83.0938 132.221ZM91.5943 125.886V127.041H87.5553V125.886H91.5943ZM88.6384 124.114H90.0779V131.109C90.0779 131.388 90.1196 131.599 90.203 131.74C90.2865 131.878 90.394 131.972 90.5256 132.024C90.6604 132.072 90.8064 132.096 90.9636 132.096C91.0792 132.096 91.1803 132.088 91.2669 132.072C91.3536 132.056 91.421 132.043 91.4691 132.033L91.7291 133.223C91.6456 133.255 91.5269 133.287 91.3728 133.319C91.2188 133.354 91.0262 133.373 90.7952 133.377C90.4164 133.383 90.0634 133.316 89.736 133.174C89.4087 133.033 89.1439 132.815 88.9417 132.52C88.7395 132.224 88.6384 131.854 88.6384 131.408V124.114ZM95.3385 133.444C94.8699 133.444 94.4463 133.357 94.0675 133.184C93.6888 133.007 93.3888 132.752 93.1673 132.419C92.9491 132.085 92.8399 131.676 92.8399 131.191C92.8399 130.774 92.9202 130.43 93.0807 130.161C93.2411 129.891 93.4578 129.678 93.7306 129.52C94.0034 129.363 94.3083 129.244 94.6452 129.164C94.9822 129.084 95.3256 129.023 95.6755 128.981C96.1184 128.93 96.4778 128.888 96.7538 128.856C97.0298 128.821 97.2304 128.765 97.3556 128.688C97.4808 128.611 97.5433 128.485 97.5433 128.312V128.278C97.5433 127.858 97.4246 127.532 97.1871 127.301C96.9528 127.07 96.603 126.955 96.1376 126.955C95.653 126.955 95.2711 127.062 94.9919 127.277C94.7158 127.489 94.5249 127.725 94.419 127.985L93.0662 127.677C93.2267 127.227 93.461 126.865 93.7691 126.589C94.0804 126.309 94.4382 126.107 94.8426 125.982C95.247 125.854 95.6723 125.79 96.1184 125.79C96.4136 125.79 96.7265 125.825 97.0571 125.895C97.3909 125.963 97.7022 126.088 97.9911 126.271C98.2831 126.454 98.5222 126.715 98.7084 127.056C98.8945 127.393 98.9876 127.831 98.9876 128.37V133.28H97.5819V132.269H97.5241C97.431 132.455 97.2914 132.638 97.1053 132.818C96.9191 132.998 96.68 133.147 96.388 133.266C96.0959 133.385 95.7461 133.444 95.3385 133.444ZM95.6514 132.289C96.0494 132.289 96.3896 132.21 96.672 132.053C96.9576 131.895 97.1743 131.69 97.3219 131.436C97.4727 131.18 97.5482 130.905 97.5482 130.613V129.66C97.4968 129.711 97.3973 129.76 97.2497 129.804C97.1053 129.846 96.94 129.883 96.7538 129.915C96.5677 129.944 96.3863 129.971 96.2098 129.997C96.0333 130.02 95.8857 130.039 95.7669 130.055C95.4877 130.09 95.2326 130.149 95.0015 130.233C94.7736 130.316 94.5907 130.437 94.4527 130.594C94.3179 130.748 94.2505 130.953 94.2505 131.21C94.2505 131.566 94.3821 131.836 94.6452 132.019C94.9084 132.199 95.2438 132.289 95.6514 132.289ZM102.344 123.421V133.28H100.905V123.421H102.344ZM110.025 133.28V134.503H103.762V133.28H110.025ZM116.521 127.691L115.216 127.922C115.161 127.755 115.075 127.596 114.956 127.446C114.84 127.295 114.683 127.171 114.484 127.075C114.285 126.979 114.036 126.93 113.738 126.93C113.33 126.93 112.99 127.022 112.717 127.205C112.445 127.385 112.308 127.617 112.308 127.903C112.308 128.15 112.4 128.349 112.583 128.5C112.766 128.651 113.061 128.774 113.468 128.871L114.643 129.14C115.323 129.297 115.831 129.54 116.164 129.867C116.498 130.194 116.665 130.62 116.665 131.143C116.665 131.586 116.537 131.98 116.28 132.327C116.026 132.67 115.672 132.94 115.216 133.136C114.763 133.332 114.239 133.43 113.642 133.43C112.814 133.43 112.138 133.253 111.615 132.9C111.092 132.544 110.771 132.038 110.652 131.384L112.043 131.172C112.13 131.534 112.308 131.809 112.578 131.995C112.847 132.178 113.199 132.269 113.632 132.269C114.104 132.269 114.481 132.171 114.763 131.976C115.046 131.777 115.187 131.534 115.187 131.249C115.187 131.018 115.1 130.823 114.927 130.666C114.757 130.509 114.495 130.39 114.142 130.31L112.891 130.036C112.201 129.878 111.69 129.628 111.36 129.285C111.032 128.941 110.869 128.506 110.869 127.98C110.869 127.543 110.991 127.162 111.235 126.834C111.479 126.507 111.816 126.252 112.246 126.069C112.676 125.883 113.168 125.79 113.724 125.79C114.523 125.79 115.152 125.963 115.611 126.309C116.07 126.653 116.373 127.113 116.521 127.691ZM118.248 133.28V125.886H119.687V133.28H118.248ZM118.975 124.745C118.724 124.745 118.509 124.661 118.329 124.495C118.153 124.324 118.065 124.122 118.065 123.888C118.065 123.65 118.153 123.448 118.329 123.281C118.509 123.111 118.724 123.026 118.975 123.026C119.225 123.026 119.438 123.111 119.615 123.281C119.795 123.448 119.884 123.65 119.884 123.888C119.884 124.122 119.795 124.324 119.615 124.495C119.438 124.661 119.225 124.745 118.975 124.745ZM121.469 133.28V132.293L125.475 127.205V127.137H121.599V125.886H127.27V126.935L123.419 131.961V132.029H127.405V133.28H121.469ZM132.079 133.43C131.35 133.43 130.723 133.274 130.196 132.963C129.673 132.648 129.269 132.207 128.983 131.639C128.701 131.067 128.559 130.398 128.559 129.631C128.559 128.874 128.701 128.206 128.983 127.629C129.269 127.051 129.667 126.6 130.177 126.276C130.691 125.952 131.291 125.79 131.977 125.79C132.395 125.79 132.799 125.859 133.191 125.997C133.582 126.135 133.934 126.351 134.245 126.646C134.556 126.942 134.802 127.325 134.981 127.797C135.161 128.266 135.251 128.835 135.251 129.506V130.016H129.373V128.938H133.841C133.841 128.559 133.764 128.224 133.609 127.932C133.455 127.637 133.239 127.404 132.96 127.234C132.684 127.064 132.359 126.979 131.987 126.979C131.583 126.979 131.23 127.078 130.928 127.277C130.63 127.473 130.398 127.73 130.235 128.047C130.074 128.362 129.994 128.704 129.994 129.073V129.915C129.994 130.409 130.081 130.83 130.254 131.177C130.431 131.523 130.676 131.788 130.991 131.971C131.305 132.151 131.673 132.24 132.093 132.24C132.366 132.24 132.615 132.202 132.839 132.125C133.064 132.045 133.258 131.926 133.422 131.769C133.585 131.611 133.711 131.417 133.797 131.186L135.16 131.432C135.05 131.833 134.855 132.184 134.572 132.486C134.293 132.784 133.942 133.017 133.518 133.184C133.098 133.348 132.618 133.43 132.079 133.43Z" fill="#CBD5E0"/>
<path d="M153.333 127.19L149.308 130.977C149.176 131.109 149.017 131.162 148.884 131.162C148.726 131.162 148.567 131.109 148.434 131.003L144.41 127.19C144.145 126.952 144.145 126.555 144.383 126.29C144.622 126.025 145.019 126.025 145.284 126.264L148.884 129.653L152.459 126.264C152.724 126.025 153.121 126.025 153.359 126.29C153.598 126.555 153.598 126.952 153.333 127.19Z" fill="#718096"/>
<rect x="174.168" y="113.471" width="60.1131" height="30.5882" rx="7.7466" fill="#2D3748"/>
<path d="M187.919 136.207C187.332 136.207 186.827 136.13 186.403 135.976C185.983 135.822 185.639 135.618 185.373 135.365C185.106 135.111 184.907 134.834 184.776 134.532L186.013 134.022C186.1 134.163 186.215 134.312 186.36 134.469C186.507 134.63 186.706 134.766 186.957 134.879C187.21 134.991 187.536 135.047 187.934 135.047C188.48 135.047 188.93 134.914 189.287 134.647C189.643 134.384 189.821 133.964 189.821 133.386V131.932H189.73C189.643 132.09 189.518 132.264 189.354 132.457C189.194 132.65 188.972 132.817 188.69 132.958C188.407 133.099 188.04 133.17 187.587 133.17C187.003 133.17 186.477 133.033 186.008 132.76C185.543 132.484 185.174 132.078 184.901 131.542C184.631 131.003 184.497 130.34 184.497 129.554C184.497 128.768 184.63 128.094 184.896 127.532C185.166 126.971 185.535 126.541 186.003 126.242C186.472 125.94 187.003 125.79 187.597 125.79C188.056 125.79 188.427 125.867 188.709 126.021C188.991 126.171 189.211 126.348 189.369 126.55C189.529 126.752 189.653 126.93 189.739 127.085H189.845V125.886H191.256V133.444C191.256 134.079 191.108 134.601 190.813 135.009C190.518 135.416 190.118 135.718 189.614 135.914C189.113 136.109 188.549 136.207 187.919 136.207ZM187.905 131.976C188.319 131.976 188.669 131.879 188.955 131.687C189.243 131.491 189.462 131.212 189.609 130.849C189.76 130.483 189.836 130.045 189.836 129.535C189.836 129.037 189.762 128.599 189.614 128.221C189.466 127.842 189.25 127.547 188.964 127.335C188.679 127.12 188.325 127.012 187.905 127.012C187.472 127.012 187.111 127.125 186.822 127.349C186.533 127.571 186.315 127.872 186.167 128.254C186.023 128.636 185.951 129.063 185.951 129.535C185.951 130.02 186.024 130.445 186.172 130.811C186.32 131.177 186.538 131.462 186.827 131.668C187.119 131.873 187.478 131.976 187.905 131.976ZM196.638 125.886V127.041H192.599V125.886H196.638ZM193.682 124.114H195.121V131.109C195.121 131.388 195.163 131.599 195.247 131.74C195.33 131.878 195.438 131.972 195.569 132.024C195.704 132.072 195.85 132.096 196.007 132.096C196.123 132.096 196.224 132.088 196.31 132.072C196.397 132.056 196.465 132.043 196.513 132.033L196.773 133.223C196.689 133.255 196.57 133.287 196.416 133.319C196.262 133.354 196.07 133.373 195.839 133.377C195.46 133.383 195.107 133.316 194.78 133.174C194.452 133.033 194.187 132.815 193.985 132.52C193.783 132.224 193.682 131.854 193.682 131.408V124.114ZM201.338 133.43C200.609 133.43 199.982 133.274 199.455 132.963C198.932 132.648 198.528 132.207 198.242 131.639C197.96 131.067 197.819 130.398 197.819 129.631C197.819 128.874 197.96 128.206 198.242 127.629C198.528 127.051 198.926 126.6 199.436 126.276C199.95 125.952 200.55 125.79 201.237 125.79C201.654 125.79 202.058 125.859 202.45 125.997C202.841 126.135 203.193 126.351 203.504 126.646C203.815 126.942 204.061 127.325 204.241 127.797C204.42 128.266 204.51 128.835 204.51 129.506V130.016H198.632V128.938H203.1C203.1 128.559 203.023 128.224 202.869 127.932C202.714 127.637 202.498 127.404 202.219 127.234C201.943 127.064 201.618 126.979 201.246 126.979C200.842 126.979 200.489 127.078 200.187 127.277C199.889 127.473 199.657 127.73 199.494 128.047C199.333 128.362 199.253 128.704 199.253 129.073V129.915C199.253 130.409 199.34 130.83 199.513 131.177C199.69 131.523 199.935 131.788 200.25 131.971C200.564 132.151 200.932 132.24 201.352 132.24C201.625 132.24 201.874 132.202 202.098 132.125C202.323 132.045 202.517 131.926 202.681 131.769C202.844 131.611 202.97 131.417 203.056 131.186L204.419 131.432C204.31 131.833 204.114 132.184 203.831 132.486C203.552 132.784 203.201 133.017 202.777 133.184C202.357 133.348 201.877 133.43 201.338 133.43Z" fill="#CBD5E0"/>
<path d="M223.13 127.19L219.105 130.977C218.973 131.109 218.814 131.162 218.681 131.162C218.522 131.162 218.364 131.109 218.231 131.003L214.207 127.19C213.942 126.952 213.942 126.555 214.18 126.29C214.418 126.025 214.816 126.025 215.08 126.264L218.681 129.653L222.256 126.264C222.521 126.025 222.918 126.025 223.156 126.29C223.394 126.555 223.394 126.952 223.13 127.19Z" fill="#718096"/>
<rect x="243.965" y="113.471" width="54.3665" height="30.5882" rx="7.7466" fill="#2D3748"/>
<path d="M258.737 123.421V133.28H256.652V125.4H256.595L254.337 126.815V124.966L256.778 123.421H258.737ZM264.946 133.497C264.118 133.494 263.405 133.29 262.808 132.886C262.215 132.481 261.757 131.895 261.436 131.128C261.119 130.361 260.961 129.439 260.965 128.36C260.965 127.285 261.124 126.369 261.441 125.611C261.762 124.854 262.22 124.278 262.813 123.883C263.41 123.485 264.121 123.286 264.946 123.286C265.771 123.286 266.48 123.485 267.074 123.883C267.671 124.281 268.13 124.859 268.451 125.616C268.772 126.37 268.93 127.285 268.927 128.36C268.927 129.442 268.767 130.366 268.446 131.133C268.128 131.9 267.672 132.486 267.079 132.89C266.485 133.295 265.774 133.497 264.946 133.497ZM264.946 131.769C265.511 131.769 265.962 131.485 266.299 130.917C266.636 130.348 266.803 129.496 266.799 128.36C266.799 127.612 266.722 126.99 266.568 126.492C266.417 125.995 266.202 125.621 265.923 125.371C265.647 125.12 265.321 124.995 264.946 124.995C264.384 124.995 263.935 125.276 263.598 125.838C263.261 126.399 263.091 127.24 263.088 128.36C263.088 129.118 263.163 129.75 263.314 130.257C263.468 130.761 263.685 131.14 263.964 131.393C264.243 131.643 264.57 131.769 264.946 131.769ZM274.279 133.497C273.451 133.494 272.739 133.29 272.142 132.886C271.548 132.481 271.091 131.895 270.77 131.128C270.452 130.361 270.295 129.439 270.298 128.36C270.298 127.285 270.457 126.369 270.775 125.611C271.096 124.854 271.553 124.278 272.147 123.883C272.744 123.485 273.454 123.286 274.279 123.286C275.104 123.286 275.813 123.485 276.407 123.883C277.004 124.281 277.463 124.859 277.784 125.616C278.105 126.37 278.264 127.285 278.261 128.36C278.261 129.442 278.1 130.366 277.779 131.133C277.461 131.9 277.006 132.486 276.412 132.89C275.818 133.295 275.107 133.497 274.279 133.497ZM274.279 131.769C274.844 131.769 275.295 131.485 275.632 130.917C275.969 130.348 276.136 129.496 276.133 128.36C276.133 127.612 276.056 126.99 275.902 126.492C275.751 125.995 275.536 125.621 275.257 125.371C274.981 125.12 274.655 124.995 274.279 124.995C273.718 124.995 273.268 125.276 272.931 125.838C272.594 126.399 272.424 127.24 272.421 128.36C272.421 129.118 272.496 129.75 272.647 130.257C272.801 130.761 273.018 131.14 273.297 131.393C273.576 131.643 273.904 131.769 274.279 131.769ZM283.613 133.497C282.785 133.494 282.072 133.29 281.475 132.886C280.881 132.481 280.424 131.895 280.103 131.128C279.785 130.361 279.628 129.439 279.631 128.36C279.631 127.285 279.79 126.369 280.108 125.611C280.429 124.854 280.886 124.278 281.48 123.883C282.077 123.485 282.788 123.286 283.613 123.286C284.437 123.286 285.147 123.485 285.741 123.883C286.337 124.281 286.796 124.859 287.117 125.616C287.438 126.37 287.597 127.285 287.594 128.36C287.594 129.442 287.433 130.366 287.113 131.133C286.795 131.9 286.339 132.486 285.745 132.89C285.152 133.295 284.441 133.497 283.613 133.497ZM283.613 131.769C284.178 131.769 284.628 131.485 284.965 130.917C285.302 130.348 285.469 129.496 285.466 128.36C285.466 127.612 285.389 126.99 285.235 126.492C285.084 125.995 284.869 125.621 284.59 125.371C284.314 125.12 283.988 124.995 283.613 124.995C283.051 124.995 282.602 125.276 282.265 125.838C281.928 126.399 281.758 127.24 281.754 128.36C281.754 129.118 281.83 129.75 281.981 130.257C282.135 130.761 282.351 131.14 282.631 131.393C282.91 131.643 283.237 131.769 283.613 131.769Z" fill="#EDF2F7"/>
<rect x="16.3711" y="151.806" width="108.113" height="30.5882" rx="7.7466" fill="#2D3748"/>
<path d="M30.1371 171.764C29.4214 171.764 28.8052 171.602 28.2884 171.278C27.7749 170.951 27.3802 170.5 27.1042 169.925C26.8282 169.351 26.6902 168.693 26.6902 167.952C26.6902 167.201 26.8314 166.538 27.1138 165.963C27.3962 165.386 27.7942 164.935 28.3077 164.611C28.8212 164.287 29.4262 164.124 30.1226 164.124C30.6843 164.124 31.1849 164.229 31.6246 164.437C32.0643 164.643 32.4189 164.932 32.6885 165.304C32.9613 165.676 33.1234 166.111 33.1748 166.609H31.7739C31.6968 166.262 31.5203 165.963 31.2443 165.713C30.9715 165.463 30.6056 165.338 30.1467 165.338C29.7455 165.338 29.3941 165.444 29.0924 165.655C28.7939 165.864 28.5612 166.162 28.3943 166.551C28.2275 166.936 28.144 167.392 28.144 167.918C28.144 168.457 28.2259 168.923 28.3895 169.314C28.5532 169.706 28.7843 170.009 29.0828 170.224C29.3844 170.439 29.7391 170.547 30.1467 170.547C30.4195 170.547 30.6666 170.497 30.8881 170.397C31.1127 170.295 31.3005 170.149 31.4513 169.959C31.6054 169.77 31.7129 169.542 31.7739 169.276H33.1748C33.1234 169.754 32.9678 170.181 32.7078 170.556C32.4478 170.932 32.0996 171.227 31.6631 171.442C31.2299 171.657 30.7212 171.764 30.1371 171.764ZM34.7141 171.615V164.221H36.1054V165.395H36.1824C36.3172 164.997 36.5547 164.685 36.8949 164.457C37.2383 164.226 37.6266 164.11 38.0599 164.11C38.1497 164.11 38.2557 164.113 38.3776 164.12C38.5028 164.126 38.6007 164.134 38.6713 164.144V165.521C38.6135 165.505 38.5108 165.487 38.3632 165.468C38.2155 165.445 38.0679 165.434 37.9203 165.434C37.5801 165.434 37.2768 165.506 37.0104 165.651C36.7472 165.792 36.5386 165.989 36.3846 166.243C36.2305 166.493 36.1535 166.779 36.1535 167.1V171.615H34.7141ZM42.8391 171.764C42.1106 171.764 41.4831 171.609 40.9568 171.298C40.4336 170.983 40.0293 170.542 39.7436 169.974C39.4612 169.402 39.32 168.733 39.32 167.966C39.32 167.209 39.4612 166.541 39.7436 165.963C40.0293 165.386 40.4272 164.935 40.9375 164.611C41.451 164.287 42.0512 164.124 42.738 164.124C43.1552 164.124 43.5596 164.193 43.9512 164.331C44.3427 164.469 44.6941 164.686 45.0054 164.981C45.3168 165.277 45.5623 165.66 45.742 166.132C45.9217 166.601 46.0116 167.17 46.0116 167.841V168.351H40.1336V167.273H44.6011C44.6011 166.894 44.524 166.559 44.37 166.267C44.2159 165.971 43.9993 165.739 43.7201 165.569C43.4441 165.399 43.1199 165.314 42.7476 165.314C42.3432 165.314 41.9902 165.413 41.6885 165.612C41.39 165.808 41.159 166.065 40.9953 166.382C40.8348 166.697 40.7546 167.039 40.7546 167.408V168.25C40.7546 168.744 40.8412 169.165 41.0145 169.511C41.1911 169.858 41.4366 170.123 41.7511 170.306C42.0656 170.486 42.4331 170.575 42.8535 170.575C43.1263 170.575 43.3751 170.537 43.5997 170.46C43.8244 170.38 44.0185 170.261 44.1822 170.104C44.3459 169.946 44.4711 169.752 44.5577 169.521L45.9201 169.767C45.811 170.168 45.6152 170.519 45.3328 170.821C45.0536 171.119 44.7022 171.352 44.2785 171.519C43.8581 171.683 43.3783 171.764 42.8391 171.764ZM49.7606 171.779C49.292 171.779 48.8684 171.692 48.4897 171.519C48.1109 171.342 47.8109 171.087 47.5894 170.754C47.3712 170.42 47.2621 170.011 47.2621 169.526C47.2621 169.109 47.3423 168.765 47.5028 168.496C47.6632 168.226 47.8799 168.013 48.1527 167.855C48.4255 167.698 48.7304 167.579 49.0673 167.499C49.4043 167.419 49.7477 167.358 50.0976 167.316C50.5405 167.265 50.8999 167.223 51.1759 167.191C51.4519 167.156 51.6525 167.1 51.7777 167.023C51.9029 166.946 51.9654 166.82 51.9654 166.647V166.613C51.9654 166.193 51.8467 165.867 51.6092 165.636C51.3749 165.405 51.0251 165.289 50.5597 165.289C50.0751 165.289 49.6932 165.397 49.414 165.612C49.138 165.824 48.947 166.06 48.8411 166.32L47.4883 166.012C47.6488 165.562 47.8831 165.2 48.1912 164.924C48.5025 164.644 48.8603 164.442 49.2647 164.317C49.6691 164.189 50.0944 164.124 50.5405 164.124C50.8357 164.124 51.1487 164.16 51.4792 164.23C51.813 164.298 52.1243 164.423 52.4132 164.606C52.7052 164.789 52.9443 165.05 53.1305 165.391C53.3166 165.728 53.4097 166.166 53.4097 166.705V171.615H52.004V170.604H51.9462C51.8531 170.79 51.7135 170.973 51.5274 171.153C51.3412 171.333 51.1021 171.482 50.8101 171.601C50.518 171.72 50.1682 171.779 49.7606 171.779ZM50.0735 170.624C50.4715 170.624 50.8117 170.545 51.0941 170.388C51.3797 170.23 51.5964 170.025 51.744 169.771C51.8948 169.515 51.9703 169.24 51.9703 168.948V167.995C51.9189 168.046 51.8194 168.095 51.6718 168.139C51.5274 168.181 51.3621 168.218 51.1759 168.25C50.9898 168.279 50.8085 168.306 50.6319 168.332C50.4554 168.354 50.3078 168.374 50.189 168.39C49.9098 168.425 49.6547 168.484 49.4236 168.568C49.1957 168.651 49.0128 168.772 48.8748 168.929C48.74 169.083 48.6726 169.288 48.6726 169.545C48.6726 169.901 48.8042 170.171 49.0673 170.354C49.3305 170.534 49.6659 170.624 50.0735 170.624ZM58.7786 164.221V165.376H54.7396V164.221H58.7786ZM55.8228 162.449H57.2622V169.444C57.2622 169.723 57.3039 169.934 57.3873 170.075C57.4708 170.213 57.5783 170.307 57.7099 170.359C57.8447 170.407 57.9907 170.431 58.148 170.431C58.2635 170.431 58.3646 170.423 58.4513 170.407C58.5379 170.391 58.6053 170.378 58.6535 170.368L58.9134 171.557C58.83 171.59 58.7112 171.622 58.5572 171.654C58.4031 171.689 58.2106 171.708 57.9795 171.712C57.6008 171.718 57.2477 171.651 56.9204 171.509C56.593 171.368 56.3282 171.15 56.126 170.855C55.9239 170.559 55.8228 170.189 55.8228 169.743V162.449ZM63.4784 171.764C62.7499 171.764 62.1224 171.609 61.5961 171.298C61.0729 170.983 60.6686 170.542 60.3829 169.974C60.1005 169.402 59.9593 168.733 59.9593 167.966C59.9593 167.209 60.1005 166.541 60.3829 165.963C60.6686 165.386 61.0665 164.935 61.5768 164.611C62.0903 164.287 62.6905 164.124 63.3773 164.124C63.7945 164.124 64.1989 164.193 64.5905 164.331C64.982 164.469 65.3334 164.686 65.6447 164.981C65.9561 165.277 66.2016 165.66 66.3813 166.132C66.561 166.601 66.6509 167.17 66.6509 167.841V168.351H60.7729V167.273H65.2404C65.2404 166.894 65.1633 166.559 65.0093 166.267C64.8552 165.971 64.6386 165.739 64.3594 165.569C64.0834 165.399 63.7592 165.314 63.3869 165.314C62.9825 165.314 62.6295 165.413 62.3278 165.612C62.0293 165.808 61.7983 166.065 61.6346 166.382C61.4741 166.697 61.3939 167.039 61.3939 167.408V168.25C61.3939 168.744 61.4805 169.165 61.6538 169.511C61.8304 169.858 62.0759 170.123 62.3904 170.306C62.7049 170.486 63.0724 170.575 63.4928 170.575C63.7656 170.575 64.0144 170.537 64.239 170.46C64.4637 170.38 64.6579 170.261 64.8215 170.104C64.9852 169.946 65.1104 169.752 65.197 169.521L66.5594 169.767C66.4503 170.168 66.2545 170.519 65.9721 170.821C65.6929 171.119 65.3415 171.352 64.9178 171.519C64.4974 171.683 64.0176 171.764 63.4784 171.764ZM71.0161 171.76C70.4191 171.76 69.8864 171.607 69.4178 171.302C68.9524 170.994 68.5866 170.556 68.3202 169.988C68.057 169.417 67.9254 168.732 67.9254 167.932C67.9254 167.133 68.0586 166.45 68.325 165.882C68.5946 165.314 68.9637 164.879 69.4323 164.577C69.9008 164.275 70.432 164.124 71.0257 164.124C71.4847 164.124 71.8537 164.202 72.133 164.356C72.4154 164.506 72.6336 164.683 72.7877 164.885C72.9449 165.087 73.0669 165.265 73.1536 165.419H73.2402V161.756H74.6796V171.615H73.2739V170.465H73.1536C73.0669 170.622 72.9417 170.802 72.7781 171.004C72.6176 171.206 72.3961 171.383 72.1137 171.533C71.8313 171.684 71.4654 171.76 71.0161 171.76ZM71.3338 170.532C71.7478 170.532 72.0977 170.423 72.3833 170.205C72.6721 169.983 72.8904 169.677 73.038 169.285C73.1889 168.894 73.2643 168.438 73.2643 167.918C73.2643 167.404 73.1905 166.955 73.0428 166.57C72.8952 166.185 72.6786 165.885 72.3929 165.67C72.1073 165.455 71.7543 165.347 71.3338 165.347C70.9006 165.347 70.5395 165.46 70.2506 165.684C69.9618 165.909 69.7436 166.215 69.5959 166.604C69.4515 166.992 69.3793 167.43 69.3793 167.918C69.3793 168.412 69.4531 168.857 69.6007 169.252C69.7484 169.646 69.9666 169.959 70.2555 170.19C70.5475 170.418 70.907 170.532 71.3338 170.532ZM82.4785 171.615V172.838H76.2153V171.615H82.4785ZM85.5848 171.779C85.1162 171.779 84.6926 171.692 84.3139 171.519C83.9352 171.342 83.6351 171.087 83.4136 170.754C83.1954 170.42 83.0863 170.011 83.0863 169.526C83.0863 169.109 83.1665 168.765 83.327 168.496C83.4875 168.226 83.7041 168.013 83.9769 167.855C84.2497 167.698 84.5546 167.579 84.8916 167.499C85.2286 167.419 85.572 167.358 85.9218 167.316C86.3647 167.265 86.7241 167.223 87.0002 167.191C87.2762 167.156 87.4767 167.1 87.6019 167.023C87.7271 166.946 87.7897 166.82 87.7897 166.647V166.613C87.7897 166.193 87.6709 165.867 87.4334 165.636C87.1991 165.405 86.8493 165.289 86.3839 165.289C85.8993 165.289 85.5174 165.397 85.2382 165.612C84.9622 165.824 84.7712 166.06 84.6653 166.32L83.3125 166.012C83.473 165.562 83.7073 165.2 84.0154 164.924C84.3267 164.644 84.6846 164.442 85.0889 164.317C85.4933 164.189 85.9186 164.124 86.3647 164.124C86.66 164.124 86.9729 164.16 87.3034 164.23C87.6372 164.298 87.9485 164.423 88.2374 164.606C88.5294 164.789 88.7685 165.05 88.9547 165.391C89.1408 165.728 89.2339 166.166 89.2339 166.705V171.615H87.8282V170.604H87.7704C87.6773 170.79 87.5377 170.973 87.3516 171.153C87.1654 171.333 86.9263 171.482 86.6343 171.601C86.3422 171.72 85.9924 171.779 85.5848 171.779ZM85.8977 170.624C86.2957 170.624 86.6359 170.545 86.9183 170.388C87.2039 170.23 87.4206 170.025 87.5682 169.771C87.7191 169.515 87.7945 169.24 87.7945 168.948V167.995C87.7431 168.046 87.6436 168.095 87.496 168.139C87.3516 168.181 87.1863 168.218 87.0002 168.25C86.814 168.279 86.6327 168.306 86.4562 168.332C86.2796 168.354 86.132 168.374 86.0133 168.39C85.734 168.425 85.4789 168.484 85.2478 168.568C85.0199 168.651 84.837 168.772 84.699 168.929C84.5642 169.083 84.4968 169.288 84.4968 169.545C84.4968 169.901 84.6284 170.171 84.8916 170.354C85.1547 170.534 85.4901 170.624 85.8977 170.624ZM94.6028 164.221V165.376H90.5638V164.221H94.6028ZM91.647 162.449H93.0864V169.444C93.0864 169.723 93.1281 169.934 93.2116 170.075C93.295 170.213 93.4025 170.307 93.5341 170.359C93.6689 170.407 93.8149 170.431 93.9722 170.431C94.0877 170.431 94.1888 170.423 94.2755 170.407C94.3621 170.391 94.4295 170.378 94.4777 170.368L94.7376 171.557C94.6542 171.59 94.5354 171.622 94.3814 171.654C94.2273 171.689 94.0348 171.708 93.8037 171.712C93.425 171.718 93.072 171.651 92.7446 171.509C92.4172 171.368 92.1525 171.15 91.9503 170.855C91.7481 170.559 91.647 170.189 91.647 169.743V162.449Z" fill="#CBD5E0"/>
<path d="M113.333 165.525L109.308 169.312C109.176 169.444 109.017 169.497 108.884 169.497C108.726 169.497 108.567 169.444 108.434 169.338L104.41 165.525C104.145 165.287 104.145 164.89 104.383 164.625C104.622 164.36 105.019 164.36 105.284 164.599L108.884 167.988L112.459 164.599C112.724 164.36 113.121 164.36 113.359 164.625C113.598 164.89 113.598 165.287 113.333 165.525Z" fill="#718096"/>
<rect x="134.168" y="151.806" width="55.1131" height="30.5882" rx="7.7466" fill="#2D3748"/>
<path d="M146.259 161.756V171.615H144.819V161.756H146.259ZM151.647 164.221V165.376H147.608V164.221H151.647ZM148.691 162.449H150.13V169.444C150.13 169.723 150.172 169.934 150.256 170.075C150.339 170.213 150.446 170.307 150.578 170.359C150.713 170.407 150.859 170.431 151.016 170.431C151.132 170.431 151.233 170.423 151.319 170.407C151.406 170.391 151.474 170.378 151.522 170.368L151.782 171.557C151.698 171.59 151.579 171.622 151.425 171.654C151.271 171.689 151.079 171.708 150.848 171.712C150.469 171.718 150.116 171.651 149.789 171.509C149.461 171.368 149.196 171.15 148.994 170.855C148.792 170.559 148.691 170.189 148.691 169.743V162.449ZM156.347 171.764C155.618 171.764 154.991 171.609 154.464 171.298C153.941 170.983 153.537 170.542 153.251 169.974C152.969 169.402 152.827 168.733 152.827 167.966C152.827 167.209 152.969 166.541 153.251 165.963C153.537 165.386 153.935 164.935 154.445 164.611C154.959 164.287 155.559 164.124 156.245 164.124C156.663 164.124 157.067 164.193 157.459 164.331C157.85 164.469 158.202 164.686 158.513 164.981C158.824 165.277 159.07 165.66 159.25 166.132C159.429 166.601 159.519 167.17 159.519 167.841V168.351H153.641V167.273H158.109C158.109 166.894 158.032 166.559 157.877 166.267C157.723 165.971 157.507 165.739 157.228 165.569C156.952 165.399 156.627 165.314 156.255 165.314C155.851 165.314 155.498 165.413 155.196 165.612C154.898 165.808 154.666 166.065 154.503 166.382C154.342 166.697 154.262 167.039 154.262 167.408V168.25C154.262 168.744 154.349 169.165 154.522 169.511C154.699 169.858 154.944 170.123 155.259 170.306C155.573 170.486 155.941 170.575 156.361 170.575C156.634 170.575 156.883 170.537 157.107 170.46C157.332 170.38 157.526 170.261 157.69 170.104C157.853 169.946 157.979 169.752 158.065 169.521L159.428 169.767C159.319 170.168 159.123 170.519 158.84 170.821C158.561 171.119 158.21 171.352 157.786 171.519C157.366 171.683 156.886 171.764 156.347 171.764Z" fill="#CBD5E0"/>
<path d="M178.13 165.525L174.105 169.312C173.973 169.444 173.814 169.497 173.681 169.497C173.522 169.497 173.364 169.444 173.231 169.338L169.207 165.525C168.942 165.287 168.942 164.89 169.18 164.625C169.418 164.36 169.816 164.36 170.08 164.599L173.681 167.988L177.256 164.599C177.521 164.36 177.918 164.36 178.156 164.625C178.394 164.89 178.394 165.287 178.13 165.525Z" fill="#718096"/>
<rect x="198.965" y="151.806" width="99.3665" height="30.5882" rx="7.7466" fill="#2D3748"/>
<path d="M209.448 171.615V170.113L212.957 166.864C213.256 166.575 213.506 166.315 213.708 166.084C213.913 165.853 214.069 165.626 214.175 165.405C214.281 165.18 214.334 164.938 214.334 164.678C214.334 164.389 214.268 164.141 214.137 163.932C214.005 163.72 213.825 163.558 213.597 163.446C213.369 163.33 213.111 163.272 212.822 163.272C212.521 163.272 212.257 163.333 212.033 163.455C211.808 163.577 211.635 163.752 211.513 163.98C211.391 164.208 211.33 164.479 211.33 164.794H209.351C209.351 164.149 209.497 163.589 209.789 163.114C210.081 162.639 210.491 162.271 211.017 162.011C211.543 161.751 212.15 161.621 212.837 161.621C213.543 161.621 214.157 161.746 214.681 161.997C215.207 162.244 215.616 162.587 215.908 163.027C216.2 163.467 216.346 163.97 216.346 164.538C216.346 164.911 216.272 165.278 216.125 165.641C215.98 166.004 215.722 166.406 215.35 166.849C214.977 167.289 214.453 167.817 213.775 168.433L212.336 169.844V169.911H216.476V171.615H209.448ZM221.852 171.832C221.024 171.829 220.312 171.625 219.715 171.22C219.121 170.816 218.664 170.23 218.343 169.463C218.025 168.696 217.868 167.774 217.871 166.695C217.871 165.62 218.03 164.704 218.348 163.946C218.669 163.189 219.126 162.613 219.72 162.218C220.317 161.82 221.028 161.621 221.852 161.621C222.677 161.621 223.386 161.82 223.98 162.218C224.577 162.616 225.036 163.194 225.357 163.951C225.678 164.705 225.837 165.62 225.834 166.695C225.834 167.777 225.673 168.701 225.352 169.468C225.034 170.235 224.579 170.821 223.985 171.225C223.391 171.63 222.68 171.832 221.852 171.832ZM221.852 170.104C222.417 170.104 222.868 169.82 223.205 169.252C223.542 168.683 223.709 167.831 223.706 166.695C223.706 165.947 223.629 165.325 223.475 164.827C223.324 164.33 223.109 163.956 222.83 163.706C222.554 163.455 222.228 163.33 221.852 163.33C221.291 163.33 220.841 163.611 220.504 164.173C220.167 164.734 219.997 165.575 219.994 166.695C219.994 167.453 220.07 168.085 220.22 168.592C220.374 169.096 220.591 169.475 220.87 169.728C221.149 169.978 221.477 170.104 221.852 170.104ZM227.32 171.615V170.113L230.829 166.864C231.128 166.575 231.378 166.315 231.58 166.084C231.786 165.853 231.942 165.626 232.047 165.405C232.153 165.18 232.206 164.938 232.206 164.678C232.206 164.389 232.141 164.141 232.009 163.932C231.877 163.72 231.698 163.558 231.47 163.446C231.242 163.33 230.984 163.272 230.695 163.272C230.393 163.272 230.13 163.333 229.905 163.455C229.68 163.577 229.507 163.752 229.385 163.98C229.263 164.208 229.202 164.479 229.202 164.794H227.224C227.224 164.149 227.37 163.589 227.662 163.114C227.954 162.639 228.363 162.271 228.889 162.011C229.416 161.751 230.022 161.621 230.709 161.621C231.415 161.621 232.03 161.746 232.553 161.997C233.079 162.244 233.488 162.587 233.781 163.027C234.073 163.467 234.219 163.97 234.219 164.538C234.219 164.911 234.145 165.278 233.997 165.641C233.853 166.004 233.594 166.406 233.222 166.849C232.85 167.289 232.325 167.817 231.648 168.433L230.208 169.844V169.911H234.349V171.615H227.32ZM239.725 171.832C238.897 171.829 238.184 171.625 237.587 171.22C236.994 170.816 236.536 170.23 236.215 169.463C235.898 168.696 235.74 167.774 235.743 166.695C235.743 165.62 235.902 164.704 236.22 163.946C236.541 163.189 236.998 162.613 237.592 162.218C238.189 161.82 238.9 161.621 239.725 161.621C240.55 161.621 241.259 161.82 241.853 162.218C242.45 162.616 242.908 163.194 243.229 163.951C243.55 164.705 243.709 165.62 243.706 166.695C243.706 167.777 243.546 168.701 243.225 169.468C242.907 170.235 242.451 170.821 241.857 171.225C241.264 171.63 240.553 171.832 239.725 171.832ZM239.725 170.104C240.29 170.104 240.741 169.82 241.078 169.252C241.414 168.683 241.581 167.831 241.578 166.695C241.578 165.947 241.501 165.325 241.347 164.827C241.196 164.33 240.981 163.956 240.702 163.706C240.426 163.455 240.1 163.33 239.725 163.33C239.163 163.33 238.714 163.611 238.377 164.173C238.04 164.734 237.87 165.575 237.866 166.695C237.866 167.453 237.942 168.085 238.093 168.592C238.247 169.096 238.463 169.475 238.743 169.728C239.022 169.978 239.349 170.104 239.725 170.104ZM249.819 165.872V167.499H245.322V165.872H249.819ZM255.836 161.756V171.615H253.752V163.735H253.694L251.436 165.15V163.301L253.877 161.756H255.836ZM258.18 171.615V170.113L261.689 166.864C261.988 166.575 262.238 166.315 262.44 166.084C262.646 165.853 262.801 165.626 262.907 165.405C263.013 165.18 263.066 164.938 263.066 164.678C263.066 164.389 263 164.141 262.869 163.932C262.737 163.72 262.557 163.558 262.329 163.446C262.102 163.33 261.843 163.272 261.554 163.272C261.253 163.272 260.989 163.333 260.765 163.455C260.54 163.577 260.367 163.752 260.245 163.98C260.123 164.208 260.062 164.479 260.062 164.794H258.083C258.083 164.149 258.229 163.589 258.521 163.114C258.813 162.639 259.223 162.271 259.749 162.011C260.275 161.751 260.882 161.621 261.569 161.621C262.275 161.621 262.889 161.746 263.413 161.997C263.939 162.244 264.348 162.587 264.64 163.027C264.932 163.467 265.078 163.97 265.078 164.538C265.078 164.911 265.004 165.278 264.857 165.641C264.712 166.004 264.454 166.406 264.082 166.849C263.709 167.289 263.185 167.817 262.508 168.433L261.068 169.844V169.911H265.208V171.615H258.18ZM271.345 165.872V167.499H266.849V165.872H271.345ZM276.939 171.832C276.111 171.829 275.399 171.625 274.802 171.22C274.208 170.816 273.75 170.23 273.43 169.463C273.112 168.696 272.955 167.774 272.958 166.695C272.958 165.62 273.117 164.704 273.434 163.946C273.755 163.189 274.213 162.613 274.806 162.218C275.403 161.82 276.114 161.621 276.939 161.621C277.764 161.621 278.473 161.82 279.067 162.218C279.664 162.616 280.123 163.194 280.444 163.951C280.765 164.705 280.924 165.62 280.92 166.695C280.92 167.777 280.76 168.701 280.439 169.468C280.121 170.235 279.665 170.821 279.072 171.225C278.478 171.63 277.767 171.832 276.939 171.832ZM276.939 170.104C277.504 170.104 277.955 169.82 278.292 169.252C278.629 168.683 278.796 167.831 278.792 166.695C278.792 165.947 278.715 165.325 278.561 164.827C278.411 164.33 278.196 163.956 277.916 163.706C277.64 163.455 277.315 163.33 276.939 163.33C276.377 163.33 275.928 163.611 275.591 164.173C275.254 164.734 275.084 165.575 275.081 166.695C275.081 167.453 275.156 168.085 275.307 168.592C275.461 169.096 275.678 169.475 275.957 169.728C276.236 169.978 276.564 170.104 276.939 170.104ZM286.696 161.756V171.615H284.612V163.735H284.554L282.296 165.15V163.301L284.737 161.756H286.696Z" fill="#EDF2F7"/>
<rect x="60.0977" y="59.7188" width="33.3665" height="30.5882" rx="7.7466" fill="#EDF2F7"/>
<path d="M80.0016 71.9028H78.6777C78.2011 71.9028 77.8304 72.2999 77.8304 72.75C77.8304 73.2266 78.2011 73.5973 78.6777 73.5973H82.0669C82.517 73.5973 82.9141 73.2266 82.9141 72.75V69.3609C82.9141 68.9108 82.517 68.5136 82.0669 68.5136C81.5903 68.5136 81.2196 68.9108 81.2196 69.3609V70.7378L80.743 70.2612C78.413 67.9576 74.6796 67.9576 72.3496 70.2612C70.046 72.5912 70.046 76.3245 72.3496 78.6546C74.6796 80.9581 78.413 80.9581 80.743 78.6546C81.0607 78.3103 81.0607 77.7808 80.743 77.4631C80.3988 77.1189 79.8692 77.1189 79.5515 77.4631C77.8834 79.1047 75.2092 79.1047 73.5411 77.4631C71.8995 75.795 71.8995 73.1207 73.5411 71.4526C75.2092 69.811 77.8834 69.811 79.5515 71.4526L80.0016 71.9028Z" fill="#718096"/>
<rect x="101.211" y="59.7188" width="86.7963" height="30.5882" rx="7.7466" fill="#16A394"/>
<path d="M116.707 79.5283V69.669H123.023V71.1662H118.493V73.8429H122.59V75.34H118.493V79.5283H116.707ZM124.573 79.5283V72.1338H126.316V79.5283H124.573ZM125.449 71.0844C125.173 71.0844 124.936 70.9929 124.737 70.81C124.538 70.6238 124.438 70.4008 124.438 70.1408C124.438 69.8776 124.538 69.6546 124.737 69.4716C124.936 69.2855 125.173 69.1924 125.449 69.1924C125.728 69.1924 125.966 69.2855 126.162 69.4716C126.361 69.6546 126.46 69.8776 126.46 70.1408C126.46 70.4008 126.361 70.6238 126.162 70.81C125.966 70.9929 125.728 71.0844 125.449 71.0844ZM129.851 69.669V79.5283H128.108V69.669H129.851ZM135.335 72.1338V73.4818H131.084V72.1338H135.335ZM132.134 70.3622H133.876V77.3042C133.876 77.5385 133.912 77.7182 133.982 77.8434C134.056 77.9653 134.152 78.0488 134.271 78.0937C134.39 78.1386 134.521 78.1611 134.666 78.1611C134.775 78.1611 134.874 78.1531 134.964 78.137C135.057 78.121 135.128 78.1066 135.176 78.0937L135.47 79.4561C135.377 79.4882 135.244 79.5235 135.07 79.562C134.9 79.6005 134.692 79.623 134.444 79.6294C134.008 79.6423 133.615 79.5765 133.265 79.432C132.915 79.2844 132.638 79.0565 132.432 78.7484C132.23 78.4403 132.13 78.0552 132.134 77.593V70.3622ZM139.987 79.6727C139.245 79.6727 138.605 79.5187 138.066 79.2106C137.53 78.8993 137.117 78.4596 136.829 77.8915C136.54 77.3202 136.395 76.6479 136.395 75.8744C136.395 75.1138 136.54 74.4462 136.829 73.8717C137.121 73.294 137.528 72.8447 138.051 72.5238C138.575 72.1996 139.189 72.0376 139.895 72.0376C140.351 72.0376 140.781 72.1114 141.185 72.259C141.593 72.4034 141.952 72.6281 142.264 72.933C142.578 73.2379 142.825 73.6262 143.005 74.098C143.185 74.5666 143.275 75.125 143.275 75.7733V76.3077H137.214V75.133H141.604C141.601 74.7993 141.529 74.5024 141.388 74.2424C141.246 73.9793 141.049 73.7722 140.795 73.6214C140.545 73.4706 140.253 73.3951 139.919 73.3951C139.563 73.3951 139.25 73.4818 138.981 73.6551C138.711 73.8252 138.501 74.0499 138.35 74.3291C138.202 74.6051 138.127 74.9084 138.124 75.2389V76.2644C138.124 76.6944 138.202 77.0635 138.36 77.3716C138.517 77.6765 138.737 77.9108 139.019 78.0745C139.301 78.2349 139.632 78.3152 140.011 78.3152C140.264 78.3152 140.494 78.2799 140.699 78.2093C140.905 78.1354 141.083 78.0279 141.234 77.8867C141.384 77.7455 141.498 77.5706 141.575 77.362L143.202 77.5449C143.1 77.975 142.904 78.3505 142.615 78.6714C142.33 78.9891 141.964 79.2363 141.518 79.4128C141.071 79.5861 140.561 79.6727 139.987 79.6727ZM144.749 79.5283V72.1338H146.439V73.3663H146.516C146.651 72.9394 146.882 72.6104 147.209 72.3794C147.54 72.1451 147.917 72.0279 148.34 72.0279C148.437 72.0279 148.544 72.0327 148.663 72.0424C148.785 72.0488 148.886 72.06 148.966 72.0761V73.6792C148.892 73.6535 148.775 73.631 148.615 73.6118C148.458 73.5893 148.305 73.5781 148.157 73.5781C147.84 73.5781 147.554 73.6471 147.301 73.7851C147.05 73.9199 146.853 74.1076 146.708 74.3483C146.564 74.589 146.492 74.8667 146.492 75.1812V79.5283H144.749ZM155.968 74.0884L154.38 74.2617C154.335 74.1012 154.256 73.9504 154.144 73.8092C154.035 73.6679 153.887 73.554 153.701 73.4674C153.515 73.3807 153.287 73.3374 153.017 73.3374C152.655 73.3374 152.35 73.416 152.103 73.5733C151.859 73.7305 151.738 73.9343 151.742 74.1847C151.738 74.3997 151.817 74.5746 151.977 74.7094C152.141 74.8442 152.411 74.9549 152.786 75.0416L154.047 75.3112C154.747 75.462 155.267 75.7011 155.607 76.0285C155.951 76.3558 156.124 76.7843 156.127 77.3138C156.124 77.7792 155.988 78.19 155.718 78.5462C155.452 78.8993 155.081 79.1753 154.606 79.3743C154.131 79.5733 153.585 79.6727 152.969 79.6727C152.064 79.6727 151.336 79.4834 150.784 79.1047C150.232 78.7228 149.903 78.1916 149.797 77.5112L151.496 77.3475C151.573 77.6813 151.737 77.9332 151.987 78.1033C152.237 78.2734 152.563 78.3585 152.964 78.3585C153.378 78.3585 153.711 78.2734 153.961 78.1033C154.214 77.9332 154.341 77.723 154.341 77.4727C154.341 77.2609 154.259 77.086 154.096 76.948C153.935 76.81 153.685 76.704 153.345 76.6302L152.083 76.3654C151.374 76.2178 150.849 75.9691 150.509 75.6193C150.169 75.2662 150 74.8201 150.004 74.2809C150 73.8252 150.124 73.4304 150.374 73.0967C150.628 72.7597 150.979 72.4997 151.429 72.3168C151.881 72.1306 152.403 72.0376 152.993 72.0376C153.86 72.0376 154.542 72.2221 155.039 72.5912C155.54 72.9603 155.85 73.4593 155.968 74.0884Z" fill="#EBF4FF"/>
<path d="M165.429 79.5283V78.45L168.765 74.9934C169.121 74.6179 169.415 74.289 169.646 74.0065C169.88 73.7209 170.055 73.4497 170.171 73.1929C170.286 72.9362 170.344 72.6634 170.344 72.3745C170.344 72.0472 170.267 71.7648 170.113 71.5273C169.959 71.2866 169.749 71.102 169.482 70.9736C169.216 70.8421 168.916 70.7763 168.582 70.7763C168.229 70.7763 167.921 70.8485 167.658 70.9929C167.395 71.1373 167.192 71.3411 167.051 71.6043C166.91 71.8675 166.839 72.1756 166.839 72.5286H165.419C165.419 71.9284 165.557 71.4037 165.833 70.9544C166.109 70.5051 166.488 70.1568 166.969 69.9097C167.451 69.6594 167.998 69.5342 168.611 69.5342C169.23 69.5342 169.776 69.6578 170.248 69.9049C170.723 70.1488 171.093 70.4826 171.36 70.9062C171.626 71.3267 171.759 71.8017 171.759 72.3312C171.759 72.6971 171.69 73.0549 171.552 73.4048C171.418 73.7546 171.182 74.1445 170.845 74.5746C170.508 75.0014 170.039 75.5198 169.439 76.1296L167.48 78.1804V78.2526H171.918V79.5283H165.429Z" fill="#EBF4FF"/>
<rect x="195.754" y="59.7188" width="85.7963" height="30.5882" rx="7.7466" fill="#EDF2F7"/>
<path d="M211.134 79.5283V69.669H217.662V71.3877H213.219V73.7369H217.229V75.4556H213.219V79.5283H211.134ZM219.026 79.5283V72.1338H221.077V79.5283H219.026ZM220.056 71.1806C219.751 71.1806 219.49 71.0796 219.271 70.8774C219.056 70.672 218.949 70.4264 218.949 70.1408C218.949 69.8584 219.056 69.6161 219.271 69.4139C219.49 69.2085 219.751 69.1058 220.056 69.1058C220.361 69.1058 220.621 69.2085 220.836 69.4139C221.054 69.6161 221.163 69.8584 221.163 70.1408C221.163 70.4264 221.054 70.672 220.836 70.8774C220.621 71.0796 220.361 71.1806 220.056 71.1806ZM226.089 79.6727C225.329 79.6727 224.674 79.5187 224.125 79.2106C223.58 78.8993 223.159 78.4596 222.864 77.8915C222.569 77.3202 222.421 76.6447 222.421 75.8648C222.421 75.1042 222.569 74.4366 222.864 73.8621C223.159 73.2876 223.575 72.8399 224.111 72.519C224.65 72.198 225.282 72.0376 226.007 72.0376C226.495 72.0376 226.949 72.1162 227.37 72.2735C227.793 72.4275 228.163 72.6602 228.477 72.9715C228.795 73.2828 229.042 73.6744 229.218 74.1461C229.395 74.6147 229.483 75.1635 229.483 75.7926V76.3558H223.239V75.0849H227.553C227.553 74.7896 227.489 74.5281 227.36 74.3002C227.232 74.0723 227.054 73.8942 226.826 73.7658C226.601 73.6342 226.34 73.5684 226.041 73.5684C225.73 73.5684 225.454 73.6407 225.213 73.7851C224.976 73.9263 224.789 74.1173 224.655 74.358C224.52 74.5955 224.451 74.8602 224.448 75.1523V76.3606C224.448 76.7265 224.515 77.0426 224.65 77.309C224.788 77.5754 224.982 77.7808 225.232 77.9252C225.483 78.0696 225.78 78.1419 226.123 78.1419C226.351 78.1419 226.559 78.1098 226.749 78.0456C226.938 77.9814 227.1 77.8851 227.235 77.7567C227.37 77.6284 227.473 77.4711 227.543 77.2849L229.44 77.4101C229.344 77.8658 229.146 78.2638 228.848 78.604C228.553 78.941 228.171 79.2042 227.702 79.3935C227.237 79.5797 226.699 79.6727 226.089 79.6727ZM232.872 69.669V79.5283H230.822V69.669H232.872ZM237.24 79.6487C236.678 79.6487 236.17 79.5042 235.714 79.2154C235.261 78.9233 234.902 78.4949 234.636 77.93C234.372 77.362 234.241 76.6655 234.241 75.8407C234.241 74.9934 234.377 74.289 234.65 73.7273C234.923 73.1625 235.285 72.7404 235.738 72.4612C236.194 72.1788 236.693 72.0376 237.235 72.0376C237.649 72.0376 237.994 72.1082 238.27 72.2494C238.549 72.3874 238.774 72.5607 238.944 72.7693C239.117 72.9747 239.249 73.1769 239.339 73.3759H239.402V69.669H241.448V79.5283H239.426V78.344H239.339C239.243 78.5495 239.106 78.7532 238.93 78.9554C238.756 79.1544 238.53 79.3197 238.251 79.4513C237.975 79.5829 237.638 79.6487 237.24 79.6487ZM237.89 78.0167C238.22 78.0167 238.5 77.9268 238.728 77.7471C238.959 77.5642 239.135 77.309 239.257 76.9817C239.382 76.6543 239.445 76.2708 239.445 75.8311C239.445 75.3914 239.384 75.0095 239.262 74.6853C239.14 74.3612 238.963 74.1108 238.732 73.9343C238.501 73.7578 238.22 73.6695 237.89 73.6695C237.553 73.6695 237.269 73.761 237.038 73.9439C236.807 74.1269 236.632 74.3804 236.513 74.7046C236.394 75.0287 236.335 75.4042 236.335 75.8311C236.335 76.2611 236.394 76.6415 236.513 76.972C236.635 77.2994 236.81 77.5561 237.038 77.7423C237.269 77.9252 237.553 78.0167 237.89 78.0167ZM249.286 74.2424L247.409 74.358C247.377 74.1975 247.308 74.0531 247.202 73.9247C247.096 73.7931 246.956 73.6888 246.783 73.6118C246.613 73.5315 246.409 73.4914 246.171 73.4914C245.854 73.4914 245.586 73.5588 245.367 73.6936C245.149 73.8252 245.04 74.0017 245.04 74.2232C245.04 74.3997 245.111 74.5489 245.252 74.6709C245.393 74.7928 245.635 74.8907 245.979 74.9645L247.317 75.2341C248.036 75.3818 248.572 75.6193 248.925 75.9466C249.278 76.274 249.455 76.704 249.455 77.2368C249.455 77.7214 249.312 78.1467 249.026 78.5125C248.744 78.8784 248.355 79.1641 247.861 79.3695C247.37 79.5716 246.804 79.6727 246.162 79.6727C245.183 79.6727 244.403 79.4689 243.822 79.0614C243.244 78.6505 242.906 78.0921 242.806 77.386L244.823 77.2801C244.884 77.5786 245.032 77.8065 245.266 77.9637C245.501 78.1178 245.801 78.1948 246.167 78.1948C246.526 78.1948 246.815 78.1258 247.033 77.9878C247.255 77.8466 247.367 77.6653 247.37 77.4438C247.367 77.2577 247.288 77.1052 247.134 76.9865C246.98 76.8645 246.743 76.7714 246.422 76.7073L245.141 76.4521C244.419 76.3077 243.881 76.0573 243.528 75.7011C243.179 75.3449 243.004 74.8907 243.004 74.3387C243.004 73.8637 243.132 73.4545 243.389 73.1111C243.649 72.7677 244.013 72.5029 244.482 72.3168C244.953 72.1306 245.505 72.0376 246.138 72.0376C247.072 72.0376 247.807 72.2349 248.343 72.6297C248.882 73.0245 249.196 73.562 249.286 74.2424Z" fill="#4A5568"/>
<path d="M258.765 77.6027V76.3991L263.025 69.669H263.974V71.4406H263.372L260.325 76.2644V76.3414H266.164V77.6027H258.765ZM263.439 79.5283V77.2368L263.449 76.688V69.669H264.859V79.5283H263.439Z" fill="#718096"/>
<rect x="289.297" y="59.7188" width="149.796" height="30.5882" rx="7.7466" fill="#EDF2F7"/>
<path d="M310.026 72.5045C309.987 72.1162 309.822 71.8145 309.53 71.5995C309.238 71.3844 308.841 71.2769 308.341 71.2769C308.001 71.2769 307.713 71.3251 307.479 71.4214C307.245 71.5144 307.065 71.6444 306.94 71.8113C306.818 71.9782 306.757 72.1675 306.757 72.3794C306.751 72.5559 306.787 72.7099 306.868 72.8415C306.951 72.9731 307.065 73.087 307.209 73.1833C307.354 73.2764 307.521 73.3582 307.71 73.4288C307.899 73.4962 308.102 73.554 308.317 73.6021L309.202 73.814C309.633 73.9103 310.027 74.0386 310.387 74.1991C310.746 74.3596 311.058 74.5569 311.321 74.7912C311.584 75.0255 311.788 75.3015 311.932 75.6193C312.08 75.937 312.155 76.3013 312.158 76.7121C312.155 77.3154 312.001 77.8386 311.696 78.2815C311.395 78.7212 310.958 79.063 310.387 79.3069C309.819 79.5476 309.133 79.6679 308.331 79.6679C307.535 79.6679 306.842 79.546 306.251 79.3021C305.664 79.0581 305.205 78.6971 304.875 78.2189C304.547 77.7375 304.376 77.1421 304.359 76.4328H306.377C306.399 76.7634 306.494 77.0394 306.661 77.2609C306.831 77.4791 307.057 77.6444 307.339 77.7567C307.625 77.8658 307.948 77.9204 308.307 77.9204C308.66 77.9204 308.967 77.8691 309.227 77.7664C309.49 77.6637 309.694 77.5208 309.838 77.3379C309.982 77.155 310.055 76.9447 310.055 76.7073C310.055 76.4858 309.989 76.2997 309.857 76.1488C309.729 75.998 309.539 75.8696 309.289 75.7637C309.042 75.6578 308.739 75.5615 308.379 75.4748L307.306 75.2052C306.474 75.0031 305.818 74.6869 305.337 74.2569C304.855 73.8268 304.616 73.2475 304.619 72.519C304.616 71.922 304.775 71.4005 305.096 70.9544C305.42 70.5083 305.865 70.1601 306.43 69.9097C306.994 69.6594 307.636 69.5342 308.355 69.5342C309.087 69.5342 309.726 69.6594 310.271 69.9097C310.82 70.1601 311.247 70.5083 311.552 70.9544C311.857 71.4005 312.014 71.9172 312.024 72.5045H310.026ZM315.573 75.2534V79.5283H313.522V69.669H315.515V73.4385H315.602C315.769 73.002 316.038 72.6602 316.41 72.4131C316.783 72.1627 317.25 72.0376 317.811 72.0376C318.325 72.0376 318.773 72.1499 319.154 72.3745C319.54 72.596 319.838 72.9153 320.05 73.3326C320.265 73.7466 320.371 74.2424 320.368 74.8201V79.5283H318.317V75.186C318.32 74.7303 318.204 74.3756 317.97 74.1221C317.739 73.8685 317.415 73.7418 316.998 73.7418C316.719 73.7418 316.471 73.8011 316.256 73.9199C316.045 74.0386 315.878 74.2119 315.756 74.4398C315.637 74.6645 315.576 74.9357 315.573 75.2534ZM325.323 79.6727C324.575 79.6727 323.928 79.5139 323.382 79.1961C322.84 78.8752 322.421 78.4291 322.126 77.8578C321.831 77.2833 321.683 76.6174 321.683 75.86C321.683 75.0961 321.831 74.4286 322.126 73.8573C322.421 73.2828 322.84 72.8367 323.382 72.519C323.928 72.198 324.575 72.0376 325.323 72.0376C326.07 72.0376 326.715 72.198 327.258 72.519C327.803 72.8367 328.224 73.2828 328.519 73.8573C328.814 74.4286 328.962 75.0961 328.962 75.86C328.962 76.6174 328.814 77.2833 328.519 77.8578C328.224 78.4291 327.803 78.8752 327.258 79.1961C326.715 79.5139 326.07 79.6727 325.323 79.6727ZM325.332 78.0841C325.672 78.0841 325.956 77.9878 326.184 77.7952C326.412 77.5995 326.584 77.3331 326.699 76.9961C326.818 76.6591 326.878 76.2756 326.878 75.8455C326.878 75.4155 326.818 75.0319 326.699 74.695C326.584 74.358 326.412 74.0916 326.184 73.8958C325.956 73.7 325.672 73.6021 325.332 73.6021C324.989 73.6021 324.7 73.7 324.466 73.8958C324.235 74.0916 324.06 74.358 323.941 74.695C323.825 75.0319 323.768 75.4155 323.768 75.8455C323.768 76.2756 323.825 76.6591 323.941 76.9961C324.06 77.3331 324.235 77.5995 324.466 77.7952C324.7 77.9878 324.989 78.0841 325.332 78.0841ZM331.569 79.5283L329.557 72.1338H331.631L332.777 77.102H332.845L334.038 72.1338H336.075L337.288 77.0731H337.351L338.477 72.1338H340.547L338.54 79.5283H336.369L335.098 74.8779H335.006L333.735 79.5283H331.569ZM341.641 79.5283V72.1338H343.692V79.5283H341.641ZM342.671 71.1806C342.367 71.1806 342.105 71.0796 341.887 70.8774C341.672 70.672 341.564 70.4264 341.564 70.1408C341.564 69.8584 341.672 69.6161 341.887 69.4139C342.105 69.2085 342.367 69.1058 342.671 69.1058C342.976 69.1058 343.236 69.2085 343.451 69.4139C343.67 69.6161 343.779 69.8584 343.779 70.1408C343.779 70.4264 343.67 70.672 343.451 70.8774C343.236 71.0796 342.976 71.1806 342.671 71.1806ZM347.386 75.2534V79.5283H345.335V72.1338H347.289V73.4385H347.376C347.54 73.0084 347.814 72.6682 348.199 72.4179C348.584 72.1643 349.051 72.0376 349.6 72.0376C350.114 72.0376 350.561 72.1499 350.943 72.3745C351.325 72.5992 351.622 72.9201 351.834 73.3374C352.046 73.7514 352.152 74.2456 352.152 74.8201V79.5283H350.101V75.186C350.104 74.7335 349.988 74.3804 349.754 74.1269C349.52 73.8701 349.197 73.7418 348.787 73.7418C348.511 73.7418 348.267 73.8011 348.055 73.9199C347.846 74.0386 347.682 74.2119 347.564 74.4398C347.448 74.6645 347.389 74.9357 347.386 75.2534ZM357.099 82.4553C356.435 82.4553 355.865 82.3638 355.39 82.1809C354.919 82.0012 354.543 81.7556 354.264 81.4443C353.985 81.133 353.803 80.7832 353.72 80.3949L355.617 80.1397C355.674 80.2873 355.766 80.4253 355.891 80.5537C356.016 80.6821 356.181 80.7848 356.387 80.8618C356.595 80.9421 356.849 80.9822 357.147 80.9822C357.594 80.9822 357.961 80.8731 358.25 80.6548C358.542 80.4398 358.688 80.0787 358.688 79.5716V78.2189H358.601C358.511 78.4243 358.377 78.6185 358.197 78.8014C358.017 78.9843 357.786 79.1336 357.504 79.2491C357.221 79.3646 356.884 79.4224 356.493 79.4224C355.937 79.4224 355.432 79.294 354.976 79.0373C354.524 78.7773 354.163 78.381 353.893 77.8482C353.627 77.3122 353.494 76.635 353.494 75.8166C353.494 74.979 353.63 74.2793 353.903 73.7177C354.176 73.156 354.538 72.7356 354.991 72.4564C355.446 72.1772 355.946 72.0376 356.488 72.0376C356.902 72.0376 357.249 72.1082 357.528 72.2494C357.807 72.3874 358.032 72.5607 358.202 72.7693C358.375 72.9747 358.508 73.1769 358.601 73.3759H358.678V72.1338H360.715V79.6005C360.715 80.2296 360.561 80.7559 360.253 81.1796C359.944 81.6032 359.518 81.9209 358.972 82.1328C358.43 82.3478 357.805 82.4553 357.099 82.4553ZM357.143 77.8819C357.473 77.8819 357.752 77.8001 357.98 77.6364C358.211 77.4695 358.388 77.232 358.51 76.9239C358.635 76.6126 358.698 76.2403 358.698 75.807C358.698 75.3737 358.637 74.9982 358.515 74.6805C358.393 74.3596 358.216 74.1108 357.985 73.9343C357.754 73.7578 357.473 73.6695 357.143 73.6695C356.806 73.6695 356.522 73.761 356.291 73.9439C356.059 74.1237 355.885 74.374 355.766 74.695C355.647 75.0159 355.588 75.3866 355.588 75.807C355.588 76.2339 355.647 76.6029 355.766 76.9143C355.888 77.2224 356.063 77.4615 356.291 77.6316C356.522 77.7984 356.806 77.8819 357.143 77.8819Z" fill="#4A5568"/>
<path d="M373.87 79.6631C373.228 79.6631 372.654 79.5428 372.147 79.3021C371.64 79.0581 371.237 78.7244 370.938 78.3007C370.643 77.8771 370.486 77.3925 370.467 76.8469H372.2C372.232 77.2512 372.407 77.5818 372.724 77.8386C373.042 78.0921 373.424 78.2189 373.87 78.2189C374.22 78.2189 374.531 78.1386 374.804 77.9782C375.077 77.8177 375.292 77.5947 375.449 77.309C375.607 77.0234 375.684 76.6976 375.68 76.3317C375.684 75.9595 375.605 75.6289 375.444 75.34C375.284 75.0512 375.064 74.8249 374.785 74.6613C374.506 74.4944 374.185 74.4109 373.822 74.4109C373.527 74.4077 373.236 74.4623 372.951 74.5746C372.665 74.6869 372.439 74.8346 372.272 75.0175L370.659 74.7527L371.174 69.669H376.893V71.1614H372.652L372.368 73.7755H372.426C372.609 73.5604 372.867 73.3823 373.201 73.2411C373.535 73.0967 373.901 73.0245 374.299 73.0245C374.896 73.0245 375.428 73.1657 375.897 73.4481C376.366 73.7273 376.735 74.1124 377.004 74.6035C377.274 75.0945 377.409 75.6562 377.409 76.2884C377.409 76.9399 377.258 77.5208 376.956 78.0311C376.658 78.5382 376.242 78.9378 375.709 79.2298C375.18 79.5187 374.567 79.6631 373.87 79.6631ZM385.629 79.6727C384.907 79.6727 384.281 79.5139 383.751 79.1961C383.222 78.8784 382.811 78.4339 382.519 77.8626C382.23 77.2914 382.086 76.6238 382.086 75.86C382.086 75.0961 382.23 74.427 382.519 73.8525C382.811 73.278 383.222 72.8319 383.751 72.5142C384.281 72.1964 384.907 72.0376 385.629 72.0376C386.351 72.0376 386.977 72.1964 387.506 72.5142C388.036 72.8319 388.445 73.278 388.734 73.8525C389.026 74.427 389.172 75.0961 389.172 75.86C389.172 76.6238 389.026 77.2914 388.734 77.8626C388.445 78.4339 388.036 78.8784 387.506 79.1961C386.977 79.5139 386.351 79.6727 385.629 79.6727ZM385.638 78.2767C386.03 78.2767 386.357 78.1691 386.62 77.9541C386.884 77.7359 387.079 77.4438 387.208 77.0779C387.339 76.7121 387.405 76.3045 387.405 75.8552C387.405 75.4026 387.339 74.9934 387.208 74.6276C387.079 74.2585 386.884 73.9648 386.62 73.7466C386.357 73.5283 386.03 73.4192 385.638 73.4192C385.237 73.4192 384.903 73.5283 384.637 73.7466C384.374 73.9648 384.176 74.2585 384.045 74.6276C383.916 74.9934 383.852 75.4026 383.852 75.8552C383.852 76.3045 383.916 76.7121 384.045 77.0779C384.176 77.4438 384.374 77.7359 384.637 77.9541C384.903 78.1691 385.237 78.2767 385.638 78.2767ZM394.396 72.1338V73.4818H390.025V72.1338H394.396ZM391.118 79.5283V71.4358C391.118 70.9383 391.221 70.5243 391.426 70.1938C391.635 69.8632 391.914 69.6161 392.264 69.4524C392.614 69.2887 393.002 69.2069 393.429 69.2069C393.73 69.2069 393.998 69.2309 394.233 69.2791C394.467 69.3272 394.64 69.3705 394.753 69.4091L394.406 70.757C394.332 70.7345 394.239 70.7121 394.127 70.6896C394.014 70.6639 393.889 70.6511 393.751 70.6511C393.427 70.6511 393.198 70.7297 393.063 70.887C392.931 71.041 392.866 71.2625 392.866 71.5513V79.5283H391.118ZM402.643 79.6631C401.95 79.6631 401.334 79.5444 400.794 79.3069C400.258 79.0694 399.835 78.7388 399.523 78.3152C399.212 77.8915 399.047 77.4021 399.028 76.8469H400.838C400.854 77.1132 400.942 77.3459 401.102 77.5449C401.263 77.7407 401.476 77.8931 401.743 78.0022C402.009 78.1114 402.308 78.1659 402.638 78.1659C402.991 78.1659 403.304 78.1049 403.577 77.983C403.85 77.8578 404.063 77.6845 404.217 77.4631C404.371 77.2416 404.447 76.9865 404.443 76.6976C404.447 76.3991 404.37 76.136 404.212 75.9081C404.055 75.6802 403.827 75.5021 403.529 75.3737C403.234 75.2454 402.877 75.1812 402.46 75.1812H401.589V73.8043H402.46C402.803 73.8043 403.104 73.745 403.36 73.6262C403.62 73.5075 403.824 73.3406 403.972 73.1256C404.119 72.9073 404.192 72.6554 404.188 72.3697C404.192 72.0905 404.129 71.8482 404.001 71.6428C403.875 71.4342 403.697 71.2721 403.466 71.1566C403.238 71.041 402.97 70.9833 402.662 70.9833C402.361 70.9833 402.081 71.0378 401.825 71.1469C401.568 71.2561 401.361 71.4117 401.204 71.6139C401.046 71.8129 400.963 72.0504 400.953 72.3264H399.235C399.247 71.7744 399.406 71.2898 399.711 70.8725C400.019 70.4521 400.43 70.1248 400.944 69.8905C401.457 69.653 402.033 69.5342 402.672 69.5342C403.33 69.5342 403.901 69.6578 404.386 69.9049C404.874 70.1488 405.251 70.4778 405.517 70.8918C405.783 71.3058 405.917 71.7632 405.917 72.2638C405.92 72.8191 405.756 73.2844 405.426 73.6599C405.098 74.0354 404.668 74.2809 404.135 74.3965V74.4735C404.829 74.5698 405.36 74.8265 405.729 75.2438C406.101 75.6578 406.286 76.1729 406.282 76.7891C406.282 77.3411 406.125 77.8354 405.811 78.2718C405.499 78.7051 405.069 79.0453 404.52 79.2924C403.975 79.5396 403.349 79.6631 402.643 79.6631ZM411.545 79.6631C411.074 79.6599 410.613 79.5781 410.164 79.4176C409.715 79.2539 409.31 78.9891 408.951 78.6233C408.591 78.2542 408.306 77.7648 408.094 77.155C407.882 76.542 407.778 75.7829 407.781 74.8779C407.781 74.0338 407.871 73.2812 408.05 72.6201C408.23 71.9589 408.489 71.4005 408.825 70.9448C409.162 70.4858 409.568 70.136 410.043 69.8953C410.522 69.6546 411.056 69.5342 411.647 69.5342C412.266 69.5342 412.815 69.6562 413.293 69.9001C413.774 70.144 414.163 70.4778 414.458 70.9014C414.753 71.3219 414.936 71.7969 415.007 72.3264H413.25C413.16 71.9477 412.975 71.646 412.696 71.4214C412.42 71.1935 412.07 71.0796 411.647 71.0796C410.963 71.0796 410.437 71.3764 410.068 71.9702C409.702 72.5639 409.517 73.3791 409.514 74.4157H409.581C409.739 74.1333 409.942 73.891 410.193 73.6888C410.443 73.4866 410.725 73.331 411.04 73.2218C411.358 73.1095 411.693 73.0533 412.046 73.0533C412.624 73.0533 413.142 73.1913 413.601 73.4674C414.063 73.7434 414.429 74.1237 414.699 74.6083C414.968 75.0897 415.101 75.6417 415.098 76.2644C415.101 76.9127 414.954 77.4952 414.655 78.0119C414.357 78.5254 413.941 78.9298 413.409 79.225C412.876 79.5203 412.255 79.6663 411.545 79.6631ZM411.536 78.2189C411.886 78.2189 412.199 78.1338 412.475 77.9637C412.751 77.7936 412.969 77.5642 413.129 77.2753C413.29 76.9865 413.368 76.6623 413.365 76.3029C413.368 75.9498 413.291 75.6305 413.134 75.3449C412.98 75.0592 412.767 74.833 412.494 74.6661C412.221 74.4992 411.91 74.4157 411.56 74.4157C411.3 74.4157 411.058 74.4655 410.833 74.565C410.608 74.6645 410.413 74.8025 410.246 74.979C410.079 75.1523 409.947 75.3545 409.851 75.5856C409.758 75.8134 409.71 76.0573 409.706 76.3173C409.71 76.6607 409.79 76.9768 409.947 77.2657C410.104 77.5545 410.321 77.7856 410.597 77.9589C410.873 78.1322 411.186 78.2189 411.536 78.2189ZM416.725 79.5283V78.2381L420.148 74.8827C420.476 74.5521 420.748 74.2585 420.967 74.0017C421.185 73.745 421.349 73.4962 421.458 73.2555C421.567 73.0148 421.621 72.7581 421.621 72.4853C421.621 72.174 421.551 71.9076 421.41 71.6861C421.268 71.4615 421.074 71.2882 420.827 71.1662C420.58 71.0442 420.299 70.9833 419.985 70.9833C419.66 70.9833 419.376 71.0507 419.133 71.1855C418.889 71.317 418.699 71.5048 418.564 71.7487C418.433 71.9926 418.367 72.2831 418.367 72.6201H416.668C416.668 71.9942 416.811 71.4502 417.096 70.9881C417.382 70.5259 417.775 70.1681 418.276 69.9145C418.779 69.661 419.357 69.5342 420.009 69.5342C420.67 69.5342 421.251 69.6578 421.751 69.9049C422.252 70.152 422.64 70.4906 422.916 70.9207C423.196 71.3507 423.335 71.8418 423.335 72.3938C423.335 72.7629 423.265 73.1256 423.123 73.4818C422.982 73.838 422.733 74.2328 422.377 74.6661C422.024 75.0993 421.528 75.6241 420.89 76.2403L419.19 77.9685V78.0359H423.484V79.5283H416.725Z" fill="#718096"/>
<rect x="446.84" y="59.7188" width="102.05" height="30.5882" rx="7.7466" fill="#2D3748"/>
<path d="M463.602 79.5283H461.695L465.166 69.669H467.371L470.847 79.5283H468.941L466.307 71.6909H466.23L463.602 79.5283ZM463.664 75.6626H468.864V77.0972H463.664V75.6626ZM474.588 79.6583C474.007 79.6583 473.487 79.5091 473.028 79.2106C472.569 78.9121 472.206 78.4788 471.94 77.9108C471.674 77.3427 471.54 76.6527 471.54 75.8407C471.54 75.0191 471.675 74.3259 471.945 73.761C472.218 73.1929 472.585 72.7645 473.047 72.4756C473.509 72.1836 474.024 72.0376 474.592 72.0376C475.026 72.0376 475.382 72.1114 475.661 72.259C475.94 72.4034 476.162 72.5783 476.326 72.7837C476.489 72.9859 476.616 73.1769 476.706 73.3566H476.778V69.669H478.526V79.5283H476.812V78.3633H476.706C476.616 78.543 476.486 78.734 476.316 78.9362C476.146 79.1352 475.921 79.3053 475.642 79.4465C475.363 79.5877 475.011 79.6583 474.588 79.6583ZM475.074 78.2285C475.443 78.2285 475.757 78.129 476.017 77.93C476.277 77.7278 476.475 77.447 476.61 77.0876C476.744 76.7281 476.812 76.3093 476.812 75.8311C476.812 75.3529 476.744 74.9373 476.61 74.5842C476.478 74.2312 476.282 73.9568 476.022 73.761C475.766 73.5652 475.449 73.4674 475.074 73.4674C474.686 73.4674 474.361 73.5684 474.101 73.7706C473.841 73.9728 473.646 74.2521 473.514 74.6083C473.383 74.9645 473.317 75.3721 473.317 75.8311C473.317 76.2932 473.383 76.7056 473.514 77.0683C473.649 77.4278 473.846 77.7118 474.106 77.9204C474.369 78.1258 474.692 78.2285 475.074 78.2285ZM483.127 79.6583C482.546 79.6583 482.026 79.5091 481.567 79.2106C481.108 78.9121 480.745 78.4788 480.479 77.9108C480.213 77.3427 480.079 76.6527 480.079 75.8407C480.079 75.0191 480.214 74.3259 480.484 73.761C480.757 73.1929 481.124 72.7645 481.586 72.4756C482.048 72.1836 482.563 72.0376 483.131 72.0376C483.565 72.0376 483.921 72.1114 484.2 72.259C484.479 72.4034 484.701 72.5783 484.865 72.7837C485.028 72.9859 485.155 73.1769 485.245 73.3566H485.317V69.669H487.065V79.5283H485.351V78.3633H485.245C485.155 78.543 485.025 78.734 484.855 78.9362C484.685 79.1352 484.46 79.3053 484.181 79.4465C483.902 79.5877 483.55 79.6583 483.127 79.6583ZM483.613 78.2285C483.982 78.2285 484.297 78.129 484.556 77.93C484.816 77.7278 485.014 77.447 485.149 77.0876C485.283 76.7281 485.351 76.3093 485.351 75.8311C485.351 75.3529 485.283 74.9373 485.149 74.5842C485.017 74.2312 484.821 73.9568 484.561 73.761C484.305 73.5652 483.988 73.4674 483.613 73.4674C483.225 73.4674 482.9 73.5684 482.64 73.7706C482.38 73.9728 482.185 74.2521 482.053 74.6083C481.922 74.9645 481.856 75.3721 481.856 75.8311C481.856 76.2932 481.922 76.7056 482.053 77.0683C482.188 77.4278 482.385 77.7118 482.645 77.9204C482.908 78.1258 483.231 78.2285 483.613 78.2285ZM492.284 79.5283V72.1338H493.974V73.3663H494.051C494.186 72.9394 494.417 72.6104 494.744 72.3794C495.075 72.1451 495.452 72.0279 495.876 72.0279C495.972 72.0279 496.079 72.0327 496.198 72.0424C496.32 72.0488 496.421 72.06 496.501 72.0761V73.6792C496.428 73.6535 496.311 73.631 496.15 73.6118C495.993 73.5893 495.84 73.5781 495.693 73.5781C495.375 73.5781 495.089 73.6471 494.836 73.7851C494.585 73.9199 494.388 74.1076 494.244 74.3483C494.099 74.589 494.027 74.8667 494.027 75.1812V79.5283H492.284ZM500.628 79.6727C499.887 79.6727 499.247 79.5187 498.708 79.2106C498.172 78.8993 497.759 78.4596 497.47 77.8915C497.181 77.3202 497.037 76.6479 497.037 75.8744C497.037 75.1138 497.181 74.4462 497.47 73.8717C497.762 73.294 498.17 72.8447 498.693 72.5238C499.216 72.1996 499.831 72.0376 500.537 72.0376C500.993 72.0376 501.423 72.1114 501.827 72.259C502.235 72.4034 502.594 72.6281 502.905 72.933C503.22 73.2379 503.467 73.6262 503.647 74.098C503.827 74.5666 503.916 75.125 503.916 75.7733V76.3077H497.855V75.133H502.246C502.243 74.7993 502.171 74.5024 502.029 74.2424C501.888 73.9793 501.691 73.7722 501.437 73.6214C501.187 73.4706 500.895 73.3951 500.561 73.3951C500.205 73.3951 499.892 73.4818 499.622 73.6551C499.353 73.8252 499.142 74.0499 498.992 74.3291C498.844 74.6051 498.769 74.9084 498.765 75.2389V76.2644C498.765 76.6944 498.844 77.0635 499.001 77.3716C499.158 77.6765 499.378 77.9108 499.661 78.0745C499.943 78.2349 500.274 78.3152 500.652 78.3152C500.906 78.3152 501.135 78.2799 501.341 78.2093C501.546 78.1354 501.724 78.0279 501.875 77.8867C502.026 77.7455 502.14 77.5706 502.217 77.362L503.844 77.5449C503.742 77.975 503.546 78.3505 503.257 78.6714C502.971 78.9891 502.605 79.2363 502.159 79.4128C501.713 79.5861 501.203 79.6727 500.628 79.6727ZM508.616 79.6727C507.878 79.6727 507.244 79.5107 506.715 79.1865C506.188 78.8624 505.782 78.4147 505.497 77.8434C505.214 77.2689 505.073 76.6078 505.073 75.86C505.073 75.109 505.217 74.4462 505.506 73.8717C505.795 73.294 506.203 72.8447 506.729 72.5238C507.259 72.1996 507.884 72.0376 508.607 72.0376C509.207 72.0376 509.738 72.1483 510.2 72.3697C510.665 72.588 511.036 72.8977 511.312 73.2989C511.588 73.6968 511.745 74.1622 511.784 74.695H510.118C510.051 74.3387 509.89 74.0418 509.637 73.8043C509.386 73.5636 509.051 73.4433 508.631 73.4433C508.274 73.4433 507.961 73.5396 507.692 73.7321C507.422 73.9215 507.212 74.1943 507.061 74.5505C506.914 74.9068 506.84 75.3336 506.84 75.8311C506.84 76.335 506.914 76.7682 507.061 77.1309C507.209 77.4903 507.416 77.768 507.682 77.9637C507.952 78.1563 508.268 78.2526 508.631 78.2526C508.887 78.2526 509.117 78.2044 509.319 78.1082C509.524 78.0087 509.696 77.8658 509.834 77.6797C509.972 77.4936 510.067 77.2673 510.118 77.0009H511.784C511.742 77.524 511.588 77.9878 511.322 78.3922C511.055 78.7934 510.693 79.1079 510.234 79.3358C509.775 79.5604 509.236 79.6727 508.616 79.6727ZM516.44 79.6727C515.718 79.6727 515.092 79.5139 514.563 79.1961C514.033 78.8784 513.622 78.4339 513.33 77.8626C513.042 77.2914 512.897 76.6238 512.897 75.86C512.897 75.0961 513.042 74.427 513.33 73.8525C513.622 73.278 514.033 72.8319 514.563 72.5142C515.092 72.1964 515.718 72.0376 516.44 72.0376C517.162 72.0376 517.788 72.1964 518.318 72.5142C518.847 72.8319 519.257 73.278 519.545 73.8525C519.837 74.427 519.984 75.0961 519.984 75.86C519.984 76.6238 519.837 77.2914 519.545 77.8626C519.257 78.4339 518.847 78.8784 518.318 79.1961C517.788 79.5139 517.162 79.6727 516.44 79.6727ZM516.45 78.2767C516.842 78.2767 517.169 78.1691 517.432 77.9541C517.695 77.7359 517.891 77.4438 518.019 77.0779C518.151 76.7121 518.217 76.3045 518.217 75.8552C518.217 75.4026 518.151 74.9934 518.019 74.6276C517.891 74.2585 517.695 73.9648 517.432 73.7466C517.169 73.5283 516.842 73.4192 516.45 73.4192C516.049 73.4192 515.715 73.5283 515.449 73.7466C515.185 73.9648 514.988 74.2585 514.856 74.6276C514.728 74.9934 514.664 75.4026 514.664 75.8552C514.664 76.3045 514.728 76.7121 514.856 77.0779C514.988 77.4438 515.185 77.7359 515.449 77.9541C515.715 78.1691 516.049 78.2767 516.45 78.2767ZM521.463 79.5283V72.1338H523.152V73.3663H523.229C523.364 72.9394 523.595 72.6104 523.923 72.3794C524.253 72.1451 524.63 72.0279 525.054 72.0279C525.15 72.0279 525.258 72.0327 525.377 72.0424C525.498 72.0488 525.6 72.06 525.68 72.0761V73.6792C525.606 73.6535 525.489 73.631 525.328 73.6118C525.171 73.5893 525.019 73.5781 524.871 73.5781C524.553 73.5781 524.268 73.6471 524.014 73.7851C523.764 73.9199 523.566 74.1076 523.422 74.3483C523.278 74.589 523.205 74.8667 523.205 75.1812V79.5283H521.463ZM529.277 79.6583C528.696 79.6583 528.176 79.5091 527.717 79.2106C527.258 78.9121 526.896 78.4788 526.629 77.9108C526.363 77.3427 526.23 76.6527 526.23 75.8407C526.23 75.0191 526.365 74.3259 526.634 73.761C526.907 73.1929 527.275 72.7645 527.737 72.4756C528.199 72.1836 528.714 72.0376 529.282 72.0376C529.715 72.0376 530.072 72.1114 530.351 72.259C530.63 72.4034 530.851 72.5783 531.015 72.7837C531.179 72.9859 531.306 73.1769 531.395 73.3566H531.468V69.669H533.215V79.5283H531.501V78.3633H531.395C531.306 78.543 531.176 78.734 531.005 78.9362C530.835 79.1352 530.611 79.3053 530.331 79.4465C530.052 79.5877 529.701 79.6583 529.277 79.6583ZM529.763 78.2285C530.132 78.2285 530.447 78.129 530.707 77.93C530.967 77.7278 531.164 77.447 531.299 77.0876C531.434 76.7281 531.501 76.3093 531.501 75.8311C531.501 75.3529 531.434 74.9373 531.299 74.5842C531.168 74.2312 530.972 73.9568 530.712 73.761C530.455 73.5652 530.139 73.4674 529.763 73.4674C529.375 73.4674 529.051 73.5684 528.791 73.7706C528.531 73.9728 528.335 74.2521 528.204 74.6083C528.072 74.9645 528.006 75.3721 528.006 75.8311C528.006 76.2932 528.072 76.7056 528.204 77.0683C528.338 77.4278 528.536 77.7118 528.796 77.9204C529.059 78.1258 529.381 78.2285 529.763 78.2285Z" fill="#EDF2F7"/>
</g>
<defs>
<filter id="filter0_dddddd_285_21450" x="0.933365" y="2.11313" width="597.457" height="286.624" filterUnits="userSpaceOnUse" color-interpolation-filters="sRGB">
<feFlood flood-opacity="0" result="BackgroundImageFix"/>
<feColorMatrix in="SourceAlpha" type="matrix" values="0 0 0 0 0 0 0 0 0 0 0 0 0 0 0 0 0 0 127 0" result="hardAlpha"/>
<feOffset dy="0.241164"/>
<feGaussianBlur stdDeviation="0.361747"/>
<feColorMatrix type="matrix" values="0 0 0 0 0 0 0 0 0 0.0745098 0 0 0 0 0.207843 0 0 0 0.0168687 0"/>
<feBlend mode="normal" in2="BackgroundImageFix" result="effect1_dropShadow_285_21450"/>
<feColorMatrix in="SourceAlpha" type="matrix" values="0 0 0 0 0 0 0 0 0 0 0 0 0 0 0 0 0 0 127 0" result="hardAlpha"/>
<feOffset dy="0.579551"/>
<feGaussianBlur stdDeviation="0.869327"/>
<feColorMatrix type="matrix" values="0 0 0 0 0 0 0 0 0 0.0745098 0 0 0 0 0.207843 0 0 0 0.0242336 0"/>
<feBlend mode="normal" in2="effect1_dropShadow_285_21450" result="effect2_dropShadow_285_21450"/>
<feColorMatrix in="SourceAlpha" type="matrix" values="0 0 0 0 0 0 0 0 0 0 0 0 0 0 0 0 0 0 127 0" result="hardAlpha"/>
<feOffset dy="1.09124"/>
<feGaussianBlur stdDeviation="1.63687"/>
<feColorMatrix type="matrix" values="0 0 0 0 0 0 0 0 0 0.0745098 0 0 0 0 0.207843 0 0 0 0.03 0"/>
<feBlend mode="normal" in2="effect2_dropShadow_285_21450" result="effect3_dropShadow_285_21450"/>
<feColorMatrix in="SourceAlpha" type="matrix" values="0 0 0 0 0 0 0 0 0 0 0 0 0 0 0 0 0 0 127 0" result="hardAlpha"/>
<feOffset dy="1.94659"/>
<feGaussianBlur stdDeviation="2.91989"/>
<feColorMatrix type="matrix" values="0 0 0 0 0 0 0 0 0 0.0745098 0 0 0 0 0.207843 0 0 0 0.0357664 0"/>
<feBlend mode="normal" in2="effect3_dropShadow_285_21450" result="effect4_dropShadow_285_21450"/>
<feColorMatrix in="SourceAlpha" type="matrix" values="0 0 0 0 0 0 0 0 0 0 0 0 0 0 0 0 0 0 127 0" result="hardAlpha"/>
<feOffset dy="3.64088"/>
<feGaussianBlur stdDeviation="5.46133"/>
<feColorMatrix type="matrix" values="0 0 0 0 0 0 0 0 0 0.0745098 0 0 0 0 0.207843 0 0 0 0.0431313 0"/>
<feBlend mode="normal" in2="effect4_dropShadow_285_21450" result="effect5_dropShadow_285_21450"/>
<feColorMatrix in="SourceAlpha" type="matrix" values="0 0 0 0 0 0 0 0 0 0 0 0 0 0 0 0 0 0 127 0" result="hardAlpha"/>
<feOffset dy="8.71492"/>
<feGaussianBlur stdDeviation="13.0724"/>
<feColorMatrix type="matrix" values="0 0 0 0 0 0 0 0 0 0.0745098 0 0 0 0 0.207843 0 0 0 0.06 0"/>
<feBlend mode="normal" in2="effect5_dropShadow_285_21450" result="effect6_dropShadow_285_21450"/>
<feBlend mode="normal" in="SourceGraphic" in2="effect6_dropShadow_285_21450" result="shape"/>
</filter>
<clipPath id="clip0_285_21450">
<rect width="545.167" height="234.335" fill="white" transform="translate(27.0781 19.543)"/>
</clipPath>
</defs>
</svg>
