<svg width="107" height="29" viewBox="0 0 107 29" fill="none" xmlns="http://www.w3.org/2000/svg">
<path d="M62.8992 12.0207H65.6992V22.0207H62.8992V20.7207C61.8992 22.2207 60.5992 22.3207 59.7992 22.3207C56.6992 22.3207 54.6992 19.9207 54.6992 17.0207C54.6992 14.0207 56.6992 11.7207 59.5992 11.7207C60.3992 11.7207 61.8992 11.8207 62.7992 13.3207V12.0207H62.8992ZM57.6992 17.0207C57.6992 18.6207 58.7992 19.8207 60.4992 19.8207C62.0992 19.8207 63.2992 18.6207 63.2992 17.0207C63.2992 15.4207 62.1992 14.2207 60.4992 14.2207C58.8992 14.2207 57.6992 15.4207 57.6992 17.0207Z" fill="black"/>
<path d="M71.2008 14.4211V22.0211H68.4008V14.4211H67.3008V12.0211H68.4008V8.62109H71.2008V12.0211H73.1008V14.4211H71.2008Z" fill="black"/>
<path d="M79.6996 14.4207C78.9996 13.8207 78.3996 13.7207 78.0996 13.7207C77.3996 13.7207 76.9996 14.0207 76.9996 14.5207C76.9996 14.8207 77.0996 15.1207 77.8996 15.4207L78.5996 15.6207C79.3996 15.9207 80.5996 16.2207 81.0996 17.0207C81.3996 17.4207 81.5996 18.0207 81.5996 18.7207C81.5996 19.6207 81.2996 20.5207 80.4996 21.2207C79.6996 21.9207 78.6996 22.3207 77.4996 22.3207C75.3996 22.3207 74.2996 21.3207 73.5996 20.6207L75.0996 18.9207C75.6996 19.5207 76.4996 20.1207 77.2996 20.1207C78.0996 20.1207 78.6996 19.7207 78.6996 19.0207C78.6996 18.4207 78.1996 18.1207 77.7996 18.0207L77.1996 17.8207C76.4996 17.5207 75.6996 17.2207 75.0996 16.6207C74.5996 16.1207 74.2996 15.5207 74.2996 14.7207C74.2996 13.7207 74.7996 12.9207 75.2996 12.4207C76.0996 11.8207 77.0996 11.7207 77.8996 11.7207C78.5996 11.7207 79.7996 11.8207 81.0996 12.8207L79.6996 14.4207Z" fill="black"/>
<path d="M85.8 13.3207C86.8 11.9207 88.2 11.7207 89 11.7207C91.9 11.7207 93.9 14.0207 93.9 17.0207C93.9 20.0207 91.9 22.3207 88.9 22.3207C88.3 22.3207 86.8 22.2207 85.7 20.7207V22.0207H83V5.2207H85.8V13.3207ZM85.5 17.0207C85.5 18.6207 86.6 19.8207 88.3 19.8207C89.9 19.8207 91.1 18.6207 91.1 17.0207C91.1 15.4207 90 14.2207 88.3 14.2207C86.6 14.2207 85.5 15.4207 85.5 17.0207Z" fill="black"/>
<path d="M98.4992 20.5215L93.6992 12.0215H96.9992L100.099 17.7215L102.899 12.0215H106.099L98.0992 27.3215H94.8992L98.4992 20.5215Z" fill="black"/>
<path d="M54 13.7203H51.2H47V16.5203H50.7C50.1 18.4203 48.7 19.7203 46.1 19.7203C43.2 19.7203 41.1 17.3203 41.1 14.4203C41.1 11.5203 43.1 9.02031 46 9.02031C47.6 9.02031 49.2 9.82031 50.2 11.1203L52.5 9.62031C51 7.52031 48.6 6.32031 46 6.32031C41.6 6.32031 38 9.92031 38 14.4203C38 18.9203 41.4 22.5203 46 22.5203C50.6 22.5203 54 18.9203 54 14.4203C54.1 14.1203 54 13.9203 54 13.7203Z" fill="black"/>
<path d="M25.0008 14.0215H18.0008V16.0215H22.8008C22.1008 19.0215 19.9008 21.5215 17.0008 22.5215L5.50078 11.0215C6.70078 7.52148 10.1008 5.02148 14.0008 5.02148C17.0008 5.02148 19.7008 6.52148 21.4008 8.82148L22.9008 7.52148C20.9008 4.82148 17.7008 3.02148 14.0008 3.02148C8.80078 3.02148 4.40078 6.72148 3.30078 11.6215L16.5008 24.8215C21.3008 23.6215 25.0008 19.2215 25.0008 14.0215Z" fill="white"/>
<path d="M3 14.1211C3 16.9211 4.1 19.6211 6.2 21.7211C8.3 23.8211 11.1 24.9211 13.8 24.9211L3 14.1211Z" fill="white"/>
<path d="M14 0.0214844C6.3 0.0214844 0 6.32148 0 14.0215C0 21.7215 6.3 28.0215 14 28.0215C21.7 28.0215 28 21.7215 28 14.0215C28 6.32148 21.7 0.0214844 14 0.0214844ZM6.2 21.8215C4.1 19.7215 3 16.9215 3 14.2215L13.9 25.0215C11.1 24.9215 8.3 23.9215 6.2 21.8215ZM16.4 24.7215L3.3 11.6215C4.4 6.72148 8.8 3.02148 14 3.02148C17.7 3.02148 20.9 4.82148 22.9 7.52148L21.4 8.82148C19.7 6.52148 17 5.02148 14 5.02148C10.1 5.02148 6.8 7.52148 5.5 11.0215L17 22.5215C19.9 21.5215 22.1 19.0215 22.8 16.0215H18V14.0215H25C25 19.2215 21.3 23.6215 16.4 24.7215Z" fill="#663399"/>
</svg>
