<svg width="97" height="26" viewBox="0 0 97 26" fill="none" xmlns="http://www.w3.org/2000/svg">
<path d="M51.6631 9.35904V6.95542C51.6631 6.82 51.5277 6.68459 51.3923 6.71844C49.4626 6.78615 48.3116 7.63249 47.6684 8.34343C46.0434 10.1038 46.145 12.5413 46.145 13.1507V18.4657C46.145 18.6011 46.2465 18.7027 46.3819 18.7027H48.7856C48.921 18.7027 49.0225 18.6011 49.0225 18.4657V13.0153C49.0225 13.0153 48.921 11.2549 49.7673 10.307C50.1397 9.9007 50.6814 9.66373 51.3923 9.62987C51.5277 9.62987 51.6631 9.49446 51.6631 9.35904V9.35904ZM96.2148 9.35904V6.95542C96.2148 6.82 96.0794 6.68459 95.944 6.71844C94.0143 6.78615 92.8633 7.63249 92.2201 8.34343C90.5951 10.1038 90.6967 12.5413 90.6967 13.1507V18.4657C90.6967 18.6011 90.7982 18.7027 90.9336 18.7027H93.3373C93.4727 18.7027 93.5742 18.6011 93.5742 18.4657V13.0153C93.5742 13.0153 93.4727 11.2549 94.319 10.307C94.6914 9.9007 95.2331 9.66373 95.944 9.62987C96.1133 9.62987 96.2148 9.49446 96.2148 9.35904ZM13.4421 20.3616C9.10883 20.3616 5.62188 16.8407 5.62188 12.5413C5.62188 8.24186 9.14268 4.68721 13.4421 4.68721C17.7754 4.68721 21.2624 8.20801 21.2624 12.5075C21.2624 16.8069 17.7754 20.3616 13.4421 20.3616ZM25.0879 5.53355C24.7832 4.38252 24.2754 3.2992 23.4967 2.48671C22.6842 1.70807 21.6009 1.23411 20.4499 0.895573C17.4369 0.0492261 13.9499 0.116934 10.9031 0.794011C7.82238 1.50494 5.58802 3.50232 3.75991 6.00751C2.06722 8.34343 0.476087 11.221 0.23911 14.1324C0.00213325 17.1793 1.52556 20.1246 3.72606 22.2574C5.85885 24.4579 8.77029 25.9813 11.851 25.7443C14.7624 25.5073 17.64 23.9162 19.9759 22.2235C22.4811 20.3954 24.4785 18.1949 25.1894 15.1142C25.8665 12.0335 25.9342 8.54655 25.0879 5.53355V5.53355ZM74.6161 6.95542L70.689 15.5543L66.7281 6.95542C66.6604 6.82 66.525 6.75229 66.3896 6.75229H64.0875C63.9182 6.75229 63.7828 6.95542 63.8505 7.09083L69.0979 18.5673C69.1317 18.6689 69.2333 18.7027 69.3349 18.7027H72.0093C72.1109 18.7027 72.2124 18.635 72.2463 18.5673L77.4936 7.09083C77.5614 6.92156 77.4598 6.75229 77.2567 6.75229H74.9546C74.7853 6.71844 74.6499 6.82 74.6161 6.95542V6.95542ZM79.8634 11.2549L79.8973 11.1872C80.5066 9.93456 81.7931 9.08821 83.1811 9.08821C84.5691 9.08821 85.8894 9.9007 86.4649 11.1872L86.4988 11.2549H79.8634ZM82.8426 6.44761C79.6264 6.61688 77.0535 9.22363 76.8843 12.4059C76.6812 16.0283 79.5926 19.0751 83.1811 19.0751C85.1785 19.0751 87.0743 18.1272 88.2592 16.5361C88.3607 16.4345 88.3269 16.2652 88.1915 16.1637L86.3634 14.9788C86.2618 14.9111 86.1264 14.9449 86.0248 15.0465C85.3477 15.8928 84.2983 16.4006 83.1811 16.4006C81.59 16.4006 80.202 15.385 79.6941 13.8616L79.6603 13.7939H89.2071C89.3425 13.7939 89.4441 13.6923 89.4441 13.5569C89.4779 13.2861 89.5118 13.0153 89.5118 12.7444C89.5118 9.15592 86.4988 6.24449 82.8426 6.44761V6.44761ZM58.1292 16.3668C56.1319 16.3668 54.5069 14.7418 54.5069 12.7444C54.5069 10.747 56.1319 9.12206 58.1292 9.12206C60.1266 9.12206 61.7516 10.747 61.7516 12.7444C61.7854 14.7418 60.1266 16.3668 58.1292 16.3668ZM58.1292 6.41375C54.6423 6.41375 51.7986 9.25748 51.7986 12.7444C51.7986 16.2314 54.6423 19.0751 58.1292 19.0751C61.6162 19.0751 64.4599 16.2314 64.4599 12.7444C64.4599 9.25748 61.6162 6.41375 58.1292 6.41375V6.41375ZM37.1398 4.68721C32.8065 4.68721 29.2857 8.20801 29.2857 12.5413C29.2857 16.8746 32.8065 20.3954 37.1398 20.3954C41.4731 20.3954 44.9939 16.8746 44.9939 12.5413C44.9939 12.1351 44.9601 11.7288 44.8924 11.2887C44.8585 11.1533 44.7569 11.0856 44.6554 11.0856H37.7153C37.5799 11.0856 37.4784 11.1872 37.4784 11.3226V13.7262C37.4784 13.8616 37.5799 13.9632 37.7153 13.9632H41.9132L41.8794 14.0309C41.2023 16.1298 39.2726 17.5178 37.0383 17.484C34.33 17.4163 32.1295 15.1481 32.1972 12.4059C32.2649 9.73143 34.4654 7.56479 37.1737 7.56479C38.7648 7.56479 40.2544 8.30957 41.1684 9.59602C41.2362 9.69758 41.4054 9.73143 41.507 9.66373L43.5044 8.37728C43.6398 8.30957 43.6398 8.1403 43.5721 8.03874C42.0825 5.9398 39.7127 4.68721 37.1398 4.68721" fill="#E93756"/>
</svg>
