<svg width="182" height="36" viewBox="0.5 0 182 36" fill="none" xmlns="http://www.w3.org/2000/svg">
<path fill-rule="evenodd" clip-rule="evenodd" d="M17.9815 1.02148C9.12537 1.02148 1.89648 8.38112 1.89648 17.5215C1.89648 26.6618 9.12537 34.0215 17.9815 34.0215C26.8378 34.0215 34.0667 26.6618 34.0667 17.5215C34.0667 8.38112 26.8378 1.02148 17.9815 1.02148ZM0.896484 17.5215C0.896484 7.85098 8.5512 0.0214844 17.9815 0.0214844C27.412 0.0214844 35.0667 7.85098 35.0667 17.5215C35.0667 27.192 27.412 35.0215 17.9815 35.0215C8.5512 35.0215 0.896484 27.192 0.896484 17.5215ZM45.6873 24.6957H43.5273V8.86973H45.6873V24.6957ZM66.845 24.6957H64.6738L56.4271 12.5001V24.6957H54.2558V8.86973H56.4271L64.6962 21.1196V8.86973H66.845V24.6957ZM80.7125 21.9239L85.3926 8.86973H87.7552L81.68 24.6957H79.7674L73.7034 8.86973H76.0546L80.7125 21.9239ZM96.8862 24.6957H94.726V8.86973H96.8862V24.6957ZM110.281 17.6415C108.428 17.1269 107.078 16.4966 106.231 15.7502C105.391 14.9966 104.971 14.069 104.971 12.9675C104.971 11.7212 105.485 10.6922 106.512 9.88059C107.547 9.06175 108.89 8.65234 110.54 8.65234C111.665 8.65234 112.666 8.86249 113.544 9.28277C114.429 9.70307 115.111 10.2828 115.591 11.0219C116.079 11.761 116.322 12.569 116.322 13.4458H114.151C114.151 12.4893 113.836 11.7393 113.206 11.1958C112.576 10.6451 111.687 10.3697 110.54 10.3697C109.475 10.3697 108.642 10.598 108.042 11.0545C107.45 11.5038 107.153 12.1306 107.153 12.9349C107.153 13.5798 107.435 14.1269 107.997 14.5762C108.567 15.0183 109.531 15.424 110.889 15.7937C112.253 16.1632 113.318 16.5726 114.084 17.0219C114.856 17.4639 115.426 17.9821 115.794 18.5763C116.169 19.1705 116.356 19.8696 116.356 20.6741C116.356 21.9566 115.839 22.9856 114.804 23.761C113.769 24.5291 112.385 24.9132 110.652 24.9132C109.527 24.9132 108.477 24.7065 107.502 24.2935C106.527 23.8733 105.773 23.3008 105.241 22.5762C104.716 21.8515 104.453 21.0291 104.453 20.1088H106.625C106.625 21.0654 106.988 21.8226 107.716 22.3805C108.451 22.9313 109.43 23.2067 110.652 23.2067C111.792 23.2067 112.666 22.982 113.274 22.5327C113.881 22.0834 114.185 21.4712 114.185 20.6958C114.185 19.9205 113.904 19.3225 113.341 18.9023C112.779 18.4747 111.758 18.0545 110.281 17.6415ZM126.061 24.6957H123.901V8.86973H126.061V24.6957ZM134.629 24.6957V8.86973H139.984C141.762 8.86973 143.098 9.2248 143.989 9.93494C144.89 10.6451 145.34 11.6958 145.34 13.0871C145.34 13.8262 145.122 14.482 144.688 15.0544C144.252 15.6197 143.66 16.0581 142.91 16.3697C143.794 16.6087 144.493 17.0653 145.001 17.7393C145.519 18.4059 145.778 19.203 145.778 20.1306C145.778 21.5508 145.303 22.6668 144.349 23.4784C143.397 24.2899 142.05 24.6957 140.31 24.6957H134.629ZM136.79 17.2935V22.9892H140.356C141.361 22.9892 142.151 22.7392 142.729 22.2392C143.314 21.732 143.607 21.0364 143.607 20.1523C143.607 18.2465 142.534 17.2935 140.39 17.2935H136.79ZM136.79 15.6197H140.051C140.998 15.6197 141.751 15.3914 142.313 14.9349C142.883 14.4784 143.169 13.8588 143.169 13.0762C143.169 12.2067 142.906 11.5762 142.38 11.1849C141.855 10.7864 141.058 10.5871 139.984 10.5871H136.79V15.6197ZM155.765 22.9892H163.526V24.6957H153.592V8.86973H155.765V22.9892ZM179.859 17.3805H172.759V22.9892H181.006V24.6957H170.6V8.86973H180.894V10.5871H172.759V15.674H179.859V17.3805ZM7.17188 5.93359H6.67188V6.43359V28.6075V29.1075H7.17188H28.7926H29.2926V28.6075V6.43359V5.93359H28.7926H7.17188ZM7.67188 28.1075V6.93359H28.2926V28.1075H7.67188Z" fill="#0C0114"/>
</svg>
