<svg width="225" height="55" viewBox="0 0 225 55" fill="none" xmlns="http://www.w3.org/2000/svg">
<path d="M179.395 32.3505C179.452 30.0895 178.945 27.85 177.92 25.8339C176.993 24.0539 175.566 22.5845 173.813 21.6074C171.939 20.5953 169.834 20.0868 167.704 20.1318C165.38 20.0794 163.087 20.6735 161.08 21.8478C159.206 22.962 157.683 24.5818 156.687 26.5216C155.642 28.5901 155.115 30.8814 155.151 33.1985C155.151 33.6993 155.151 34.1933 155.211 34.6741C155.211 34.8677 155.251 35.0413 155.278 35.2283C155.503 36.9005 156.057 38.5117 156.907 39.9689C158.016 41.9071 159.632 43.5068 161.581 44.596C163.558 45.6916 165.784 46.2574 168.044 46.2385C169.799 46.266 171.54 45.9276 173.156 45.2447C174.773 44.5618 176.229 43.5495 177.432 42.2724L172.838 37.9792C172.758 38.0726 172.692 38.1661 172.605 38.2729C172.02 38.8967 171.314 39.394 170.529 39.7339C169.745 40.0739 168.899 40.2493 168.044 40.2493C167.189 40.2493 166.344 40.0739 165.559 39.7339C164.775 39.394 164.069 38.8967 163.484 38.2729C162.71 37.4179 162.174 36.3751 161.928 35.2483H179.161C179.329 34.2918 179.408 33.3216 179.395 32.3505ZM161.761 30.5678C161.943 29.0748 162.623 27.6867 163.691 26.6284C164.739 25.6945 166.107 25.2017 167.51 25.253C168.202 25.2207 168.893 25.3257 169.544 25.5617C170.195 25.7978 170.793 26.1603 171.303 26.6284C172.318 27.6954 172.909 29.0961 172.965 30.5678H161.761Z" fill="black"/>
<path d="M55.6186 46.2519C51.9463 46.2519 49.1354 45.3037 47.1857 43.4075C45.2361 41.5112 44.2612 38.8049 44.2612 35.2884V20.8863H50.9782V35.1415C50.9782 38.5868 52.5361 40.3094 55.652 40.3094C58.6833 40.3094 60.1968 38.5868 60.1923 35.1415V20.8863H66.9093V35.2884C66.9093 38.8494 65.9345 41.5624 63.9848 43.4275C62.0351 45.2926 59.2464 46.234 55.6186 46.2519Z" fill="black"/>
<path d="M76.1968 26.4482H71.4429V20.8863H76.2235V14.2094H82.9405V20.8863H88.7895V26.4482H82.9405V45.484H76.1968V26.4482Z" fill="black"/>
<path d="M92.9893 20.8863H99.4859L99.5393 24.9459C100.123 23.6039 101.066 22.4488 102.263 21.6074C103.449 20.8227 104.848 20.4217 106.27 20.459C107.245 20.4457 108.214 20.625 109.121 20.9865L108.546 27.3162C107.592 26.9393 106.575 26.7445 105.549 26.742C104.727 26.7047 103.909 26.8676 103.165 27.2165C102.42 27.5654 101.772 28.09 101.275 28.745C100.26 30.0804 99.753 31.9321 99.753 34.3002V45.4907H92.9893V20.8863Z" fill="black"/>
<path d="M120.071 20.8863H113.354V45.4773H120.071V20.8863Z" fill="black"/>
<path d="M135.962 46.2519C133.909 46.2844 131.889 45.7308 130.14 44.6561C128.375 43.5483 126.959 41.9654 126.053 40.0891C125.019 37.961 124.504 35.6177 124.551 33.2519C124.529 30.9859 125.034 28.7458 126.027 26.7086C126.968 24.7721 128.408 23.1218 130.2 21.9279C131.998 20.7189 134.122 20.0855 136.289 20.1118C137.816 20.091 139.328 20.4199 140.709 21.0733C141.998 21.6783 143.105 22.6107 143.921 23.7774V8.88123H150.644V45.484H144.221L144.128 42.3392C143.313 43.6089 142.155 44.6227 140.789 45.2637C139.274 45.9498 137.625 46.2875 135.962 46.2519ZM137.798 40.2426C138.675 40.2622 139.546 40.0936 140.352 39.748C141.158 39.4025 141.881 38.8881 142.472 38.2396C143.726 36.8335 144.385 34.9946 144.308 33.1117C144.378 31.2516 143.728 29.4361 142.492 28.0439C141.879 27.4161 141.147 26.9171 140.339 26.5764C139.53 26.2357 138.662 26.0602 137.785 26.0602C136.907 26.0602 136.039 26.2357 135.231 26.5764C134.422 26.9171 133.69 27.4161 133.077 28.0439C131.842 29.4361 131.191 31.2516 131.261 33.1117C131.184 34.9946 131.843 36.8335 133.098 38.2396C133.688 38.8963 134.415 39.4171 135.226 39.7664C136.037 40.1156 136.915 40.2849 137.798 40.2627V40.2426Z" fill="black"/>
<path d="M183.889 20.8863H190.365L190.412 24.9459C191 23.6044 191.944 22.4497 193.143 21.6074C194.329 20.8227 195.727 20.4217 197.149 20.459C198.125 20.4464 199.093 20.6257 200 20.9865L199.426 27.3162C198.471 26.9393 197.454 26.7445 196.428 26.742C195.606 26.7041 194.788 26.8667 194.044 27.2157C193.299 27.5647 192.651 28.0895 192.155 28.745C191.14 30.0804 190.632 31.9321 190.632 34.3002V45.4907H183.889V20.8863Z" fill="black"/>
<path d="M116.686 18.0155C116.153 18.0343 115.622 17.9433 115.125 17.748C114.629 17.5527 114.178 17.2574 113.801 16.8804C113.433 16.5188 113.143 16.086 112.948 15.6084C112.753 15.1309 112.657 14.6186 112.666 14.1028C112.653 13.5885 112.747 13.0771 112.943 12.6012C113.138 12.1253 113.43 11.6953 113.801 11.3386C114.588 10.6236 115.613 10.2274 116.676 10.2274C117.739 10.2274 118.763 10.6236 119.55 11.3386C119.92 11.6928 120.213 12.1204 120.408 12.5941C120.604 13.0679 120.698 13.5772 120.685 14.0895C120.701 14.6101 120.609 15.1285 120.413 15.6113C120.218 16.0942 119.924 16.531 119.55 16.8938C119.172 17.2636 118.724 17.5536 118.232 17.7463C117.74 17.939 117.214 18.0306 116.686 18.0155Z" fill="black"/>
<path d="M21.1591 8H0L2.23676 14.55H20.6316H21.1591C24.1211 14.55 26.9879 15.5956 29.2543 17.5027C31.5206 19.4097 33.0409 22.0557 33.5471 24.9741C34.0533 27.8924 33.5128 30.8958 32.0211 33.4547C30.5293 36.0136 28.1821 37.9636 25.3931 38.961C22.6041 39.9584 19.5526 39.9391 16.7764 38.9065C14.0003 37.8739 11.6778 35.8944 10.2186 33.3168C8.7593 30.7393 8.25689 27.7293 8.79994 24.8176C9.34298 21.9058 10.8966 19.2793 13.1869 17.4011H4.67383C2.53178 21.0311 1.64952 25.2673 2.16431 29.4507C2.6791 33.6341 4.56207 37.53 7.52029 40.5324C10.4785 43.5348 14.3461 45.4754 18.5214 46.0521C22.6966 46.6289 26.9455 45.8095 30.6069 43.7216C34.2683 41.6336 37.1369 38.394 38.7666 34.5069C40.3962 30.6197 40.6954 26.303 39.6177 22.2282C38.54 18.1534 36.1457 14.549 32.8075 11.9758C29.4692 9.40258 25.374 8.00484 21.1591 8V8Z" fill="black"/>
</svg>
