<svg width="225" height="55" viewBox="0 0 225 55" fill="none" xmlns="http://www.w3.org/2000/svg">
<path d="M182.902 49.7511C173.458 49.7511 165.802 42.0953 165.802 32.6523C165.802 23.2094 173.458 15.5536 182.902 15.5536C192.345 15.5536 200 23.2094 200 32.6523C199.977 42.0953 192.345 49.7269 182.902 49.7511ZM182.902 21.3981C176.695 21.3981 171.672 26.4214 171.672 32.6281C171.672 38.8349 176.695 43.8583 182.902 43.8583C189.108 43.8583 194.132 38.8349 194.132 32.6281C194.132 26.4456 189.108 21.4222 182.902 21.3981Z" fill="#2F2E2E"/>
<path d="M102.624 49.7508C93.1811 49.7508 85.5253 42.0951 85.5253 32.6521C85.5253 23.2091 93.1811 15.5533 102.624 15.5533C112.067 15.5533 119.723 23.2091 119.723 32.6521C119.723 42.0951 112.067 49.7508 102.624 49.7508ZM102.624 21.3978C96.4173 21.3978 91.3698 26.4211 91.3698 32.6279C91.3698 38.8346 96.3931 43.8581 102.624 43.8581C108.831 43.8581 113.854 38.8346 113.854 32.6279C113.854 26.4453 108.831 21.422 102.624 21.3978Z" fill="#2F2E2E"/>
<path fill-rule="evenodd" clip-rule="evenodd" d="M0 32.6521C0 42.0951 7.6558 49.7508 17.0987 49.7508C26.5194 49.7508 34.1612 42.1313 34.1974 32.7191C34.2334 42.1313 41.8754 49.7508 51.296 49.7508C60.7388 49.7508 68.3947 42.0951 68.3947 32.6521C68.3947 23.2091 60.7388 15.5533 51.296 15.5533C41.8754 15.5533 34.2334 23.173 34.1974 32.5851C34.1612 23.173 26.5194 15.5533 17.0987 15.5533C7.6558 15.5533 0 23.2091 0 32.6521Z" fill="#2F2E2E"/>
<path d="M135.807 37.5132L126.992 49.5645H119.723L132.184 32.5865L120.061 15.8741H127.548L135.976 27.4665L144.453 15.8741H151.722L139.575 32.4657L152.036 49.5645H144.549L135.807 37.5132Z" fill="#2F2E2E"/>
<path d="M155.514 15.8982H161.914V49.5885H155.514V15.8982Z" fill="#2F2E2E"/>
<path d="M158.702 12.2935C160.716 12.2935 162.349 10.6608 162.349 8.64676C162.349 6.63271 160.716 5 158.702 5C156.688 5 155.055 6.63271 155.055 8.64676C155.055 10.6608 156.688 12.2935 158.702 12.2935Z" fill="#2F2E2E"/>
</svg>
