<svg width="110" height="40" viewBox="0 0 110 40" fill="none" xmlns="http://www.w3.org/2000/svg">
<rect width="108.667" height="39" transform="translate(0.941406 0.521484)" fill="#EA3323"/>
<path fill-rule="evenodd" clip-rule="evenodd" d="M10.9414 10.5215H25.1281V24.7715H15.6703V29.5215H10.9414V24.7715V24.1777V10.5215ZM15.6703 15.2715H20.3992V20.0215H15.6703V15.2715ZM43.4525 10.5215H29.2659V29.5215H43.4525V10.5215ZM38.7236 15.2715H33.9947V24.7715H38.7236V15.2715ZM62.3681 10.5215H48.1814V24.1777V24.7715V29.5215H52.9103V24.7715H62.3681V10.5215ZM57.6392 15.2715H52.9103V20.0215H57.6392V15.2715ZM66.5059 10.5215H80.6925V24.7715H71.2347V29.5215H66.5059V24.7715V24.1777V10.5215ZM71.2347 15.2715H75.9636V20.0215H71.2347V15.2715ZM90.1503 10.5215H85.4214V20.0215V24.7715H90.1503H94.8792V29.5215H99.6081V24.7715V20.0215V10.5215H94.8792V20.0215H90.1503V10.5215Z" fill="#F7FAFC"/>
</svg>
