<svg width="85" height="39" viewBox="0.5 0 85 39" fill="none" xmlns="http://www.w3.org/2000/svg">
<path d="M82.3567 21.3147C83.3112 21.3147 84.1703 22.0747 84.1703 23.1197C84.1703 24.1647 83.3112 24.9248 82.3567 24.9248C81.3067 24.9248 80.4476 24.1647 80.4476 23.1197C80.4476 22.0747 81.3067 21.3147 82.3567 21.3147ZM77.6794 21.9797C78.0612 22.3597 77.9658 23.3098 77.1067 23.9748C74.0521 26.7298 70.9021 24.7347 72.0476 21.4097C70.9021 22.4547 69.9476 23.5947 67.8476 24.5447C65.4612 25.6847 62.9794 25.0198 62.8839 22.4547C62.5021 22.8347 61.9294 23.3097 61.2612 23.8797C58.7794 25.8747 56.8703 25.6847 55.7249 24.7347C54.8658 23.8797 54.7703 22.0747 56.5839 19.7947C58.2067 17.7047 59.3521 16.4697 58.5885 15.8997C58.1112 15.6147 56.1067 16.0897 54.0067 18.4647C52.2885 20.2697 50.6658 22.9298 49.9976 24.4498C49.5203 25.4948 48.6612 25.6848 47.8976 25.3998C46.943 25.0198 47.2294 23.8797 47.993 22.3597C47.5158 22.7397 47.0385 23.3097 46.2749 23.8797C43.793 25.8747 41.7885 25.6847 40.7385 24.7347C39.8794 23.8797 39.7839 22.0747 41.5976 19.7947C43.2203 17.7047 44.2703 16.4697 43.5067 15.8997C42.8385 15.4247 39.1158 16.8497 36.2521 22.4547C33.1976 28.2498 31.2885 33.3797 30.2385 35.7547C29.5703 37.4647 28.8067 38.1297 27.6612 38.0347C26.4203 37.9397 25.943 36.9897 26.8976 34.8997C28.3294 31.8597 30.7158 27.4898 32.6249 23.4998C32.4339 23.5948 32.243 23.7847 32.1476 23.8797C28.3294 26.9198 25.8476 24.5447 27.0885 21.4097C26.0385 22.4547 25.0839 23.5947 22.9839 24.5447C20.8839 25.5897 18.7839 25.1147 18.1158 23.4047C17.2567 24.1647 16.2067 25.0197 14.5839 25.3047C10.2885 25.9698 8.66577 21.6947 8.57031 18.5597H7.80667C6.94758 20.1747 5.89758 21.9797 4.75213 23.8797C3.79758 25.3998 2.74758 25.8747 1.60213 25.4947C0.552129 25.2097 0.552129 23.6897 1.69758 22.2647C4.08395 19.1297 5.2294 17.4197 7.71122 13.7147C8.3794 12.6697 9.14304 12.6697 9.81122 12.8597C10.0976 13.0497 10.2885 13.3347 10.2885 13.7147C11.0521 13.9997 11.1476 14.6647 11.1476 15.8047V15.9947C14.6794 15.0447 18.0203 13.1447 18.4021 9.62975C18.7839 6.77975 16.7794 4.59475 13.343 4.87975C8.76122 5.25975 6.08849 8.01475 5.32486 10.3897C4.94304 11.8147 3.51122 12.3847 2.84304 12.3847C1.79304 12.3847 1.0294 11.2447 1.88849 9.72475C3.03395 7.53975 7.80667 2.40975 14.9658 2.21975C20.1203 2.12475 22.9839 5.73475 22.1249 9.91475C21.1703 14.3797 16.493 17.1347 11.4339 18.1797C11.9112 20.4597 13.1521 22.4547 15.443 22.3597C16.6839 22.3597 17.6385 21.5047 18.1158 20.8397C19.2612 16.4697 23.6521 13.5247 26.6112 13.5247C27.9476 13.5247 28.8067 14.0947 29.3794 14.7597C29.9521 14.3797 30.4294 14.1897 31.0021 14.2847C32.1476 14.3797 32.5294 15.2347 32.243 15.8997C32.0521 16.3747 30.6203 19.0347 30.2385 20.7447C29.8567 22.4547 30.7158 22.3598 31.193 22.0748C33.3885 21.1248 34.9158 18.2747 35.4885 16.7547C36.6339 13.6197 37.2067 13.1447 38.3521 13.5247C39.2112 13.8097 39.3067 15.0447 38.4476 16.4697C39.4976 15.3297 40.4521 14.2847 42.5521 13.2397C44.1749 12.5747 45.7976 12.5747 46.7521 13.4297C48.1839 14.6647 47.4203 16.7547 45.0339 19.5097C43.5067 21.2197 43.3158 22.2647 43.9839 22.4547C44.3658 22.6447 44.9385 22.4547 45.4158 22.1697C48.4703 20.1747 50.7612 16.6597 52.0021 14.0947C53.9112 10.0097 55.5339 6.30475 57.5385 2.21975C58.3976 0.414748 59.4476 -0.155252 60.593 0.0347477C61.7385 0.319748 61.7385 1.45975 60.8794 2.88475C59.0658 5.92475 56.2976 11.2447 54.0067 15.8047C54.9612 14.9497 55.9158 14.0947 57.6339 13.2397C59.1612 12.5747 60.7839 12.5747 61.7385 13.4297C63.1703 14.6647 62.5021 16.7547 60.0203 19.5097C58.493 21.2197 58.3021 22.2647 59.0658 22.4547C59.3521 22.6447 59.9249 22.4547 60.4021 22.1697C61.9294 21.1247 63.2658 19.5097 64.3158 17.9897C66.1294 15.2347 69.2794 13.5247 71.4749 13.5247C72.9067 13.5247 73.7658 14.0947 74.3385 14.7597C74.8158 14.3797 75.293 14.1897 75.8658 14.2847C77.1067 14.3797 77.4885 15.2347 77.2021 15.8997C77.0112 16.3747 75.4839 19.0347 75.1021 20.7447C74.7203 22.4547 75.4839 22.4548 75.9612 22.0748C76.5339 21.6948 77.2021 21.5047 77.6794 21.9797V21.9797ZM23.6521 21.5998C25.4658 20.5548 26.6112 19.1297 27.3749 17.8947C26.993 17.2297 26.4203 16.4697 25.1794 16.4697C24.1294 16.4697 22.2203 17.7047 21.5521 19.8897C20.7885 22.0747 22.4112 22.4548 23.6521 21.5998V21.5998ZM68.6112 21.5998C70.3294 20.5548 71.4749 19.1297 72.2385 17.8947C71.9521 17.2297 71.2839 16.4697 70.043 16.4697C68.8976 16.4697 67.1794 17.7047 66.4158 19.8897C65.6521 22.0747 67.3703 22.4548 68.6112 21.5998V21.5998Z" fill="black"/>
</svg>
