<svg width="173" height="32" viewBox="0 0 173 32" fill="none" xmlns="http://www.w3.org/2000/svg">
<path d="M17.3857 0C26.6516 0 34.1628 7.50325 34.1628 16.7593C34.1628 23.5273 30.1437 29.3549 24.3608 32C23.1359 20.4301 21.1122 18.1608 19.4166 16.2673C19.3559 16.1995 19.268 16.1285 19.1767 16.0548C18.9674 15.8856 18.74 15.7019 18.7805 15.5085C19.9109 10.1992 27.7302 10.9726 27.7302 10.9726C27.7302 10.9726 28.4017 10.3281 25.5266 9.88148C25.0244 9.80345 24.4118 9.72531 23.7736 9.64391C22.5262 9.48478 21.1807 9.31316 20.3698 9.10538C19.5213 8.88809 18.7953 8.63008 18.1389 8.39676C16.223 7.71581 14.899 7.24523 12.8476 8.61158C11.4498 9.5421 11.0712 10.7861 10.6935 12.0269C10.4323 12.8849 10.1715 13.7415 9.57453 14.4918C6.34777 18.5475 5.15284 24.6311 4.97292 28.0323C2.26229 25.0559 0.609375 21.1 0.609375 16.7593C0.609375 7.50325 8.12063 0 17.3857 0Z" fill="#015597"/>
<path d="M99.1867 23.5884V15.9381C99.1867 14.3777 98.9259 12.8418 96.9986 12.8418C94.9931 12.8418 94.3943 14.6636 94.3943 16.3547V23.5884H90.8004V4.82849H94.3943V12.6857C95.1757 11.0736 96.6078 10.2666 98.4052 10.2666C101.478 10.2666 102.781 12.1402 102.781 15.1057V23.5884H99.1867Z" fill="#015597"/>
<path d="M82.3069 19.2428C82.3069 21.975 83.0357 23.874 86.0044 23.874C86.9949 23.874 88.0626 23.6924 89.0004 23.3802L88.8968 20.9865C88.4533 21.1689 87.9581 21.2724 87.4628 21.2724C86.187 21.2724 85.9008 20.3883 85.9008 19.2945V12.8941H88.8186V10.5268H85.9008V6.70166L82.3069 7.87262V10.5268H79.9625V12.8941H82.3069V19.2428Z" fill="#015597"/>
<path d="M39.7334 23.224C41.1382 23.6661 42.624 23.874 44.1088 23.874C46.7394 23.874 49.6827 22.7556 49.6827 19.7111C49.6827 17.0694 47.3589 16.2988 45.4712 15.6729C44.18 15.2447 43.0928 14.8842 43.0928 14.0388C43.0928 12.738 44.4722 12.4784 45.4627 12.4784C46.6086 12.4784 47.8853 12.738 48.9276 13.1546L49.0839 10.839C47.8589 10.4741 46.505 10.2399 45.2283 10.2399C42.833 10.2399 39.6807 11.203 39.6807 14.1432C39.6807 16.5115 41.735 17.2248 43.5497 17.8548C44.9851 18.3531 46.2705 18.7994 46.2705 19.9717C46.2705 21.2207 44.733 21.6364 43.6917 21.6364C42.3895 21.6364 41.0346 21.3242 39.8888 20.726L39.7334 23.224Z" fill="#015597"/>
<path fill-rule="evenodd" clip-rule="evenodd" d="M50.8308 17.0053C50.8308 21.1945 53.357 23.8741 57.6805 23.8741C61.9259 23.8741 64.5312 21.2208 64.5312 17.0053C64.5312 12.6864 61.9005 10.2673 57.6805 10.2673C53.6696 10.2673 50.8308 12.7381 50.8308 17.0053ZM54.6855 17.0053C54.6855 15.0283 55.4152 12.7118 57.6805 12.7118C60.025 12.7118 60.6765 15.002 60.6765 17.0053C60.6765 19.1911 59.9468 21.4286 57.6805 21.4286C55.4406 21.4286 54.6855 19.1648 54.6855 17.0053Z" fill="#015597"/>
<path d="M75.1587 23.5884L75.0805 21.4026C74.2218 23.041 72.6843 23.8734 70.8615 23.8734C67.7101 23.8734 66.4598 21.9481 66.4598 18.9563V10.5262H70.0537V18.1502C70.0537 19.7115 70.289 21.2719 72.2163 21.2719C74.2473 21.2719 74.8206 19.4247 74.8206 17.7072V10.5262H78.4145V20.6483C78.4145 21.6105 78.4409 22.6244 78.5454 23.5884H75.1587Z" fill="#015597"/>
<path fill-rule="evenodd" clip-rule="evenodd" d="M114.482 21.4804C115.134 23.0163 116.722 23.8741 118.363 23.8741C122.375 23.8741 123.859 20.5182 123.859 17.0062C123.859 13.5187 122.401 10.2673 118.442 10.2673C116.722 10.2673 114.978 11.1514 114.248 12.7381L114.17 10.5269H110.759C110.837 11.6198 110.889 12.7644 110.889 14.3257V29.2087H114.482V21.4804ZM114.379 17.0062C114.379 15.1844 114.951 12.7898 117.218 12.7898C119.562 12.7898 120.005 15.1318 120.005 17.0062C120.005 18.8788 119.536 21.3506 117.191 21.3506C114.951 21.3506 114.379 18.8008 114.379 17.0062Z" fill="#015597"/>
<path fill-rule="evenodd" clip-rule="evenodd" d="M131.962 23.8741C127.637 23.8741 125.111 21.1945 125.111 17.0053C125.111 12.7381 127.951 10.2673 131.962 10.2673C136.181 10.2673 138.811 12.6864 138.811 17.0053C138.811 21.2208 136.207 23.8741 131.962 23.8741ZM131.962 12.7118C129.695 12.7118 128.966 15.0283 128.966 17.0053C128.966 19.1648 129.722 21.4286 131.962 21.4286C134.227 21.4286 134.957 19.1911 134.957 17.0053C134.957 15.002 134.305 12.7118 131.962 12.7118Z" fill="#015597"/>
<path d="M144.388 23.5889H140.793V4.82898H144.388V23.5889Z" fill="#015597"/>
<path fill-rule="evenodd" clip-rule="evenodd" d="M149.935 17.967C149.961 20.2318 151.628 21.6361 153.842 21.6361C155.093 21.6361 156.681 21.3501 157.776 20.7519L157.931 23.1719C156.473 23.692 154.676 23.8736 153.114 23.8736C148.737 23.8736 146.367 21.3247 146.367 17.0057C146.367 13.128 148.972 10.2668 152.748 10.2668C156.942 10.2668 158.609 13.206 158.609 17.1619V17.967H149.935ZM152.775 12.4263C150.769 12.4263 149.935 14.5077 149.935 16.0417H155.327C155.327 14.4042 154.754 12.4263 152.775 12.4263Z" fill="#015597"/>
</svg>
