<svg width="55" height="61" viewBox="0.5 0 55 61" fill="none" xmlns="http://www.w3.org/2000/svg">
<g clip-path="url(#clip0)">
<g clip-path="url(#clip1)">
<path d="M29.6969 30.8953C29.5721 31.0085 29.2522 31.2874 29.0186 31.5032C28.9232 31.5919 28.8981 31.7216 28.9189 31.85C28.963 32.124 29.037 32.7172 29.1593 32.7301C29.2241 32.7368 29.2816 32.6176 29.333 32.5423C29.4681 32.3454 29.5336 32.2347 29.6687 32.0298C29.6975 31.9864 29.7158 31.9601 29.7329 31.9283C29.7446 31.9063 29.7452 31.8463 29.7415 31.7938C29.7384 31.7491 29.7244 31.2452 29.7274 30.9094C29.7268 30.8941 29.7085 30.8843 29.6969 30.8953Z" fill="#FFCE00"/>
<path d="M31.0869 29.199C31.0753 29.2173 31.0697 29.2381 31.0704 29.2595C31.0771 29.528 31.0869 29.7934 31.0991 30.057C31.1015 30.1109 31.1737 30.1268 31.1988 30.0797C31.5101 29.4938 32.3296 28.0724 32.4415 27.7648C32.5791 27.3856 32.5791 27.1153 32.4947 26.9667C32.4207 26.8377 31.9358 26.1643 31.6618 25.6732C31.6379 25.6298 31.5725 25.642 31.5639 25.6903C31.5346 25.8548 31.5076 26.02 31.4838 26.1845C31.4502 26.4487 31.4135 26.7459 31.3823 26.9967C31.3682 27.1367 31.3688 27.1019 31.3578 27.2413C31.3492 27.3471 31.3719 27.4529 31.4263 27.544C31.5168 27.6939 31.5315 27.6413 31.5859 27.8162C31.6061 27.8816 31.6104 27.952 31.5939 28.0186C31.4642 28.5366 31.2 29.0167 31.0869 29.199Z" fill="#FFCE00"/>
<path d="M29.8003 16.4142C29.618 16.7701 29.3159 17.1774 29.0487 17.5358C28.8248 17.8367 28.6634 18.2807 28.3894 18.5547C28.1606 18.7835 27.6952 19.0727 27.5197 19.1577C26.6207 19.5938 25.9754 19.9027 24.9926 20.2164C24.5095 20.3705 23.989 20.8537 23.564 21.1209C23.2215 21.3368 22.4778 21.8016 22.3322 22.4988C22.268 22.8046 22.1744 23.0456 22.0478 23.4853C21.9763 23.7342 21.6558 24.9574 21.6118 25.1764C21.5598 25.4326 21.432 25.5562 21.2497 25.7531C21.0931 25.9225 20.2198 26.5806 20.3183 27.1322C20.3281 27.1866 20.4021 27.2038 20.443 27.1371C20.4761 27.0833 20.4754 26.9218 20.5299 26.8766C20.5696 26.8435 20.64 26.8399 20.6467 27.0062C20.6516 27.1261 20.6767 27.2845 20.4834 27.5236C20.3476 27.6918 20.3537 27.9303 20.4485 27.8759C21.3677 27.3518 21.8056 25.4296 21.8582 25.2669C21.9854 24.8706 22.3114 23.3355 22.4827 22.9508C22.5769 22.7386 22.7817 22.3258 22.9964 22.2371C23.1664 22.1674 23.3059 22.267 23.216 22.4768C23.216 22.4768 23.0851 22.8279 23.0337 23.0181C22.9713 23.2499 22.9022 23.459 22.8472 23.6896C22.8056 23.8633 22.7885 24.0419 22.7872 24.2205L22.7836 24.7103C22.7823 24.8406 22.8025 24.9696 22.8044 25.0999C22.8172 26.0057 22.6374 26.6448 22.3977 27.5041C22.3041 27.8404 22.1377 28.1334 22.038 28.523C21.7151 29.7834 21.5323 30.8659 21.2613 32.138C21.1794 32.5233 21.013 33.2695 20.9366 33.6095C20.9146 33.7068 20.9769 33.8016 21.0748 33.8193L21.4992 33.8939C21.5904 33.9067 21.6925 33.9104 21.7769 33.9104C21.8754 33.9104 21.9524 33.8266 21.9445 33.7288C21.9359 33.6273 21.9004 33.2799 21.8949 33.1673C21.8931 33.1306 21.8907 33.0939 21.8907 33.0573C21.9072 31.5974 22.1995 30.4837 22.6233 29.1419C22.7432 28.7621 23.1444 28.5633 23.2789 28.1994C23.3603 27.9793 23.46 27.7854 23.526 27.5976C23.8392 26.7108 24.2801 25.9109 24.3651 25.7604C24.4972 25.5274 24.9382 25.3965 24.8171 25.7005C24.7572 25.8509 24.4373 26.7243 24.2856 27.175C24.2067 27.4099 24.2294 27.6105 24.2483 27.8582C24.293 28.4392 24.9498 31.6641 25.1944 32.8842C25.2446 33.1325 25.2379 33.4988 25.2935 33.7704C25.3125 33.8633 25.3969 33.93 25.4923 33.9263C25.6929 33.919 25.877 33.8957 26.1387 33.845C26.2592 33.8217 26.3253 33.6909 26.2708 33.5814C25.4929 32.0218 25.2256 28.745 25.1957 27.8392C25.1859 27.5481 25.3033 27.4404 25.4042 27.3053C25.6629 26.9591 26.1656 26.2515 26.4549 25.6993C26.565 25.4895 26.7216 25.2418 26.9876 25.2669C27.4439 25.3097 27.4879 25.3054 28.0151 25.273C28.3251 25.254 28.6517 25.0999 28.963 25.0748C29.3599 25.0418 29.5226 25.1947 29.5942 25.6375C29.8278 27.1157 29.6553 28.6153 29.9703 30.099C30.2345 31.346 29.6731 32.7655 30.6327 33.9398C30.6932 34.0138 30.7868 34.0505 30.8816 34.0444C31.0125 34.0358 31.1806 34.0187 31.3464 34.0003L31.35 33.9997C31.4803 33.9856 31.5537 33.8419 31.4877 33.7288C31.2363 33.2976 30.9225 32.8866 30.8883 32.4548C30.6596 29.4208 30.5947 26.3897 31.5983 23.4462C31.8393 22.7392 31.8142 21.6977 31.6571 21.0488C31.5115 20.4482 31.8167 19.6855 31.8405 19.4531C31.8754 19.1107 31.969 18.8018 31.9965 18.5229C32.0375 18.1083 32.9805 11.7949 33.046 11.4071C33.1389 10.8542 33.2735 10.8353 33.4955 10.5448C33.7175 10.2543 35.3315 8.94793 35.5315 8.60911C35.8103 8.13514 35.0923 8.2917 34.9841 8.32412C34.5444 8.45377 34.1456 8.6244 33.2301 8.65926C32.6436 8.68189 32.3286 9.42191 31.5207 9.19012C31.4351 9.16566 30.6486 9.09594 30.9898 9.68245C31.0143 9.72465 31.0583 9.75278 31.1054 9.76501C31.7054 9.91852 31.8619 10.1827 31.7867 10.5864C31.7103 10.99 30.9128 14.2437 29.8003 16.4142Z" fill="#FFCE00"/>
<path d="M34.3436 55.0853C32.3022 55.8455 30.1329 56.2559 27.8859 56.2559C22.2587 56.2559 17.122 53.6866 13.247 49.4746C13.1002 49.9253 12.7883 50.4501 12.1309 50.7767C16.3055 55.2437 21.8324 57.9677 27.8859 57.9677C31.3432 57.9677 34.628 57.0791 37.5881 55.4853C36.2487 55.481 35.1858 55.3299 34.3436 55.0853Z" fill="#FFCE00"/>
<path d="M6.55242 35.6022C6.23073 33.8163 6.0601 31.9644 6.0601 30.0649C6.0601 15.621 15.851 3.86942 27.8858 3.86942C39.9199 3.86942 49.7102 15.6204 49.7102 30.0649C49.7102 33.4267 49.1793 36.6425 48.213 39.5983C48.8607 39.6154 49.4368 39.6814 49.9463 39.7885C50.8991 36.7593 51.4214 33.483 51.4214 30.0649C51.4214 14.6768 40.863 2.1582 27.8851 2.1582C14.9067 2.1582 4.34766 14.6774 4.34766 30.0649C4.34766 31.9602 4.5085 33.812 4.81368 35.6022H6.55242Z" fill="#FFCE00"/>
<path d="M37.5518 42.7031C36.8608 42.7031 36.5391 43.8034 36.5391 45.4351C36.5391 47.0674 36.8608 48.167 37.5518 48.167C38.2429 48.167 38.5646 47.0674 38.5646 45.4351C38.5646 43.8034 38.2429 42.7031 37.5518 42.7031Z" fill="#000A56"/>
<path d="M53.8358 46.9702V44.4413C53.8358 43.1875 53.4633 41.3466 51.5154 40.3314C52.541 37.0814 53.1037 33.5636 53.1037 29.8904C53.1037 13.4082 41.8132 0.046875 27.8856 0.046875C13.9573 0.046875 2.66683 13.4082 2.66683 29.8904C2.66683 31.9099 2.83746 33.8816 3.16038 35.7886C2.65521 35.9677 2.15799 36.2876 1.82895 36.8001C1.39901 37.4722 1.11523 39.0043 1.11523 39.4556C1.11523 40.7308 2.20325 42.1074 3.96033 42.1074C4.28569 42.1074 4.57069 42.0542 4.82083 41.9723C4.9248 42.2493 5.03061 42.5246 5.1413 42.7967V46.8191C4.57559 47.287 4.28936 47.912 4.28936 48.6838C4.28936 49.0856 4.42391 51.0898 7.08125 51.0898H10.138C14.6949 56.432 20.9642 59.7327 27.8856 59.7327C34.7555 59.7327 40.9821 56.4803 45.5304 51.2078C45.7622 51.2348 46.0026 51.2507 46.2539 51.2507C47.0233 51.2507 47.7217 51.1259 48.3266 50.8868C48.7101 51.0653 49.1663 51.1552 49.6941 51.1552H52.0891C53.3251 51.1552 54.6559 50.4171 54.6559 48.797C54.6559 47.8435 54.1691 47.2723 53.8358 46.9702ZM27.8862 2.15746C40.864 2.15746 51.4224 14.6766 51.4224 30.0641C51.4224 33.4823 50.9001 36.7585 49.9473 39.7877C49.4372 39.6807 48.8617 39.6146 48.2141 39.5975C49.1797 36.6417 49.7112 33.426 49.7112 30.0641C49.7112 15.6203 39.921 3.86867 27.8868 3.86867C15.852 3.86867 6.06113 15.6197 6.06113 30.0641C6.06113 31.9637 6.23176 33.8156 6.55345 35.6014H4.81472C4.50953 33.8113 4.34869 31.9594 4.34869 30.0641C4.34808 14.6766 14.9071 2.15746 27.8862 2.15746ZM41.5227 43.2364C42.037 43.8395 42.2621 44.7085 42.2621 45.525C42.2621 46.8913 41.5869 48.0973 40.494 48.7181V48.7536C41.4744 48.9309 42.4548 49.4807 42.4548 50.7229C42.4548 52.3197 40.9759 53.7227 37.6489 53.7227C33.8393 53.7227 32.9391 52.4965 32.9391 51.521C32.9391 50.581 33.8901 50.3168 35.2081 50.3168C35.9793 50.3168 36.4111 50.4134 36.4111 50.7412C36.4111 50.954 36.3787 51.017 36.3787 51.1767C36.3787 51.5136 36.7964 51.9173 37.6 51.9173C38.6929 51.9173 39.2397 51.1485 39.2397 50.5455C39.2397 49.9779 38.8054 49.6764 38.3877 49.463C37.97 49.5162 37.5517 49.5871 37.134 49.5871C34.8998 49.5871 32.8425 48.2918 32.8425 45.5776C32.8425 42.4377 35.2533 41.3552 37.7449 41.3552C38.9987 41.3552 40.017 41.5191 41.2872 41.5191C41.6273 41.5191 42.4633 41.3228 42.6676 41.3228C43.6938 41.3234 42.519 43.2364 41.5227 43.2364ZM19.5075 47.1689C18.7601 48.8337 18.4421 49.4887 16.9535 49.4887C15.5389 49.4887 15.2178 49.4728 13.6741 44.2804C13.0473 42.1747 12.6773 42.7374 12.6773 42.1588C12.6773 41.6769 13.1592 41.516 13.8026 41.516H16.0758C16.8153 41.516 17.2036 41.6769 17.2036 42.1429C17.2036 42.8022 16.8201 42.5606 16.8201 43.0108C16.8201 43.7019 17.4794 46.306 18.0097 47.2705C18.3473 46.4827 18.5729 45.673 18.7552 44.6932C19.2151 42.2249 18.2824 42.8181 18.2824 42.127C18.2824 41.7093 18.4268 41.516 19.1821 41.516H20.9612C21.7972 41.516 22.1532 41.7087 22.1532 42.1429C22.1532 42.7056 21.7703 42.6249 21.7703 42.9306C21.7703 43.9917 22.7672 46.676 22.9599 47.2705C23.4259 46.2736 24.0528 44.377 24.0528 43.3166C24.0528 42.6414 23.4461 42.738 23.4461 42.1111C23.4461 41.6451 23.7029 41.516 24.2497 41.516H25.4649C26.1077 41.516 26.3676 41.7411 26.3676 42.1429C26.3676 42.7374 26.0985 42.4805 25.7768 43.4774C25.4392 44.5061 24.7224 46.7274 24.4656 47.3867C23.9671 48.6404 23.7476 49.4893 22.0798 49.4893C20.2144 49.4893 20.231 48.6789 19.5399 47.0943C19.5521 47.1188 19.5185 47.1439 19.5075 47.1689ZM31.1031 9.76619C31.056 9.75396 31.012 9.72583 30.9875 9.68363C30.6463 9.09773 31.4321 9.16684 31.5184 9.1913C32.3263 9.42309 32.6419 8.68308 33.2278 8.66045C34.1439 8.62559 34.5427 8.45557 34.9818 8.3253C35.09 8.2935 35.808 8.13693 35.5292 8.6103C35.3298 8.94912 33.7152 10.2555 33.4932 10.546C33.2712 10.8365 33.1366 10.8554 33.0437 11.4083C32.9782 11.796 32.0352 18.1094 31.9942 18.5241C31.9667 18.803 31.8737 19.1118 31.8382 19.4543C31.8144 19.6867 31.5092 20.4494 31.6548 21.0499C31.8119 21.6988 31.837 22.7398 31.5961 23.4474C30.5924 26.3909 30.6573 29.4219 30.886 32.456C30.9196 32.8884 31.234 33.2994 31.4854 33.73C31.5514 33.8431 31.478 33.9868 31.3477 34.0009L31.3441 34.0015C31.1783 34.0192 31.0102 34.0364 30.8793 34.0455C30.7845 34.0523 30.6903 34.015 30.6304 33.941C29.6708 32.7673 30.2322 31.3472 29.968 30.1002C29.653 28.6165 29.8255 27.1169 29.5919 25.6387C29.5203 25.1953 29.3576 25.043 28.9607 25.076C28.6494 25.1017 28.3228 25.2552 28.0128 25.2742C27.4856 25.3066 27.4416 25.3109 26.9853 25.2681C26.7193 25.243 26.5627 25.4907 26.4526 25.7004C26.1633 26.2527 25.6606 26.9603 25.4019 27.3065C25.301 27.4416 25.1836 27.5493 25.1934 27.8404C25.2233 28.7461 25.4906 32.023 26.2685 33.5826C26.3236 33.692 26.2569 33.8229 26.1364 33.8462C25.8747 33.8969 25.69 33.9202 25.49 33.9275C25.3946 33.9312 25.3102 33.8645 25.2912 33.7715C25.2356 33.5 25.2417 33.1337 25.1921 32.8854C24.9475 31.6652 24.2907 28.4403 24.246 27.8593C24.2271 27.6117 24.2044 27.4111 24.2833 27.1762C24.435 26.7255 24.7549 25.8521 24.8148 25.7017C24.9365 25.3977 24.4949 25.5292 24.3628 25.7616C24.2778 25.9121 23.8369 26.712 23.5237 27.5988C23.4577 27.7866 23.358 27.9804 23.2767 28.2006C23.1421 28.5645 22.7409 28.7633 22.621 29.1431C22.1972 30.4849 21.9049 31.5986 21.8884 33.0584C21.8877 33.0951 21.8908 33.1318 21.8926 33.1685C21.8981 33.281 21.9336 33.6284 21.9422 33.73C21.9501 33.8284 21.8731 33.9122 21.7746 33.9116C21.6902 33.9116 21.5881 33.9079 21.4969 33.8951L21.0725 33.8205C20.9746 33.8027 20.9123 33.7079 20.9343 33.6107C21.0107 33.2707 21.1771 32.5239 21.259 32.1392C21.5294 30.8671 21.7122 29.7846 22.0357 28.5241C22.1354 28.1346 22.3018 27.841 22.3954 27.5052C22.6351 26.646 22.8149 26.0068 22.8021 25.1011C22.8002 24.9708 22.7807 24.8418 22.7813 24.7115L22.7849 24.2216C22.7862 24.043 22.8039 23.8645 22.8449 23.6908C22.8999 23.4602 22.969 23.251 23.0314 23.0193C23.0828 22.8284 23.2137 22.478 23.2137 22.478C23.3036 22.2682 23.1635 22.1685 22.9941 22.2383C22.7794 22.3263 22.5746 22.7398 22.4804 22.952C22.3091 23.3367 21.9832 24.8717 21.8559 25.2681C21.804 25.4307 21.3661 27.353 20.4462 27.8771C20.3514 27.9309 20.3453 27.693 20.4811 27.5248C20.6744 27.2851 20.6493 27.1273 20.6444 27.0074C20.6377 26.8411 20.5679 26.8441 20.5276 26.8777C20.4731 26.923 20.4744 27.0845 20.4407 27.1383C20.3998 27.2049 20.3258 27.1878 20.316 27.1334C20.2175 26.5817 21.0908 25.9237 21.2474 25.7543C21.4297 25.5573 21.5569 25.4338 21.6095 25.1775C21.6541 24.9586 21.974 23.7354 22.0455 23.4865C22.1727 23.0462 22.2663 22.8058 22.3299 22.5C22.4755 21.8028 23.2192 21.338 23.5617 21.1221C23.9867 20.8542 24.5072 20.3717 24.9903 20.2176C25.9731 19.9038 26.6184 19.595 27.5174 19.1589C27.6929 19.0739 28.1583 18.7846 28.3871 18.5559C28.6611 18.2819 28.8225 17.8379 29.0464 17.537C29.313 17.1786 29.6151 16.7707 29.798 16.4154C30.9105 14.2448 31.708 10.9912 31.7832 10.5882C31.8596 10.1839 31.7037 9.9197 31.1031 9.76619ZM27.3474 42.5606C27.3474 42.1362 27.5914 41.8304 28.2281 41.7656C29.028 41.6836 30.497 41.2922 30.8236 41.2922C31.3135 41.2922 31.6401 41.6188 31.6401 42.7943V47.4961C31.6401 48.3615 32.2602 48.1004 32.2602 48.7529C32.2602 49.0306 31.9661 49.3896 31.4114 49.3896H28.277C27.7217 49.3896 27.4281 49.0306 27.4281 48.7529C27.4281 48.0998 28.0482 48.3609 28.0482 47.4961V43.8382C28.0489 42.9239 27.3474 43.3117 27.3474 42.5606ZM29.7405 31.7955C29.7442 31.8481 29.7442 31.908 29.7319 31.9301C29.7148 31.9619 29.6959 31.9882 29.6677 32.0316C29.5326 32.2365 29.4671 32.3472 29.332 32.5441C29.2806 32.6193 29.2231 32.7386 29.1583 32.7318C29.036 32.719 28.962 32.1258 28.9179 31.8518C28.8971 31.7233 28.9222 31.5931 29.0176 31.505C29.2512 31.2885 29.5711 31.0102 29.6959 30.8971C29.7081 30.8861 29.7264 30.8953 29.7264 30.9118C29.7234 31.2469 29.7374 31.7509 29.7405 31.7955ZM29.5852 37.1518C30.7258 37.1518 31.6499 37.8771 31.6499 38.7719C31.6499 39.6666 30.7252 40.392 29.5852 40.392C28.4446 40.392 27.5204 39.6666 27.5204 38.7719C27.5204 37.8771 28.4446 37.1518 29.5852 37.1518ZM31.585 27.8165C31.5312 27.6416 31.5159 27.6942 31.4254 27.5444C31.371 27.4532 31.3484 27.3474 31.3569 27.2416C31.3679 27.1022 31.3673 27.1371 31.3814 26.997C31.4126 26.7463 31.4499 26.449 31.4829 26.1848C31.5068 26.0203 31.5337 25.8558 31.563 25.6907C31.5716 25.6417 31.637 25.6301 31.6609 25.6735C31.9349 26.1646 32.4199 26.8374 32.4939 26.967C32.5789 27.1157 32.5789 27.386 32.4407 27.7652C32.3287 28.0728 31.5092 29.4941 31.1979 30.08C31.1728 30.1277 31.1007 30.1112 31.0982 30.0574C31.086 29.7944 31.0762 29.5284 31.0695 29.2599C31.0689 29.2385 31.0744 29.2177 31.086 29.1993C31.1991 29.0177 31.4633 28.5376 31.5924 28.019C31.6101 27.9523 31.6058 27.882 31.585 27.8165ZM7.08125 49.3278C6.26173 49.3278 6.05257 49.0869 6.05257 48.6851C6.05257 47.849 6.9045 48.2349 6.9045 47.3671V39.962C6.9045 39.4159 6.76017 39.2709 6.32594 39.2709C4.83123 39.2709 4.9089 40.3449 3.96033 40.3449C3.4784 40.3449 2.87844 40.0024 2.87844 39.4562C2.87844 39.1669 3.15181 37.9945 3.31266 37.7536C3.457 37.5285 3.8741 37.3652 4.21169 37.3652H13.4564C13.794 37.3652 14.2105 37.5285 14.3555 37.7536C14.5163 37.9945 14.7897 39.1669 14.7897 39.4562C14.7897 40.0024 14.1897 40.3449 13.7078 40.3449C12.7592 40.3449 12.8375 39.2709 11.3422 39.2709C10.9079 39.2709 10.7636 39.4159 10.7636 39.962V47.3671C10.7636 48.2355 11.6155 47.8496 11.6155 48.6851C11.6155 49.0869 11.4064 49.3278 10.5869 49.3278H7.08125ZM12.1311 50.7767C12.7886 50.4501 13.1005 49.9254 13.2473 49.4746C17.1217 53.6866 22.2584 56.2559 27.8862 56.2559C30.1331 56.2559 32.3024 55.8455 34.3439 55.0853C35.1861 55.3299 36.2496 55.4804 37.5884 55.4847C34.6283 57.0785 31.3435 57.9671 27.8862 57.9671C21.8327 57.9677 16.3058 55.2437 12.1311 50.7767ZM52.0884 49.3933H49.6935C48.97 49.3933 48.7773 49.2153 48.6489 48.4918C48.1346 49.2795 47.1218 49.4887 46.2539 49.4887C44.2125 49.4887 43.2804 48.1707 43.2804 46.9488C43.2804 45.2773 44.695 44.1844 48.4562 44.1844C48.4238 42.9306 48.2055 42.6414 47.5462 42.6414C46.6301 42.6414 46.2448 43.5979 45.2895 43.5979C44.2143 43.5979 43.9391 43.445 43.9391 42.8982C43.9391 41.9656 45.1445 41.3552 47.8771 41.3552C50.0953 41.3552 52.0726 41.902 52.0726 44.4413V47.2705C52.0726 48.2673 52.8921 48.0753 52.8921 48.7988C52.8921 49.2324 52.6034 49.3933 52.0884 49.3933Z" fill="#000A56"/>
<path d="M47.5234 47.8805C48.2952 47.8805 48.5362 46.7552 48.5362 45.373C47.5393 45.373 46.8164 45.9357 46.8164 46.9644C46.8164 47.527 47.1057 47.8805 47.5234 47.8805Z" fill="#000A56"/>
<path d="M27.4284 48.7517C27.4284 49.0294 27.7226 49.3884 28.2773 49.3884H31.4116C31.9664 49.3884 32.2605 49.0294 32.2605 48.7517C32.2605 48.0986 31.6404 48.3597 31.6404 47.4949V42.7931C31.6404 41.6176 31.3138 41.291 30.8239 41.291C30.4973 41.291 29.0283 41.683 28.2283 41.7644C27.5917 41.8298 27.3477 42.135 27.3477 42.5594C27.3477 43.3105 28.0491 42.9233 28.0491 43.837V47.4937C28.0485 48.3597 27.4284 48.0986 27.4284 48.7517Z" fill="white"/>
<path d="M29.5842 40.3913C30.7246 40.3913 31.649 39.6662 31.649 38.7718C31.649 37.8774 30.7246 37.1523 29.5842 37.1523C28.4439 37.1523 27.5195 37.8774 27.5195 38.7718C27.5195 39.6662 28.4439 40.3913 29.5842 40.3913Z" fill="white"/>
<path d="M22.0802 49.4889C23.748 49.4889 23.9676 48.64 24.466 47.3862C24.7229 46.7269 25.4397 44.5057 25.7773 43.477C26.099 42.4801 26.3681 42.7376 26.3681 42.1425C26.3681 41.7407 26.1082 41.5156 25.4654 41.5156H24.2502C23.7034 41.5156 23.4465 41.6441 23.4465 42.1107C23.4465 42.7376 24.0532 42.6409 24.0532 43.3161C24.0532 44.3772 23.4264 46.2738 22.9603 47.27C22.7677 46.675 21.7708 43.9907 21.7708 42.9302C21.7708 42.625 22.1536 42.7052 22.1536 42.1425C22.1536 41.7083 21.7977 41.5156 20.9617 41.5156H19.1826C18.4272 41.5156 18.2829 41.7083 18.2829 42.1266C18.2829 42.8177 19.2156 42.2245 18.7557 44.6928C18.5734 45.6726 18.3471 46.4823 18.0101 47.27C17.4799 46.3056 16.8206 43.7014 16.8206 43.0103C16.8206 42.5602 17.2041 42.8012 17.2041 42.1425C17.2041 41.6765 16.8157 41.5156 16.0763 41.5156H13.8031C13.1603 41.5156 12.6777 41.6765 12.6777 42.1584C12.6777 42.737 13.0477 42.1743 13.6746 44.28C15.2176 49.4717 15.5393 49.4883 16.9539 49.4883C18.4425 49.4883 18.7612 48.8326 19.5079 47.1685C19.5189 47.1434 19.5526 47.119 19.5416 47.0933C20.2314 48.6785 20.2149 49.4889 22.0802 49.4889Z" fill="white"/>
<path d="M42.6669 41.3242C42.4627 41.3242 41.6266 41.5205 41.2866 41.5205C40.0163 41.5205 38.998 41.3566 37.7443 41.3566C35.2527 41.3566 32.8418 42.4385 32.8418 45.579C32.8418 48.2932 34.8992 49.5886 37.1333 49.5886C37.551 49.5886 37.9693 49.5176 38.387 49.4644C38.8048 49.6773 39.239 49.9788 39.239 50.5469C39.239 51.15 38.6928 51.9187 37.5993 51.9187C36.7957 51.9187 36.378 51.5151 36.378 51.1781C36.378 51.0185 36.4104 50.9555 36.4104 50.7426C36.4104 50.4148 35.9792 50.3182 35.2074 50.3182C33.8894 50.3182 32.9384 50.5824 32.9384 51.5224C32.9384 52.4979 33.8387 53.7241 37.6483 53.7241C40.9753 53.7241 42.4541 52.3205 42.4541 50.7243C42.4541 49.4828 41.4737 48.933 40.4933 48.755V48.7195C41.5863 48.0988 42.2614 46.8921 42.2614 45.5264C42.2614 44.7106 42.0364 43.8409 41.522 43.2379C42.5183 43.2373 43.6932 41.3242 42.6669 41.3242ZM37.5516 48.1685C36.8605 48.1685 36.5388 47.0688 36.5388 45.4365C36.5388 43.8042 36.8605 42.7046 37.5516 42.7046C38.2427 42.7046 38.5644 43.8048 38.5644 45.4365C38.5644 47.0688 38.2427 48.1685 37.5516 48.1685Z" fill="white"/>
<path d="M52.0734 47.2707V44.4415C52.0734 41.9022 50.0961 41.3555 47.8779 41.3555C45.1454 41.3555 43.9399 41.9664 43.9399 42.8985C43.9399 43.4446 44.2145 43.5982 45.2903 43.5982C46.2456 43.5982 46.6309 42.6416 47.5471 42.6416C48.2057 42.6416 48.4247 42.9309 48.4571 44.1847C44.6958 44.1847 43.2812 45.2776 43.2812 46.949C43.2812 48.171 44.2133 49.4889 46.2548 49.4889C47.1226 49.4889 48.1354 49.2798 48.6497 48.4921C48.7782 49.2156 48.9708 49.3935 49.6943 49.3935H52.0893C52.6036 49.3935 52.8929 49.2327 52.8929 48.7991C52.8929 48.0756 52.0734 48.267 52.0734 47.2707ZM48.5372 45.3736C48.5372 46.7558 48.2962 47.8811 47.5244 47.8811C47.1067 47.8811 46.8174 47.5276 46.8174 46.9649C46.8174 45.9362 47.5403 45.3736 48.5372 45.3736Z" fill="white"/>
<path d="M11.6128 48.6851C11.6128 47.849 10.7609 48.2349 10.7609 47.3671V39.962C10.7609 39.4159 10.9059 39.2709 11.3395 39.2709C12.8342 39.2709 12.7565 40.3449 13.7051 40.3449C14.187 40.3449 14.787 40.0024 14.787 39.4562C14.787 39.167 14.5136 37.9946 14.3527 37.7536C14.2078 37.5285 13.7913 37.3652 13.4537 37.3652H4.21021C3.87261 37.3652 3.45612 37.5285 3.31118 37.7536C3.15033 37.9946 2.87695 39.167 2.87695 39.4562C2.87695 40.0024 3.47692 40.3449 3.95885 40.3449C4.90742 40.3449 4.82913 39.2709 6.32446 39.2709C6.75869 39.2709 6.90302 39.4159 6.90302 39.962V47.3671C6.90302 48.2356 6.05108 47.8497 6.05108 48.6851C6.05108 49.0869 6.26025 49.3278 7.07977 49.3278H10.5842C11.4043 49.3278 11.6128 49.0869 11.6128 48.6851Z" fill="white"/>
</g>
</g>
<defs>
<clipPath id="clip0">
<rect width="54" height="60" fill="white" transform="translate(0.732422 0.0214844)"/>
</clipPath>
<clipPath id="clip1">
<rect width="53.77" height="59.7813" fill="white" transform="translate(1)"/>
</clipPath>
</defs>
</svg>
