<svg width="225" height="55" viewBox="0 0 225 55" fill="none" xmlns="http://www.w3.org/2000/svg">
<path d="M65.1336 41.195C66.5677 41.3766 67.0457 42.0458 67.0457 42.7055C67.0457 43.7762 66.147 44.5315 62.8105 44.5315C61.5807 44.5908 60.3502 44.4289 59.1776 44.0535C58.8465 43.9342 58.5599 43.7163 58.3565 43.4291C58.1531 43.1419 58.0426 42.7993 58.04 42.4474H45.1815C45.1815 49.0534 54.1872 49.9999 62.3899 49.9999C74.3975 49.9999 79.7703 47.4187 79.7703 41.9502C79.7703 38.1261 76.4338 36.0611 71.061 35.4015L58.3172 33.8336C57.256 33.7093 56.9119 33.2982 56.9119 32.6673C56.9119 31.7113 58.0113 31.0612 61.1948 31.0612C62.3222 31.0313 63.4466 31.1896 64.5218 31.5296C65.4778 31.8451 66.1566 32.4187 66.1566 33.3269H78.5848C78.2024 28.5468 73.2502 25.9656 61.214 25.9656C52.4281 25.9656 45.583 27.543 45.583 33.3556C45.583 36.5009 47.7341 39.0248 52.9635 39.6845L65.1336 41.195Z" fill="#244C91"/>
<path d="M106.663 49.2924H119.722L122.371 44.063H132.466L135.124 49.2924H148.183L134.952 26.7303H119.895L106.663 49.2924ZM130.86 40.5639H124.015L127.38 33.5563H127.466L130.86 40.5639Z" fill="#244C91"/>
<path d="M4.72852e-06 14.6845C4.72852e-06 12.7691 0.567989 10.8967 1.63213 9.30407C2.69628 7.71147 4.20879 6.47019 5.97839 5.73719C7.748 5.0042 9.69522 4.81241 11.5738 5.18609C13.4524 5.55977 15.178 6.48212 16.5324 7.83652C17.8868 9.19092 18.8092 10.9165 19.1829 12.7951C19.5566 14.6737 19.3648 16.621 18.6318 18.3906C17.8988 20.1602 16.6575 21.6727 15.0649 22.7368C13.4723 23.801 11.5999 24.369 9.68448 24.369C8.41234 24.3702 7.15245 24.1206 5.97691 23.6343C4.80136 23.1481 3.73325 22.4348 2.83372 21.5352C1.93418 20.6357 1.22088 19.5676 0.73463 18.3921C0.248385 17.2165 -0.00125295 15.9566 4.72852e-06 14.6845Z" fill="#244C91"/>
<path d="M16.5105 49.2921H19.13V34.6937L28.6424 49.2921H41.3288V26.797H27.868V40.7262L18.3747 26.797H16.5105V49.2921Z" fill="#244C91"/>
<path d="M13.9674 26.7687H5.14331V49.3021H13.9674V26.7687Z" fill="#244C91"/>
<path d="M89.0436 49.2924H102.533V30.2485H114.053V26.7495H77.6191V30.2485L89.0436 30.239V49.2924Z" fill="#244C91"/>
</svg>
