<svg width="122" height="28" viewBox="0 0 122 28" fill="none" xmlns="http://www.w3.org/2000/svg">
<path d="M4.71743 0.757812C2.42427 0.757812 0.458984 5.77915 0.458984 14.0226C0.458984 22.2661 2.4246 27.2875 4.71743 27.2875C5.22163 27.2875 5.6583 26.9608 5.8531 26.4958L10.4374 15.5565C10.6275 15.1025 11.2685 15.0966 11.4672 15.547L14.4907 22.8742C14.7079 23.3671 15.2965 23.5757 15.7635 23.3073C19.5206 21.0889 23.7011 17.5167 25.6802 15.3556C26.4281 14.619 26.4283 13.4255 25.6813 12.6885C23.5579 10.4883 19.7952 7.12089 15.669 4.82786C10.5402 1.97762 7.01032 0.757812 4.71743 0.757812Z" fill="#5B35D5"/>
<path d="M73.2441 7.44808C73.2441 7.0971 73.5287 6.8125 73.8795 6.8125H82.9261C83.277 6.8125 83.5615 7.0971 83.5615 7.44808V8.33928C83.5615 8.69034 83.277 8.97487 82.9261 8.97487H79.5184C79.468 8.97487 79.4275 9.01559 79.4275 9.06567V20.6584C79.4275 21.0095 79.143 21.2941 78.7922 21.2941H77.9008C77.5499 21.2941 77.2654 21.0095 77.2654 20.6584V9.06567C77.2654 9.01559 77.2249 8.97487 77.1745 8.97487H73.8795C73.5287 8.97487 73.2441 8.69034 73.2441 8.33928V7.44808Z" fill="#322B5F"/>
<path fill-rule="evenodd" clip-rule="evenodd" d="M35.2461 7.44808C35.2461 7.0971 35.5306 6.8125 35.8818 6.8125H41.2654C42.4502 6.8125 43.388 7.21582 44.0179 8.02126C44.6358 8.81125 44.917 9.67645 44.917 11.0458L44.9162 11.2195C44.9155 11.2942 44.9145 11.3737 44.913 11.4399C44.8954 12.2226 44.8209 12.6846 44.6793 13.1943C44.5359 13.7538 44.3462 14.2157 44.0951 14.5555C43.8584 14.8809 43.5492 15.1366 43.1754 15.3234L43.1703 15.3259L43.1652 15.3283C42.8201 15.4876 42.498 15.5953 42.2024 15.6396C41.9294 15.6805 41.6161 15.6999 41.2654 15.6999H37.4938C37.4839 15.6988 37.4742 15.6997 37.4653 15.7021C37.4595 15.7037 37.4538 15.7058 37.4488 15.7086C37.4406 15.7131 37.4333 15.7189 37.4272 15.7259C37.4154 15.7393 37.4083 15.7568 37.4083 15.7761V20.6584C37.4083 21.0095 37.1238 21.2941 36.7729 21.2941H35.8818C35.759 21.2941 35.6443 21.2593 35.5472 21.199C35.3664 21.0869 35.2461 20.8866 35.2461 20.6584V7.44808ZM42.1608 9.24162L42.1569 9.23884C41.9632 9.10214 41.8195 9.03681 41.7209 9.01413L41.7081 9.01108L41.6957 9.0073C41.5767 8.97069 41.4203 8.94827 41.2201 8.94827H37.4994C37.449 8.94827 37.4083 8.98886 37.4083 9.03907V13.4922C37.4083 13.5423 37.449 13.583 37.4994 13.583H41.2201C41.744 13.583 42.099 13.4279 42.3401 13.1589C42.4209 13.0687 42.5193 12.8578 42.5971 12.4889C42.6381 12.2944 42.6704 12.0705 42.6935 11.8222C42.7042 11.7078 42.7131 11.8484 42.7197 11.7239C42.725 11.6262 42.7289 11.5257 42.7316 11.4223C42.7344 11.3168 42.736 11.1779 42.736 11.0498C42.7235 10.4846 42.6554 10.1682 42.5478 9.84623C42.4367 9.51282 42.2983 9.33328 42.1648 9.24428L42.1608 9.24162Z" fill="#322B5F"/>
<path d="M59.8535 7.45395C59.8535 7.10289 60.138 6.81836 60.489 6.81836H61.4974C61.587 6.81836 61.6732 6.83693 61.7521 6.87149C61.8045 6.89437 61.8536 6.92428 61.898 6.96036C61.9484 7.00095 61.9929 7.04937 62.0287 7.10468L68.3978 16.7864C68.4475 16.8617 68.5649 16.8266 68.5649 16.7365V7.45395C68.5649 7.10289 68.8495 6.81836 69.2003 6.81836H70.0917C70.4426 6.81836 70.7271 7.10289 70.7271 7.45395V20.6643C70.7271 21.0153 70.4426 21.3 70.0917 21.3H69.1201C68.9582 21.3 68.805 21.2387 68.6896 21.1317L68.6783 21.1217C68.6452 21.0895 68.6153 21.0537 68.5895 21.0143L62.2011 11.3285C62.1786 11.2944 62.1421 11.283 62.1096 11.2891C62.1016 11.2905 62.095 11.2927 62.0877 11.2958C62.0791 11.2998 62.0711 11.3051 62.0638 11.3117C62.0459 11.3273 62.0347 11.3502 62.0347 11.3784V20.6643C62.0347 20.8378 61.965 20.995 61.8523 21.1096C61.7369 21.2271 61.5764 21.3 61.3986 21.3H60.489C60.138 21.3 59.8535 21.0153 59.8535 20.6643V7.45395Z" fill="#322B5F"/>
<path d="M93.972 15.8083C94.0204 15.8108 94.0582 15.8508 94.0582 15.8991V20.6584C94.0582 20.7924 94.0993 20.9167 94.1703 21.0192C94.285 21.1853 94.4767 21.2941 94.6936 21.2941H95.585C95.9358 21.2941 96.2204 21.0095 96.2204 20.6584V7.44808C96.2204 7.25813 96.1375 7.08768 96.0055 6.97121C95.9823 6.95138 95.9584 6.93308 95.9332 6.9165C95.8967 6.89196 95.8563 6.87126 95.8138 6.85501C95.78 6.84175 95.7435 6.83134 95.707 6.82424C95.6672 6.81661 95.6268 6.8125 95.585 6.8125H94.6936C94.3427 6.8125 94.0582 7.0971 94.0582 7.44808V13.5198C94.0582 13.5699 94.0178 13.6106 93.9674 13.6106H88.2986C88.2482 13.6106 88.2078 13.5699 88.2078 13.5198V7.44808C88.2078 7.31716 88.168 7.19546 88.1003 7.09438C87.9862 6.92439 87.7919 6.8125 87.5717 6.8125H86.681C86.4926 6.8125 86.3235 6.89428 86.2074 7.02421C86.1066 7.13676 86.0449 7.28526 86.0449 7.44808V20.6584C86.0449 21.0095 86.3295 21.2941 86.681 21.2941H87.5717C87.9232 21.2941 88.2078 21.0095 88.2078 20.6584V15.8991C88.2078 15.847 88.2509 15.8057 88.3033 15.8083H93.972Z" fill="#322B5F"/>
<path d="M101.91 6.83008C100.594 6.83008 99.5273 7.89677 99.5273 9.21264V18.9123C99.5273 20.2282 100.594 21.2949 101.91 21.2949H107.899C108.258 21.2949 108.55 21.0034 108.55 20.6439V19.7846C108.55 19.425 108.258 19.1336 107.899 19.1336H101.91C101.858 19.1336 101.811 19.116 101.773 19.0863C101.743 19.0632 101.72 19.0327 101.705 18.9977C101.7 18.9858 101.697 18.9733 101.693 18.9604C101.69 18.9449 101.688 18.9288 101.688 18.9123V15.9893C101.688 15.8815 101.776 15.7941 101.884 15.7941H106.727C106.852 15.7941 106.968 15.759 107.067 15.6982C107.165 15.6385 107.245 15.5541 107.299 15.4537C107.35 15.3614 107.378 15.2556 107.378 15.1431V14.2838C107.378 13.9242 107.086 13.6328 106.727 13.6328H101.884C101.776 13.6328 101.688 13.5453 101.688 13.4376V9.21264C101.688 9.09041 101.788 8.99125 101.91 8.99125H107.899C108.258 8.99125 108.55 8.69982 108.55 8.34028V7.48105C108.55 7.12144 108.258 6.83008 107.899 6.83008H101.91Z" fill="#322B5F"/>
<path fill-rule="evenodd" clip-rule="evenodd" d="M50.6138 7.22698L45.485 20.4524C45.3235 20.8689 45.631 21.3179 46.0777 21.3179H47.1338C47.2572 21.3179 47.3744 21.2821 47.474 21.2191C47.591 21.145 47.6834 21.0331 47.7322 20.8968L48.7076 18.2636H54.4391L55.429 20.8988C55.52 21.1503 55.7591 21.3179 56.0266 21.3179H57.027C57.474 21.3179 57.7812 20.8688 57.6194 20.4523L52.4864 7.22698C52.3302 6.82711 51.9811 6.72656 51.5518 6.72656C51.1226 6.72656 50.7699 6.82711 50.6138 7.22698ZM51.6383 10.8089L53.6602 16.1909H49.4756L51.4695 10.8093C51.4776 10.7885 51.4916 10.7733 51.5081 10.7638C51.5223 10.7556 51.5386 10.7514 51.5546 10.7516C51.589 10.7518 51.6233 10.7709 51.6383 10.8089Z" fill="#322B5F"/>
<path fill-rule="evenodd" clip-rule="evenodd" d="M111.742 7.44808C111.742 7.0971 112.027 6.8125 112.378 6.8125H117.761C118.946 6.8125 119.884 7.21582 120.514 8.02126C121.132 8.81125 121.413 9.54625 121.413 10.9156L121.412 11.1281L121.41 11.2254L121.409 11.3097C121.391 12.0924 121.317 12.6847 121.175 13.1945C121.097 13.4984 121.006 13.7736 120.898 14.016C120.807 14.2197 120.706 14.4005 120.591 14.5555C120.575 14.5788 120.557 14.6017 120.539 14.6242C120.514 14.6561 120.488 14.6872 120.462 14.7177C120.411 14.7769 120.356 14.8334 120.299 14.8871C120.26 14.9246 120.22 14.9609 120.177 14.9958C120.025 15.122 119.856 15.231 119.671 15.3234L119.666 15.3259L119.661 15.3283C119.538 15.3853 119.419 15.4363 119.302 15.4795C119.238 15.504 119.176 15.5266 119.114 15.547C119.025 15.5764 118.938 15.6015 118.853 15.6219C118.796 15.6359 118.764 15.6993 118.79 15.753L121.424 20.3606C121.632 20.7929 121.317 21.2941 120.837 21.2941H119.919C119.67 21.2941 119.443 21.1519 119.334 20.9277L116.429 16.0607C116.329 15.8519 116.121 15.7161 115.889 15.6999H113.99C113.944 15.6949 113.904 15.7304 113.904 15.7761V20.6585C113.904 20.8834 113.788 21.0812 113.611 21.194C113.512 21.2574 113.395 21.2941 113.269 21.2941H112.378C112.027 21.2941 111.742 21.0096 111.742 20.6585V7.44808ZM118.656 9.24162L118.652 9.23884C118.565 9.17676 118.487 9.12947 118.42 9.09412C118.374 9.07051 118.333 9.0522 118.296 9.03847C118.267 9.02766 118.241 9.01964 118.217 9.01413L118.204 9.01121L118.192 9.00743C118.164 8.99901 118.135 8.99138 118.104 8.98455L118.088 8.98124L118.038 8.97195C117.978 8.96207 117.912 8.9549 117.839 8.95126L117.774 8.94894L117.716 8.94827H113.995C113.945 8.94827 113.904 8.98886 113.904 9.03907V13.4922C113.904 13.5424 113.945 13.583 113.995 13.583H117.716C118.24 13.583 118.595 13.4279 118.836 13.1589C118.916 13.0687 119.015 12.8578 119.093 12.4889C119.106 12.4279 119.118 12.364 119.129 12.2976C119.152 12.1592 119.172 12.0091 119.187 11.8485C119.198 11.7349 119.207 11.6161 119.214 11.4923C119.22 11.3857 119.224 11.4056 119.228 11.2921L119.23 11.2035L119.231 11.0838L119.232 10.9196C119.22 10.3544 119.151 10.1682 119.044 9.84623C118.932 9.51282 118.794 9.33328 118.66 9.24428L118.656 9.24162Z" fill="#322B5F"/>
</svg>
