<svg width="105" height="45" viewBox="0 0 105 45" fill="none" xmlns="http://www.w3.org/2000/svg">
<mask id="mask0_7817_14994" style="mask-type:alpha" maskUnits="userSpaceOnUse" x="0" y="0" width="105" height="45">
<path d="M0.0443115 44.6387V0.759033H104.802V44.6387H0.0443115Z" fill="white"/>
</mask>
<g mask="url(#mask0_7817_14994)">
<path fill-rule="evenodd" clip-rule="evenodd" d="M104.802 37.9867C104.802 41.6698 101.789 44.683 98.107 44.683H6.6956C3.01394 44.683 0 41.6698 0 37.9867V7.45463C0 3.77224 3.01394 0.759033 6.6956 0.759033H98.107C101.789 0.759033 104.802 3.77224 104.802 7.45463V37.9867Z" fill="#DC0000"/>
<path fill-rule="evenodd" clip-rule="evenodd" d="M94.0445 29.396C93.9158 29.5527 93.7236 29.742 93.6208 29.8559C92.8658 30.6789 91.96 31.371 90.9292 31.8849C90.6689 32.0158 90.4035 32.1341 90.1343 32.2398C91.2612 31.6091 92.2432 30.7891 93.0477 29.8219C92.6506 29.7117 92.2218 29.4426 91.787 29.0913C91.0764 28.5175 90.5765 27.9016 90.666 27.3189C90.7843 27.1961 90.8974 27.0697 91.0054 26.9366C93.0692 24.39 92.7948 20.7032 90.4641 18.4797C91.0416 18.5588 91.648 18.0597 92.2173 17.3557C92.7645 16.6814 93.1239 16.0114 92.9782 15.4731C96.9401 19.0653 97.4525 25.1901 94.0445 29.396ZM86.1473 17.4422C87.4154 17.4422 88.6569 17.8829 89.6433 18.6815C92.0251 20.61 92.3933 24.1171 90.4626 26.4966C89.4023 27.8054 87.8265 28.556 86.1414 28.556C84.8718 28.556 83.6302 28.116 82.6438 27.3159C81.4896 26.3828 80.7686 25.0555 80.6141 23.5781C80.4588 22.1022 80.8892 20.6543 81.8245 19.5016C82.8849 18.1928 84.4606 17.4422 86.1473 17.4422ZM78.242 16.6015C78.3802 16.4314 78.523 16.2695 78.6694 16.1098C79.1936 16.0181 79.8318 16.3641 80.4714 16.8847C80.9786 17.2929 81.3742 17.7232 81.5302 18.1484C82.1455 17.6611 82.8516 17.2847 83.6302 17.0599C83.9127 16.9779 84.2003 16.9165 84.4895 16.8766C83.3382 17.2515 82.3259 17.914 81.5258 18.7843C81.4533 18.862 81.3816 18.9418 81.3121 19.0254C81.2862 19.0579 81.2611 19.0912 81.2367 19.1222C80.2155 20.4103 79.7467 22.0142 79.9198 23.652C80.0772 25.1664 80.7716 26.538 81.8756 27.5666C81.264 27.3988 80.6119 27.9149 80.0033 28.6669C79.4924 29.2961 79.1485 29.9247 79.2254 30.443C75.3404 26.8412 74.859 20.7764 78.242 16.6015ZM77.6512 16.1223C73.8571 20.803 74.5803 27.6953 79.2624 31.4871C81.2034 33.0591 83.6443 33.9243 86.1369 33.9243C89.4533 33.9243 92.5508 32.4491 94.6345 29.8759C98.4286 25.1952 97.7069 18.3022 93.0248 14.5104C91.0838 12.9383 88.6429 12.0739 86.1488 12.0739C82.8339 12.0739 79.7364 13.5484 77.6512 16.1223ZM54.0653 24.0151H53.9774C52.2426 24.0151 51.4344 23.184 51.4344 21.3923C51.4344 19.628 52.2633 18.7695 53.9774 18.7695H54.0816C55.7594 18.7895 56.5787 19.6509 56.5787 21.3923C56.5787 23.1633 55.7823 23.9936 54.0653 24.0151ZM54.0883 16.5527C50.5042 16.5527 47.2544 17.7254 47.2544 21.7554C47.2544 23.6639 48.3539 24.9645 49.8861 25.684C49.8861 25.684 49.9252 25.7025 49.9814 25.7276L49.5711 26.019C48.4604 26.7687 47.2662 27.8343 47.2662 29.3265C47.2662 30.4615 48.0892 31.158 49.0165 31.4952C50.2499 31.9825 51.7953 31.9285 52.9044 31.9574C53.4745 31.9825 55.4089 31.7636 56.3081 32.0942C56.6105 32.228 56.8774 32.5304 56.8774 32.8883C56.8774 33.579 55.7986 35.4653 55.7986 35.4653H59.8744L60.0674 35.0401L60.7048 33.6204C60.9125 33.1146 60.9902 32.7671 60.9902 32.2798V32.2421C60.8534 28.7371 56.7318 28.763 55.9472 28.7105L53.2394 28.6366C53.2394 28.6366 51.7738 28.7105 51.7738 27.7648C51.7738 27.1481 52.392 26.6357 53.0634 26.2127C53.0634 26.2127 53.9958 26.2926 54.7456 26.2926C58.1744 26.2926 60.7291 24.8381 60.7291 21.7554C60.7291 20.5412 60.0821 19.4217 59.8411 18.9943L61.7747 19.0919V16.7612H57.0534C57.0534 16.7612 55.7942 16.5527 54.0883 16.5527ZM38.9905 25.2115C38.8929 24.9076 36.3825 17.4799 36.1414 16.7612H31.2715C31.8335 17.9961 36.8069 28.9065 36.8431 28.9974L34.088 34.589L38.5889 34.5912L46.7331 16.7612H41.8388L38.9905 25.2115ZM21.4392 17.3587V28.7527H25.7072V19.9992C25.7072 19.9992 27.0012 19.7086 28.279 19.7086C29.0073 19.7086 29.7808 19.7988 29.7808 19.7988V16.6318C29.7808 16.6318 28.7367 16.5852 28.3211 16.5852C24.1344 16.5852 21.4392 17.3587 21.4392 17.3587ZM6.52771 15.8066H11.3599V28.7549H15.7581V15.8066H20.6347V12.803H6.52771V15.8066ZM68.3069 36.6617H69.419V8.1416H68.3069V36.6617Z" fill="white"/>
</g>
</svg>
