<svg width="160" height="50" viewBox="0 0 160 50" fill="none" xmlns="http://www.w3.org/2000/svg">
<path fill-rule="evenodd" clip-rule="evenodd" d="M39.941 40.2474C40.118 39.9955 40.413 39.8405 40.7474 39.8405C41.2785 39.8405 41.7309 40.2862 41.7506 40.8287C41.7506 41.0806 41.6325 41.3325 41.4555 41.5069C37.1676 46.5835 30.7357 49.8 23.517 49.8C10.6139 49.8 0.169434 39.5111 0.169434 26.8001C0.169434 14.089 10.6139 3.80005 23.4973 3.80005C29.1228 3.80005 34.2565 5.75708 38.2887 9.01235C38.5641 8.87671 38.8788 8.81858 39.2132 8.81858C40.5507 8.81858 41.6325 9.8843 41.6325 11.2019C41.6325 12.5195 40.5507 13.5852 39.2132 13.5852C37.8757 13.5852 36.7939 12.5195 36.7939 11.2019C36.7939 10.9306 36.8529 10.6594 36.9315 10.4268C35.3777 9.18674 33.6664 8.17916 31.8175 7.40409C29.1818 6.319 26.3887 5.75708 23.4973 5.75708C20.6059 5.75708 17.8129 6.29963 15.1772 7.40409C12.6398 8.4698 10.3582 9.98118 8.39124 11.9188C6.4243 13.8371 4.89009 16.1042 3.82794 18.6038C2.72646 21.2002 2.15604 23.9517 2.15604 26.8001C2.15604 29.6484 2.70679 32.3999 3.82794 34.9963C4.90976 37.4959 6.44397 39.7436 8.41091 41.6813C10.3582 43.6189 12.6595 45.1303 15.1969 46.196C17.8326 47.2811 20.6256 47.843 23.517 47.843C26.4084 47.843 29.2015 47.3005 31.8372 46.196C34.3745 45.1303 36.6562 43.6189 38.6231 41.6813C39.0755 41.2162 39.941 40.2474 39.941 40.2474ZM21.1763 16.8405H25.956L32.86 34.4925H28.5327L23.5563 20.5995L20.7633 28.1951H25.0709L26.251 31.4892H19.7208L18.5996 34.4925H14.2724L21.1763 16.8405ZM98.5951 16.8405V34.4925H110.003V31.1791H102.431V16.8405H98.5951ZM120.723 16.8405V34.4925H132.151V31.1791H124.578V16.8405H120.723ZM83.0759 25.6762C83.0759 22.5372 80.4993 19.9989 77.3128 19.9989C74.146 19.9989 71.5497 22.5372 71.5497 25.6762C71.5497 28.8152 74.1264 31.3535 77.3128 31.3535C80.4993 31.3535 83.0759 28.8152 83.0759 25.6762ZM68.0485 25.6762C68.0485 20.6383 72.1988 16.5498 77.3128 16.5498C82.4269 16.5498 86.5771 20.6383 86.5771 25.6762C86.5771 30.7141 82.4269 34.8026 77.3128 34.8026C72.1988 34.8026 68.0485 30.7141 68.0485 25.6762ZM155.577 25.6762C155.577 22.5372 153.001 19.9989 149.814 19.9989C146.628 19.9989 144.051 22.5372 144.051 25.6762C144.051 28.8152 146.628 31.3535 149.814 31.3535C153.001 31.3535 155.577 28.8152 155.577 25.6762ZM140.55 25.6762C140.55 20.6383 144.7 16.5498 149.814 16.5498C154.928 16.5498 159.079 20.6383 159.079 25.6762C159.079 30.7141 154.928 34.8026 149.814 34.8026C144.7 34.8026 140.55 30.7141 140.55 25.6762ZM44.0322 16.8405H52.3917C55.5781 16.8405 58.1548 19.4951 58.1548 22.6147C58.1548 25.7537 55.5781 28.4083 52.3917 28.4083H47.848V34.4925H44.0322V16.8405ZM47.848 24.9593H52.3917C53.6308 24.9593 54.6537 23.8354 54.6537 22.6147C54.6537 21.394 53.6308 20.2895 52.3917 20.2895H47.848V24.9593Z" fill="#718096"/>
</svg>
