<svg width="141" height="42" viewBox="0 0 141 42" fill="none" xmlns="http://www.w3.org/2000/svg">
<path d="M1.59964 32.7708V17.0158H21.0529V16.0944H1.59964V1.7214H22.283V0.800049H0.688477V33.6922H22.4652V32.7708H1.59964ZM40.0051 10.0135L31.9413 20.7472L24.0598 10.0135H22.8753L31.3946 21.4383L22.0552 33.6922H23.1486L31.9413 22.1293L40.7796 33.6922H41.9185L32.5336 21.4383L41.0985 10.0135H40.0051ZM44.652 41.8V27.0585H44.7431C45.2898 29.2083 46.368 30.9358 47.9778 32.2411C49.5875 33.5463 51.6376 34.1989 54.1281 34.1989C55.7378 34.1989 57.1653 33.8688 58.4106 33.2085C59.6558 32.5482 60.6961 31.6499 61.5313 30.5135C62.3665 29.3772 63.0043 28.0566 63.4447 26.5517C63.8851 25.0469 64.1053 23.4652 64.1053 21.8068C64.1053 20.0255 63.8775 18.3825 63.422 16.8776C62.9664 15.3727 62.3058 14.0675 61.4402 12.9618C60.5746 11.8562 59.5267 10.9963 58.2967 10.3821C57.0666 9.76784 55.6771 9.46072 54.1281 9.46072C52.9436 9.46072 51.8426 9.63731 50.8251 9.9905C49.8077 10.3437 48.9041 10.8427 48.1144 11.4877C47.3248 12.1326 46.6414 12.8927 46.0643 13.768C45.4873 14.6433 45.0469 15.603 44.7431 16.6472H44.652V10.0135H43.7409V41.8H44.652ZM54.1281 33.3236C51.2731 33.3236 48.9801 32.3332 47.2488 30.3523C45.5176 28.3714 44.652 25.5229 44.652 21.8068C44.652 20.2712 44.8646 18.8124 45.2898 17.4304C45.7151 16.0484 46.3301 14.8353 47.1349 13.7911C47.9398 12.7469 48.9345 11.9177 50.119 11.3034C51.3035 10.6892 52.6399 10.3821 54.1281 10.3821C55.6467 10.3821 56.9755 10.6892 58.1144 11.3034C59.2534 11.9177 60.1949 12.7545 60.939 13.8141C61.6832 14.8736 62.245 16.0867 62.6247 17.4534C63.0043 18.8201 63.1942 20.2712 63.1942 21.8068C63.1942 23.1888 63.0195 24.5632 62.6703 25.9298C62.321 27.2965 61.7819 28.525 61.0529 29.6152C60.324 30.7055 59.3901 31.5961 58.2511 32.2871C57.1122 32.9781 55.7378 33.3236 54.1281 33.3236ZM69.1167 33.6922V20.2866C69.1167 18.9967 69.299 17.7375 69.6634 16.509C70.0279 15.2806 70.5898 14.198 71.3491 13.2613C72.1084 12.3246 73.0727 11.5875 74.242 11.05C75.4113 10.5126 76.8008 10.2899 78.4106 10.3821V9.46072C77.0135 9.43001 75.791 9.58357 74.7431 9.9214C73.6953 10.2592 72.7917 10.7199 72.0324 11.3034C71.2731 11.8869 70.6657 12.5703 70.2101 13.3534C69.7545 14.1366 69.4204 14.9735 69.2078 15.8641H69.1167V10.0135H68.2056V33.6922H69.1167ZM79.5495 22.0371H99.1395C99.2002 20.4094 99.0408 18.8431 98.6611 17.3383C98.2815 15.8334 97.674 14.4974 96.8388 13.3304C96.0036 12.1633 94.9254 11.2266 93.6042 10.5203C92.283 9.8139 90.7113 9.46072 88.8889 9.46072C87.5829 9.46072 86.3073 9.73713 85.062 10.2899C83.8168 10.8427 82.7234 11.6489 81.7819 12.7085C80.8403 13.768 80.081 15.0656 79.504 16.6012C78.9269 18.1368 78.6384 19.8873 78.6384 21.8529C78.6384 23.6034 78.8358 25.2388 79.2306 26.759C79.6255 28.2793 80.2329 29.5999 81.0529 30.7208C81.873 31.8418 82.9284 32.7094 84.2192 33.3236C85.51 33.9379 87.0666 34.2296 88.8889 34.1989C91.5617 34.1989 93.8092 33.4388 95.6315 31.9186C97.4539 30.3984 98.5321 28.2562 98.8661 25.4922H97.955C97.5602 28.1027 96.5503 30.0605 94.9254 31.3658C93.3005 32.671 91.258 33.3236 88.7978 33.3236C87.1273 33.3236 85.7151 33.0319 84.5609 32.4484C83.4068 31.8648 82.4652 31.0663 81.7363 30.0529C81.0074 29.0394 80.4683 27.8493 80.119 26.4826C79.7697 25.116 79.5799 23.6341 79.5495 22.0371ZM98.2283 21.1158H79.5495C79.6406 19.4573 79.9444 17.9678 80.4607 16.6472C80.977 15.3266 81.6528 14.198 82.488 13.2613C83.3233 12.3246 84.2952 11.6105 85.4037 11.1192C86.5123 10.6278 87.7044 10.3821 88.98 10.3821C90.4987 10.3821 91.835 10.6662 92.9892 11.2343C94.1433 11.8025 95.1076 12.5779 95.8821 13.5607C96.6566 14.5435 97.2412 15.6875 97.6361 16.9927C98.0309 18.298 98.2283 19.6723 98.2283 21.1158ZM118.046 17.0158H118.957C118.957 14.3746 118.198 12.4551 116.679 11.2574C115.161 10.0596 113.095 9.46072 110.483 9.46072C109.026 9.46072 107.796 9.64499 106.793 10.0135C105.791 10.3821 104.971 10.8581 104.333 11.4416C103.695 12.0251 103.24 12.6701 102.966 13.3765C102.693 14.0828 102.556 14.7585 102.556 15.4034C102.556 16.6933 102.784 17.7221 103.24 18.4899C103.695 19.2577 104.409 19.8566 105.381 20.2866C106.049 20.5937 106.808 20.8701 107.659 21.1158C108.509 21.3615 109.496 21.6225 110.62 21.8989C111.622 22.1446 112.61 22.3903 113.581 22.636C114.553 22.8817 115.411 23.2118 116.155 23.6265C116.9 24.0411 117.507 24.5708 117.978 25.2158C118.449 25.8607 118.684 26.7053 118.684 27.7495C118.684 28.763 118.449 29.6229 117.978 30.3293C117.507 31.0356 116.907 31.6115 116.178 32.0568C115.449 32.5021 114.637 32.8246 113.741 33.0242C112.845 33.2238 111.972 33.3236 111.121 33.3236C108.357 33.3236 106.239 32.7017 104.766 31.4579C103.293 30.2141 102.556 28.2562 102.556 25.5843H101.645C101.645 28.5634 102.442 30.7439 104.037 32.1259C105.632 33.5079 107.993 34.1989 111.121 34.1989C112.124 34.1989 113.133 34.0838 114.151 33.8534C115.168 33.6231 116.08 33.2469 116.884 32.7248C117.689 32.2027 118.342 31.527 118.843 30.6978C119.345 29.8686 119.595 28.8551 119.595 27.6574C119.595 26.521 119.375 25.5997 118.934 24.8933C118.494 24.1869 117.917 23.6034 117.203 23.1427C116.49 22.6821 115.685 22.3212 114.789 22.0602C113.893 21.7991 112.989 21.5457 112.078 21.3C110.802 20.9622 109.686 20.6705 108.729 20.4248C107.773 20.1791 106.884 19.8873 106.064 19.5495C105.275 19.2117 104.644 18.728 104.174 18.0984C103.703 17.4688 103.468 16.5705 103.468 15.4034C103.468 15.1884 103.528 14.8045 103.65 14.2517C103.771 13.6989 104.06 13.1384 104.515 12.5703C104.971 12.0021 105.669 11.4954 106.611 11.05C107.553 10.6047 108.843 10.3821 110.483 10.3821C111.607 10.3821 112.632 10.5049 113.559 10.7506C114.485 10.9963 115.282 11.3879 115.95 11.9253C116.619 12.4628 117.135 13.1461 117.499 13.9753C117.864 14.8045 118.046 15.818 118.046 17.0158ZM139.139 17.0158H140.051C140.051 14.3746 139.291 12.4551 137.773 11.2574C136.254 10.0596 134.189 9.46072 131.577 9.46072C130.119 9.46072 128.889 9.64499 127.887 10.0135C126.884 10.3821 126.064 10.8581 125.427 11.4416C124.789 12.0251 124.333 12.6701 124.06 13.3765C123.786 14.0828 123.65 14.7585 123.65 15.4034C123.65 16.6933 123.878 17.7221 124.333 18.4899C124.789 19.2577 125.502 19.8566 126.474 20.2866C127.143 20.5937 127.902 20.8701 128.752 21.1158C129.603 21.3615 130.59 21.6225 131.714 21.8989C132.716 22.1446 133.703 22.3903 134.675 22.636C135.647 22.8817 136.505 23.2118 137.249 23.6265C137.993 24.0411 138.6 24.5708 139.071 25.2158C139.542 25.8607 139.777 26.7053 139.777 27.7495C139.777 28.763 139.542 29.6229 139.071 30.3293C138.6 31.0356 138.001 31.6115 137.272 32.0568C136.543 32.5021 135.73 32.8246 134.834 33.0242C133.938 33.2238 133.065 33.3236 132.215 33.3236C129.451 33.3236 127.332 32.7017 125.859 31.4579C124.386 30.2141 123.65 28.2562 123.65 25.5843H122.739C122.739 28.5634 123.536 30.7439 125.13 32.1259C126.725 33.5079 129.086 34.1989 132.215 34.1989C133.217 34.1989 134.227 34.0838 135.244 33.8534C136.262 33.6231 137.173 33.2469 137.978 32.7248C138.783 32.2027 139.436 31.527 139.937 30.6978C140.438 29.8686 140.688 28.8551 140.688 27.6574C140.688 26.521 140.468 25.5997 140.028 24.8933C139.587 24.1869 139.01 23.6034 138.297 23.1427C137.583 22.6821 136.778 22.3212 135.882 22.0602C134.986 21.7991 134.083 21.5457 133.171 21.3C131.896 20.9622 130.78 20.6705 129.823 20.4248C128.866 20.1791 127.978 19.8873 127.158 19.5495C126.368 19.2117 125.738 18.728 125.267 18.0984C124.796 17.4688 124.561 16.5705 124.561 15.4034C124.561 15.1884 124.622 14.8045 124.743 14.2517C124.865 13.6989 125.153 13.1384 125.609 12.5703C126.064 12.0021 126.763 11.4954 127.704 11.05C128.646 10.6047 129.937 10.3821 131.577 10.3821C132.701 10.3821 133.726 10.5049 134.652 10.7506C135.578 10.9963 136.376 11.3879 137.044 11.9253C137.712 12.4628 138.228 13.1461 138.593 13.9753C138.957 14.8045 139.139 15.818 139.139 17.0158Z" fill="#718096"/>
</svg>
