<svg width="164" height="46" viewBox="0 0 164 46" fill="none" xmlns="http://www.w3.org/2000/svg">
<path fill-rule="evenodd" clip-rule="evenodd" d="M36.6067 10.0455C38.8362 10.0455 40.6445 11.841 40.6445 14.0546C40.6445 15.941 39.3306 17.5182 37.5635 17.9455V28.6546C39.3306 29.0819 40.6445 30.6591 40.6445 32.5455C40.6445 34.7591 38.8362 36.5546 36.6067 36.5546C35.4577 36.5546 34.4276 36.0773 33.6906 35.3137L24.3515 40.6682C24.4568 41.0273 24.5163 41.4 24.5163 41.791C24.5163 44.0046 22.708 45.8 20.4785 45.8C18.249 45.8 16.4407 44.0046 16.4407 41.791C16.4407 41.4 16.5002 41.0228 16.6055 40.6682L7.26645 35.3137C6.5294 36.0773 5.49935 36.5546 4.35028 36.5546C2.1208 36.5546 0.3125 34.7591 0.3125 32.5455C0.3125 30.6591 1.62638 29.0819 3.39348 28.6546V17.9455C1.62638 17.5182 0.3125 15.941 0.3125 14.0546C0.3125 11.841 2.1208 10.0455 4.35028 10.0455C5.49935 10.0455 6.5294 10.5228 7.26645 11.2864L16.6055 5.93187C16.5002 5.57278 16.4407 5.20005 16.4407 4.80914C16.4407 2.5955 18.249 0.800049 20.4785 0.800049C22.708 0.800049 24.5163 2.5955 24.5163 4.80914C24.5163 5.20005 24.4568 5.57732 24.3515 5.93187L33.6906 11.2864C34.4276 10.5228 35.4577 10.0455 36.6067 10.0455ZM5.31166 17.9455V28.6546L5.33919 28.6614L5.33922 28.6614C5.38613 28.6729 5.43518 28.6849 5.48104 28.7001L17.6859 7.70005L17.5623 7.57732L8.22325 12.9319C8.32855 13.291 8.38806 13.6637 8.38806 14.0546C8.38806 15.941 7.07876 17.5182 5.31166 17.9455ZM20.4785 37.7773C21.6276 37.7773 22.6576 38.2546 23.3947 39.0182L32.7338 33.6637C32.7155 33.6091 32.7017 33.5546 32.688 33.4955H8.26903L8.2622 33.5229L8.26219 33.5229C8.25063 33.5695 8.23854 33.6182 8.22325 33.6637L17.5623 39.0182C18.2994 38.2546 19.3294 37.7773 20.4785 37.7773ZM8.26903 31.591H32.688H32.6926C32.8803 30.841 33.2785 30.1682 33.8233 29.65L21.6138 8.65459C21.2522 8.75914 20.8768 8.81823 20.4831 8.81823C20.0894 8.81823 19.7094 8.75914 19.3523 8.65459L7.14285 29.65C7.68763 30.1682 8.08591 30.8364 8.26903 31.591ZM35.4806 28.6955C35.5355 28.6773 35.5904 28.6637 35.6499 28.65V17.95C33.8828 17.5228 32.569 15.9455 32.569 14.0591C32.569 13.6682 32.6285 13.291 32.7338 12.9364L23.3947 7.58187L23.2711 7.70459L35.4806 28.6955ZM62.1153 22.3046H68.2361L68.2223 22.3137C68.4329 22.3137 68.5886 22.3728 68.7076 22.4864C68.8266 22.6 68.8816 22.7591 68.8816 22.9682V25.4682C68.8816 26.9819 68.5749 28.3182 67.966 29.4728C67.3571 30.6273 66.469 31.5273 65.3062 32.1728C64.1434 32.8137 62.7608 33.1364 61.1585 33.1364C58.778 33.1364 56.9239 32.4546 55.61 31.091C54.2961 29.7273 53.6003 27.9 53.5224 25.6091C53.5041 25.041 53.495 24.141 53.495 22.9091C53.495 21.6773 53.5041 20.7773 53.5224 20.2091C53.5957 17.9182 54.2961 16.091 55.61 14.7273C56.9239 13.3637 58.7734 12.6819 61.1585 12.6819C62.7791 12.6819 64.1434 12.9864 65.2512 13.591C66.3591 14.1955 67.1786 14.9182 67.7142 15.75C68.2681 16.5637 68.5657 17.291 68.6023 17.9364V17.991C68.6023 18.141 68.5428 18.2637 68.4284 18.3591C68.3139 18.4546 68.172 18.5 67.998 18.5H67.3708C67.2015 18.5 67.0779 18.4637 67 18.3864C66.9222 18.3091 66.849 18.1591 66.7711 17.9319C66.4507 16.9273 65.8189 16.0864 64.885 15.4046C63.9694 14.7228 62.7333 14.3819 61.1677 14.3819C59.3914 14.3819 57.9906 14.8682 56.9605 15.8319C55.9488 16.8 55.4086 18.3046 55.3308 20.35C55.3124 20.9137 55.3033 21.7682 55.3033 22.9046C55.3033 24.041 55.3124 24.891 55.3308 25.4591C55.404 27.5046 55.9488 29.0137 56.9605 29.9773C57.9906 30.9455 59.3914 31.4273 61.1677 31.4273C62.9439 31.4273 64.3768 30.9273 65.4618 29.9228C66.5468 28.9182 67.0916 27.4319 67.0916 25.4637V24.0137H62.1153C61.923 24.0137 61.772 23.9546 61.6575 23.841C61.5385 23.7091 61.4836 23.55 61.4836 23.3591V22.9591C61.4836 22.7682 61.5431 22.6182 61.6575 22.5046C61.772 22.3728 61.923 22.3046 62.1153 22.3046ZM79.626 18.0728H78.5685C76.6595 18.0728 75.3639 18.7273 74.6772 20.0319V18.7228C74.6772 18.5319 74.6086 18.3819 74.4758 18.2682C74.3613 18.1364 74.2103 18.0682 74.018 18.0682H73.5602C73.3679 18.0682 73.2168 18.1364 73.1024 18.2682C72.988 18.3819 72.9284 18.5319 72.9284 18.7228V32.2182C72.9284 32.4091 72.9834 32.5591 73.1024 32.6728C73.2214 32.7864 73.3679 32.8455 73.5602 32.8455H74.018C74.2103 32.8455 74.3613 32.791 74.4758 32.6728C74.6086 32.5591 74.6772 32.4091 74.6772 32.2182V23.4091C74.6772 22.2728 75.0114 21.3728 75.6798 20.7091C76.3482 20.0455 77.2546 19.7137 78.3991 19.7137H79.6306C79.8229 19.7137 79.9739 19.6591 80.0884 19.5409C80.2028 19.4228 80.2624 19.2773 80.2624 19.0864V18.6864C80.2624 18.4955 80.2074 18.3455 80.0884 18.2319C79.9694 18.1182 79.8229 18.0591 79.6306 18.0591L79.626 18.0728ZM84.8815 18.4137C85.6827 17.9955 86.6669 17.7864 87.8297 17.7864V17.8046C89.8715 17.8046 91.3227 18.2864 92.1788 19.2546C93.0349 20.2228 93.4652 21.3955 93.4652 22.7773V32.2364C93.4652 32.4273 93.4057 32.5728 93.2913 32.691C93.1768 32.8092 93.0257 32.8637 92.8335 32.8637H92.3482C92.1559 32.8637 92.0094 32.8046 91.8904 32.691C91.7714 32.5773 91.7164 32.4273 91.7164 32.2364V30.9001C91.2999 31.5273 90.6772 32.0546 89.8578 32.491C89.0566 32.9273 87.99 33.1455 86.6532 33.1455C85.7376 33.1455 84.8861 32.9591 84.1078 32.5773C83.3296 32.1955 82.6978 31.6864 82.2217 31.041C81.7639 30.3955 81.535 29.6864 81.535 28.9091C81.535 27.6591 82.0386 26.6364 83.0503 25.841C84.0804 25.041 85.4629 24.5319 87.198 24.3046L91.721 23.6773V22.6819C91.721 21.641 91.4006 20.8455 90.7505 20.2955C90.1187 19.7228 89.1482 19.441 87.8297 19.441C86.8546 19.441 86.0581 19.6319 85.4263 20.0091C84.8174 20.3864 84.4283 20.841 84.2543 21.3728C84.1811 21.6001 84.0849 21.7591 83.9705 21.8546C83.8744 21.9319 83.7416 21.9682 83.5676 21.9682H83.1648C82.9908 21.9682 82.8397 21.9091 82.707 21.7955C82.588 21.6637 82.533 21.5137 82.533 21.341C82.533 20.9228 82.7253 20.441 83.1053 19.891C83.4898 19.3228 84.0804 18.8319 84.8815 18.4137ZM90.3751 30.1137C91.2724 29.2046 91.721 27.9001 91.721 26.1955L91.7164 26.191V25.2273L88.0266 25.7364C86.4609 25.9455 85.2752 26.3046 84.4787 26.8182C83.6821 27.3319 83.2792 27.9728 83.2792 28.7501C83.2792 29.6228 83.6455 30.2955 84.3688 30.7682C85.1104 31.241 85.9711 31.4773 86.9416 31.4773C88.3333 31.4773 89.4778 31.0228 90.3751 30.1137ZM109.122 19.75C108.151 18.4409 106.632 17.7909 104.572 17.7909C102.511 17.7909 100.873 18.5409 99.7646 20.0364V18.7C99.7646 18.5091 99.7097 18.3591 99.5907 18.2455C99.4716 18.1318 99.3251 18.0728 99.1329 18.0728H98.6476C98.4553 18.0728 98.3043 18.1273 98.1898 18.2455C98.0754 18.3637 98.0158 18.5091 98.0158 18.7V37.6182C98.0158 37.8091 98.0708 37.9591 98.1898 38.0728C98.3088 38.1864 98.4553 38.2455 98.6476 38.2455H99.1329C99.3251 38.2455 99.4762 38.1909 99.5907 38.0728C99.7051 37.9546 99.7646 37.8091 99.7646 37.6182V30.8864C100.891 32.3818 102.493 33.1318 104.572 33.1318C106.65 33.1318 108.147 32.4864 109.122 31.2C110.115 29.8909 110.637 28.2909 110.697 26.4C110.715 26.2091 110.724 25.9 110.724 25.4637C110.724 25.0273 110.715 24.7137 110.697 24.5273C110.642 22.6318 110.115 21.0409 109.122 19.7546V19.75ZM108.948 26.2546C108.893 27.7909 108.499 29.05 107.776 30.0318C107.071 30.9955 105.945 31.4818 104.398 31.4818C103.386 31.4818 102.539 31.2455 101.852 30.7728C101.165 30.3 100.653 29.7046 100.305 28.9818C99.9615 28.2455 99.7784 27.4682 99.76 26.6546L99.7326 25.5455L99.76 24.4364C99.815 23.0909 100.227 21.9273 100.992 20.9409C101.756 19.9364 102.891 19.4364 104.398 19.4364C106.078 19.4364 107.259 20.0046 107.945 21.1409C108.632 22.2591 108.976 23.6955 108.976 25.4591C108.976 25.8 108.966 26.0637 108.948 26.2546ZM118.337 18.3546C119.084 17.9773 120.036 17.7864 121.199 17.7864H121.203C123.076 17.7864 124.513 18.3864 125.525 19.5773C126.537 20.75 127.04 22.2773 127.04 24.15V32.2182C127.04 32.4091 126.981 32.5546 126.866 32.6728C126.752 32.791 126.601 32.8455 126.408 32.8455H125.923C125.731 32.8455 125.584 32.7864 125.465 32.6728C125.346 32.5591 125.291 32.4091 125.291 32.2182V24.291C125.291 22.7546 124.911 21.5637 124.147 20.7091C123.405 19.8591 122.288 19.4319 120.915 19.4319C119.541 19.4319 118.443 19.8682 117.623 20.7409C116.804 21.591 116.392 22.7773 116.392 24.291V32.2182C116.392 32.4091 116.332 32.5546 116.218 32.6728C116.103 32.791 115.952 32.8455 115.76 32.8455H115.275C115.082 32.8455 114.936 32.7864 114.817 32.6728C114.698 32.5591 114.643 32.4091 114.643 32.2182V13.3C114.643 13.1091 114.702 12.9637 114.817 12.8455C114.931 12.7273 115.082 12.6728 115.275 12.6728H115.76C115.952 12.6728 116.099 12.7319 116.218 12.8455C116.337 12.9591 116.392 13.1091 116.392 13.3V20.0319C116.964 19.291 117.614 18.7319 118.337 18.3546ZM144.111 14.6637C142.775 13.3364 140.962 12.6728 138.673 12.6728C136.384 12.6728 134.571 13.3364 133.234 14.6637C131.897 15.9909 131.192 17.941 131.119 20.5182C131.101 21.0864 131.092 21.8819 131.092 22.9046C131.092 23.9273 131.101 24.7228 131.119 25.2909C131.252 30.5182 133.77 33.1319 138.673 33.1319C140.197 33.1319 141.534 32.8591 142.679 32.3091L143.938 34.0409C144.263 34.4773 144.569 34.6955 144.853 34.6955H145.485C145.636 34.6955 145.769 34.6409 145.888 34.5228C146.007 34.4046 146.062 34.2773 146.062 34.1228C146.062 34.0273 146.034 33.9228 145.975 33.8091L144.144 31.2546C145.439 29.9864 146.135 27.9955 146.231 25.2909C146.268 24.1546 146.286 23.3591 146.286 22.9046C146.286 22.45 146.268 21.6546 146.231 20.5182C146.153 17.941 145.448 15.9909 144.116 14.6637H144.111ZM144.427 25.1455C144.35 27.2682 143.796 28.85 142.77 29.8909C141.758 30.9137 140.394 31.4273 138.677 31.4273C136.961 31.4273 135.587 30.9182 134.557 29.8909C133.545 28.85 133.001 27.2682 132.927 25.1455C132.909 24.5773 132.9 23.8273 132.9 22.9C132.9 21.9728 132.909 21.2228 132.927 20.6546C133.005 18.5319 133.559 16.9637 134.585 15.9364C135.615 14.8955 136.979 14.3728 138.677 14.3728C140.376 14.3728 141.74 14.8955 142.77 15.9364C143.8 16.9591 144.354 18.5319 144.427 20.6546C144.464 21.791 144.482 22.5409 144.482 22.9C144.482 23.2591 144.464 24.0091 144.427 25.1455ZM162.515 31.1364C162.726 31.1364 162.886 31.1955 163 31.3091H162.996C163.115 31.4228 163.17 31.5818 163.17 31.7909V32.2182C163.17 32.4091 163.101 32.5591 162.968 32.6728C162.854 32.7909 162.703 32.8455 162.51 32.8455H151.468C151.276 32.8455 151.13 32.7864 151.011 32.6728C150.892 32.5591 150.837 32.4091 150.837 32.2182V13.5818C150.837 13.3909 150.896 13.2455 151.011 13.1273C151.125 13.0091 151.276 12.9546 151.468 12.9546H152.013C152.205 12.9546 152.352 13.0137 152.471 13.1273C152.59 13.2409 152.645 13.3909 152.645 13.5818V31.1364H162.515Z" fill="#718096"/>
</svg>
