<svg width="84" height="74" viewBox="0 0 84 74" fill="none" xmlns="http://www.w3.org/2000/svg">
<path fill-rule="evenodd" clip-rule="evenodd" d="M9.94504 1.35994C10.3861 1.00385 10.9601 0.722482 11.535 0.819346C12.1054 0.96049 12.7074 1.18743 13.0518 1.70311C13.652 2.56751 13.5543 3.79445 12.9352 4.62102L12.8882 4.57305C12.8683 4.55282 12.8486 4.5324 12.8288 4.51194L12.8288 4.51191L12.8287 4.51188L12.8287 4.51185C12.8485 4.53234 12.8683 4.55279 12.8882 4.57305C13.0544 4.78087 13.2382 4.97157 13.4221 5.16241C13.5182 5.26215 13.6143 5.36193 13.708 5.4642C14.4531 6.30017 15.1483 7.17972 15.8433 8.05914L15.8433 8.05917C16.1845 8.49084 16.5256 8.92247 16.8726 9.3489C17.3562 9.95038 17.8352 10.5556 18.308 11.1663L18.2375 11.241C18.4215 11.2086 18.6009 11.1543 18.7802 11.1L18.7802 11.0999C19.0403 11.0212 19.3001 10.9425 19.5735 10.931C20.5976 10.895 21.6434 10.9596 22.6178 11.3092C22.9025 11.4144 23.1837 11.574 23.3518 11.8424L23.3518 11.8424C23.7172 11.8146 24.072 11.7268 24.4269 11.639C24.7664 11.5549 25.1061 11.4709 25.4552 11.4393C26.4498 11.2769 27.4579 11.2964 28.4625 11.3159L28.4627 11.3159L28.4629 11.3159L28.4631 11.3159C28.594 11.3184 28.7249 11.3209 28.8557 11.3231C32.1866 11.5546 35.5094 12.8618 37.9192 15.2594C38.1197 15.4002 38.274 15.5875 38.4286 15.7751C38.5353 15.9046 38.6421 16.0342 38.7643 16.1487C39.5451 17.0039 40.1563 17.9971 40.7633 18.9833L40.7633 18.9834L40.8425 19.112C40.8711 19.1584 40.8997 19.2048 40.9283 19.2511C42.1856 19.1257 43.2766 19.9311 44.2058 20.6921C44.6024 20.4268 45.0362 20.2366 45.4703 20.0463L45.4704 20.0463C45.8467 19.8813 46.2233 19.7163 46.5759 19.5021C46.4782 18.8259 46.7087 18.0943 47.2339 17.6552C47.6389 17.2668 48.2183 17.1008 48.7651 17.1727C49.4349 17.2779 50.0198 17.7668 50.2873 18.3978C50.6416 19.2456 50.4184 20.3277 49.6835 20.8914C49.0164 21.4191 47.9977 21.4006 47.365 20.8231C46.6645 21.42 45.9278 21.9892 45.117 22.4218C45.2697 23.3314 45.2218 24.2742 44.91 25.1451C44.6515 26.0095 44.2194 26.9467 43.377 27.3462C43.3595 27.7165 43.3842 28.0869 43.4088 28.4571V28.4571V28.4572V28.4572V28.4572V28.4573C43.4415 28.9501 43.4743 29.4427 43.4077 29.9348C43.3824 30.1422 43.3785 30.3511 43.3746 30.5598V30.5599C43.3698 30.8208 43.3649 31.0815 43.3182 31.3388C43.1881 32.2087 42.8138 33.0104 42.436 33.7918C42.2894 34.1075 42.0002 34.2952 41.7186 34.4779L41.7186 34.4779C41.6529 34.5205 41.5877 34.5628 41.5249 34.6064C41.1859 34.8315 40.7367 35.0372 40.3426 34.8305C39.7198 34.4689 39.4197 33.7457 39.2778 33.0612C39.1575 32.573 39.1618 32.0718 39.1661 31.5722C39.1674 31.4222 39.1687 31.2723 39.1666 31.123L39.1658 31.1092C39.0676 29.3074 38.9685 27.4921 38.5772 25.7263C38.3142 24.5657 37.8641 23.396 36.9864 22.5749C36.4305 22.0962 35.7941 21.7096 35.1108 21.455C34.0884 21.1451 33.0227 20.9652 31.9543 20.9882C30.6644 20.9587 29.3935 21.2345 28.1525 21.5657C26.8969 21.8987 25.711 22.4449 24.5396 23.0048C23.815 23.3181 23.1212 23.6947 22.4274 24.0713L22.4273 24.0713L22.4267 24.0716C22.2301 24.1784 22.0334 24.2851 21.836 24.3905C21.3352 24.6663 20.8399 24.956 20.3888 25.3111C20.2145 25.4468 20.0375 25.5799 19.8602 25.713L19.8601 25.7131C19.2073 26.2035 18.5521 26.6957 18.026 27.3305C17.3553 28.1377 16.7596 29.0602 16.5562 30.1146C16.3004 31.6663 16.5915 33.2623 17.1329 34.7198C17.7521 36.3287 18.6768 37.8093 19.8221 39.0815C20.5649 40.0318 21.5385 40.7433 22.5002 41.4462L22.5002 41.4462C22.5636 41.4926 22.627 41.5389 22.6902 41.5852C23.2497 41.9597 23.6167 42.6221 23.6212 43.3075C23.5688 43.8795 23.1412 44.3278 22.7001 44.6405C22.2246 44.9404 21.6687 45.135 21.1056 45.1175C19.7868 45.1055 18.4572 44.945 17.2053 44.5095C16.8359 44.383 16.4873 44.2082 16.1388 44.0334L16.1388 44.0333L16.1387 44.0333C15.9892 43.9583 15.8396 43.8833 15.6885 43.8121L15.6885 43.8121C15.6104 43.8772 15.5325 43.9427 15.4545 44.0082C14.9749 44.4114 14.4932 44.8165 13.9466 45.1212C13.1295 45.5594 12.1687 45.7762 11.2521 45.6009C10.1276 45.409 9.07458 44.8583 8.22219 44.0926C8.05995 44.1943 7.89573 44.2926 7.73155 44.3909L7.73133 44.391L7.73117 44.3911L7.73105 44.3912C7.46368 44.5512 7.19638 44.7111 6.93774 44.886C6.78664 44.9847 6.63968 45.09 6.49274 45.1953C6.21688 45.3931 5.94106 45.5907 5.63792 45.7448C5.99678 46.7596 5.7952 47.9385 5.14349 48.7836C4.73763 49.2845 4.2432 49.755 3.60504 49.91C2.65684 50.1959 1.61192 49.8454 0.924048 49.1461C0.104204 48.219 -0.194989 46.7817 0.366337 45.6415C0.805636 44.6738 1.80897 44.016 2.85118 44.0105C3.53272 44.0704 4.1754 44.3389 4.78373 44.6424C5.10281 44.1199 5.54506 43.7077 5.98753 43.2952C6.2771 43.0253 6.56676 42.7553 6.82204 42.4542C6.36467 41.7227 6.00491 40.8638 6.08807 39.98C6.31947 38.4108 6.82475 36.8555 7.74403 35.5612C7.83611 35.4488 7.84954 35.3021 7.86231 35.1625L7.86425 35.1414C7.87561 35.1336 7.88689 35.1256 7.89808 35.1176C7.8869 35.1256 7.87563 35.1336 7.86427 35.1414C7.77868 34.8874 7.772 34.6211 7.76532 34.3548C7.76135 34.1964 7.75738 34.038 7.73682 33.8822C7.69841 33.6093 7.69334 33.3346 7.68829 33.06C7.6843 32.8436 7.68031 32.6272 7.65999 32.4117C7.60891 31.9412 7.61063 31.468 7.61234 30.995C7.61309 30.79 7.61383 30.585 7.61028 30.3803C7.59129 29.0565 7.6157 27.7253 7.81546 26.4144C8.0089 25.1977 8.49882 24.0556 9.05382 22.9698C9.65582 21.8203 10.4241 20.765 11.2919 19.8093C11.7664 19.2521 12.2726 18.7198 12.8367 18.2567C13.0673 18.0028 13.3292 17.7829 13.5908 17.5633L13.5908 17.5632C13.9044 17.2999 14.2177 17.0369 14.4764 16.7161C14.5039 16.6812 14.5324 16.6473 14.5616 16.6142C14.5324 16.6473 14.5039 16.6812 14.4763 16.7161C14.3597 15.598 14.5803 14.4144 15.2474 13.5011C15.4393 13.1814 15.7107 12.9367 15.9823 12.6919C16.1213 12.5665 16.2605 12.4411 16.389 12.3056C16.2086 12.1163 16.0743 11.8929 15.9401 11.6697C15.9062 11.6133 15.8723 11.5569 15.8376 11.5011C14.9039 9.9799 13.9973 8.44023 13.1539 6.86458C12.9985 6.58105 12.8171 6.3144 12.6357 6.04778L12.6357 6.04776L12.6357 6.04775C12.4701 5.8043 12.3045 5.56086 12.1587 5.3046C11.6118 5.419 11.0171 5.49556 10.4892 5.26217C9.69827 4.93006 9.08723 4.13855 9.01944 3.26124C9.06283 2.53707 9.4506 1.86548 9.94504 1.35994ZM16.0401 39.8933C16.3384 40.5603 16.5734 41.2743 16.5888 42.0132C16.59 42.0576 16.5894 42.1017 16.5872 42.1454C16.5894 42.1017 16.5899 42.0577 16.5888 42.0133C16.5734 41.2743 16.3384 40.5603 16.0401 39.8933C15.6189 38.9809 15.0928 38.1184 14.4989 37.313C13.6131 36.1175 12.4199 35.2005 11.1599 34.4514C11.14 34.4384 11.12 34.4256 11.0998 34.4129C11.12 34.4256 11.1401 34.4384 11.1599 34.4514C12.42 35.2005 13.6131 36.1174 14.499 37.313C15.0928 38.1184 15.6189 38.9809 16.0401 39.8933ZM9.19031 34.0898C9.27368 34.0582 9.35802 34.0343 9.44289 34.0173L8.36352 34.7012C8.39443 34.6706 8.42533 34.6399 8.45639 34.6095C8.67387 34.3967 8.89919 34.196 9.19028 34.0898L9.19031 34.0898ZM30.9392 31.9763C30.1085 31.3093 28.6442 31.4624 28.1462 32.4809C27.8496 33.0567 27.855 33.7188 27.8602 34.3546V34.3546V34.3547V34.3547C27.8607 34.4146 27.8612 34.4742 27.8614 34.5335C27.8614 39.9486 27.8614 45.3629 27.8605 50.778C27.8669 51.3398 27.9437 51.9339 28.2655 52.4063C28.4933 52.7467 28.8666 52.9653 29.2616 53.0363C29.8735 53.1489 30.575 53.0576 31.0341 52.5935C31.5114 52.1267 31.6416 51.4192 31.6488 50.7716C31.6532 49.753 31.6526 48.7346 31.6519 47.7164V47.7164V47.7163V47.7163V47.7162C31.6514 46.8588 31.6508 46.0015 31.6533 45.1442C31.6687 44.4385 31.6967 43.7282 31.8269 43.0335C32.0908 41.6221 33.331 40.4339 34.7537 40.3592C35.5555 40.302 36.5019 40.4855 36.9638 41.2309C37.4862 42.1249 37.5622 43.2023 37.5721 44.2199C37.5725 45.1425 37.5724 46.0652 37.5723 46.9879C37.5721 48.2202 37.572 49.4525 37.573 50.6848C37.5766 51.2706 37.6399 51.8924 37.9689 52.3915C38.6667 53.386 40.3896 53.2992 41.0006 52.2467C41.3152 51.7245 41.3568 51.0917 41.3477 50.4939C41.346 49.3224 41.3463 48.1508 41.3467 46.9793C41.347 45.6905 41.3474 44.4017 41.345 43.1129C41.3215 41.9514 41.2465 40.7217 40.621 39.7134C39.9919 38.5621 38.8349 37.7623 37.5739 37.5151C36.3681 37.278 35.0845 37.3785 33.9465 37.8619C33.0363 38.2475 32.3023 38.9477 31.6497 39.6839L31.6503 39.272C31.6529 37.4748 31.6555 35.6776 31.6479 33.8803C31.6416 33.1931 31.4888 32.4302 30.9392 31.9763ZM80.7165 31.8222C81.2823 31.6838 81.9087 31.7936 82.3797 32.1488C83.1634 32.6931 83.2574 33.8905 82.8145 34.6866C82.1881 35.7254 80.6026 35.8324 79.7764 34.9892C79.3245 34.5455 79.2151 33.8481 79.3263 33.2411C79.4564 32.539 80.0521 31.992 80.7165 31.8222ZM53.2947 37.3804C51.5456 37.23 49.7269 37.2383 48.0583 37.8628C47.0035 38.2743 45.9703 38.9293 45.4117 39.9652C45.098 40.5271 44.9145 41.1885 45.004 41.837C45.1215 42.5529 45.8239 43.0603 46.5163 43.052L46.526 43.0518C46.8613 43.0473 47.266 43.0418 47.4943 42.7503C47.6717 42.517 47.8288 42.2657 47.9858 42.0143C48.2977 41.5153 48.6097 41.016 49.0816 40.6571C49.8508 40.0215 50.8975 39.9717 51.8439 39.9855C52.5245 40.0188 53.3055 40.1064 53.7828 40.6636C54.2799 41.3324 54.383 42.2088 54.4218 43.0234C52.7677 43.5105 51.0855 43.8905 49.3979 44.2374C49.1744 44.2892 48.9487 44.335 48.7228 44.3809L48.7228 44.3809L48.7227 44.3809C48.056 44.5162 47.3873 44.6519 46.7676 44.944C45.9775 45.3011 45.2815 45.8915 44.835 46.6507C44.3369 47.493 44.205 48.528 44.3659 49.4893C44.5729 50.695 45.3412 51.7743 46.3834 52.3749C47.6118 53.1175 49.1114 53.1913 50.4925 52.9708C52.0608 52.7236 53.4474 51.8463 54.6758 50.862C55.0519 51.4653 55.4342 52.0769 55.9476 52.5705C56.2098 52.8195 56.5307 53.028 56.894 53.0695C57.6244 53.148 58.3611 52.707 58.7009 52.0529C58.9217 51.6261 58.7962 51.1521 58.6785 50.708L58.6784 50.7078C58.6593 50.6356 58.6404 50.5642 58.6232 50.4939C58.362 49.6258 58.1288 48.7356 58.1251 47.8204C58.1266 47.2591 58.1318 46.6977 58.137 46.1362V46.1361V46.1359C58.1476 44.983 58.1582 43.83 58.1369 42.6774C58.0673 41.3573 57.8666 39.92 56.9718 38.897C56.0416 37.8545 54.6153 37.5215 53.2947 37.3804ZM48.3385 47.481C48.6874 46.9625 49.2678 46.6387 49.8526 46.4754C50.4018 46.3338 50.9563 46.2128 51.5107 46.0917L51.5107 46.0917L51.5108 46.0917C52.4945 45.877 53.4782 45.6622 54.4327 45.3324C54.4318 45.3902 54.4311 45.4482 54.4305 45.5064C54.43 45.553 54.4295 45.5997 54.429 45.6464L54.429 45.6487V45.6488C54.4189 46.6532 54.4085 47.6913 53.9735 48.6101C53.3986 49.6978 52.2018 50.3038 51.0367 50.4542C50.2422 50.5621 49.3482 50.4598 48.7426 49.874C48.0891 49.2992 47.8956 48.242 48.3385 47.481ZM62.0788 37.7798C62.8255 37.111 64.1506 37.2484 64.7047 38.1101C65.0744 38.6553 65.0762 39.3472 65.0671 39.9837C65.8771 38.9763 66.875 38.0575 68.1151 37.6608C69.7205 37.1544 71.5346 37.3675 72.9827 38.2401C73.9761 38.8204 74.767 39.7235 75.2967 40.7521C76.0677 42.2014 76.3081 43.8832 76.272 45.5142C76.2304 47.2835 75.7812 49.0861 74.7679 50.5428C73.7998 51.9367 72.2333 52.8777 70.5647 53.0428C69.2929 53.1646 67.9307 52.9893 66.8605 52.2291C66.2004 51.7965 65.6687 51.205 65.1424 50.6196L65.1424 50.6196L65.0717 50.5409C65.0666 51.5218 65.0674 52.5027 65.0682 53.4836C65.069 54.4252 65.0698 55.3669 65.0653 56.3085C65.0509 57.0078 64.9686 57.7817 64.4823 58.3196C64.0991 58.7439 63.4935 58.8436 62.9556 58.7845C62.529 58.7485 62.0671 58.5751 61.8502 58.1738C61.5609 57.6341 61.503 57.0031 61.4877 56.3989C61.4868 53.5848 61.4868 50.7709 61.4868 47.957C61.4868 45.1431 61.4868 42.3292 61.4859 39.5151C61.4886 38.8979 61.6079 38.2125 62.0788 37.7798ZM68.2489 40.3278C67.2248 40.5317 66.3525 41.2752 65.8644 42.2014C65.2877 43.3278 65.1991 44.6396 65.2696 45.8869C65.3446 47.1304 65.7659 48.4182 66.7123 49.255C67.5466 50.0409 68.7985 50.3232 69.8814 49.9745C70.656 49.7236 71.3059 49.1461 71.71 48.4321C72.4322 47.1987 72.5515 45.7042 72.4331 44.302C72.3201 43.0695 71.879 41.79 70.9199 40.98C70.1914 40.3509 69.1772 40.1248 68.2489 40.3278ZM82.452 37.8914C81.9783 37.4219 81.257 37.2964 80.6315 37.4579C79.7719 37.6627 79.2965 38.5787 79.2946 39.4283C79.2843 41.6521 79.286 43.8758 79.2877 46.0997C79.2887 47.3799 79.2896 48.66 79.2883 49.9404C79.29 50.0705 79.2887 50.2014 79.2873 50.3326C79.2822 50.8201 79.2771 51.3116 79.4302 51.7789C79.592 52.3103 79.9834 52.7808 80.505 52.9681C81.1748 53.207 81.991 53.0668 82.4882 52.5308C82.9383 52.0723 83.0685 51.3943 83.0721 50.7679C83.074 48.111 83.0736 45.4537 83.0733 42.7965C83.0731 41.7337 83.073 40.6709 83.073 39.6082C83.0811 38.9865 82.9166 38.3223 82.452 37.8914Z" fill="#718096"/>
</svg>
