<svg width="121" height="44" viewBox="0 0 121 44" fill="none" xmlns="http://www.w3.org/2000/svg">
<path fill-rule="evenodd" clip-rule="evenodd" d="M24.4236 0.956128C24.6889 0.866941 24.9764 0.800049 25.286 0.800049C25.684 0.800049 26.1152 0.889237 26.5906 1.1791C27.0881 1.53585 27.7183 2.04868 27.6851 2.81793C27.5572 3.07925 27.2618 3.30033 26.9207 3.55571C26.112 4.16107 25.0458 4.95919 25.3412 6.94289C25.286 6.86485 25.2417 6.77566 25.2086 6.69763C24.8216 6.05101 24.7332 5.24832 25.0538 4.50136C25.1153 4.33148 25.1845 4.20085 25.2504 4.07637C25.4094 3.77605 25.5494 3.51151 25.5181 2.81793C25.5181 2.75104 25.5071 2.68415 25.496 2.61726C25.4905 2.57824 25.4822 2.54479 25.4739 2.51134C25.4656 2.4779 25.4573 2.44445 25.4518 2.40544C25.297 1.83687 24.9875 1.33518 24.4236 0.956128ZM28.7799 1.66641C28.7767 1.63041 28.7738 1.59737 28.8017 1.43552L28.8018 1.43557C29.1445 1.54705 29.4872 1.66969 29.8521 1.9038C29.9295 1.93725 29.9958 1.97068 30.0732 2.01529C30.5928 2.34974 31.1125 2.71765 31.61 3.10785C31.7095 3.19704 31.809 3.29737 31.8974 3.38656C32.0743 3.57609 32.2402 3.76561 32.406 3.95514C32.5608 4.15581 32.7045 4.35649 32.8482 4.56831C32.9809 4.78013 33.1025 5.0031 33.2241 5.22607C33.3347 5.44904 33.4452 5.68316 33.5337 5.91728C33.6046 6.10488 33.6683 6.29963 33.7307 6.49007C33.7462 6.5373 33.7615 6.58426 33.7769 6.63078C33.8433 6.87605 33.8985 7.12132 33.9428 7.37774L33.9429 7.37888C33.976 7.62377 34.0092 7.86867 34.0312 8.12469L34.0314 8.12761C34.0424 8.30501 34.0533 8.48241 34.0533 8.65982C34.0533 8.90446 34.0313 9.1602 34.0092 9.41597L34.0091 9.41792C33.9887 9.64386 33.9496 9.86981 33.909 10.1045C33.9055 10.1245 33.902 10.1447 33.8985 10.1649L33.8985 10.1649C33.8432 10.4102 33.7879 10.6554 33.7106 10.8895C33.6332 11.1348 33.5447 11.3689 33.4452 11.603C33.3457 11.8371 33.2352 12.0601 33.1135 12.2831C33.014 12.4615 32.9035 12.6398 32.7929 12.8182C32.7819 12.8349 32.7708 12.8545 32.7598 12.874C32.7487 12.8935 32.7376 12.913 32.7266 12.9297C32.5829 13.1304 32.4281 13.3311 32.2622 13.5317L32.2622 13.5318C32.0964 13.7213 31.9305 13.9108 31.7426 14.078C31.5657 14.2564 31.3778 14.4236 31.1788 14.5797C30.9798 14.7357 30.7698 14.8806 30.5599 15.0255L30.5596 15.0256C30.3385 15.1594 30.1284 15.282 29.8963 15.3935C29.6752 15.505 29.443 15.6165 29.1998 15.7057C28.9676 15.7949 28.7243 15.8729 28.4811 15.9398C28.2379 16.0067 27.9947 16.0624 27.7404 16.107C27.4971 16.1516 27.2539 16.174 27.0107 16.1962H27.0218C27.265 16.2743 27.5082 16.3411 27.7625 16.3857C28.0057 16.4415 28.26 16.475 28.5143 16.4972C28.7575 16.5196 29.0118 16.5419 29.2661 16.5419C29.443 16.5419 29.6199 16.5307 29.7968 16.5196L29.829 16.5166C30.0625 16.4953 30.3055 16.473 30.5486 16.4304C30.7918 16.3858 31.0461 16.33 31.2893 16.2632C31.5326 16.1963 31.7758 16.1182 32.008 16.029L32.0086 16.0287C32.2406 15.9285 32.4725 15.8283 32.7045 15.7169C32.9256 15.6054 33.1467 15.4716 33.3568 15.3378C33.5779 15.204 33.7769 15.0591 33.9759 14.903C34.0199 14.8643 34.0611 14.8282 34.1023 14.7922C34.144 14.7558 34.1857 14.7193 34.2302 14.6801C34.3408 14.5909 34.4403 14.5017 34.5508 14.4014C34.7277 14.223 34.9046 14.0446 35.0704 13.8439C35.2252 13.6544 35.38 13.4537 35.5237 13.2419C35.6675 13.0412 35.8001 12.8183 35.9218 12.6064C36.0434 12.3835 36.1539 12.1493 36.2534 11.9264C36.3529 11.6923 36.4414 11.447 36.5188 11.2129L36.5188 11.2127C36.5851 10.9675 36.6515 10.7223 36.7067 10.4771C36.7509 10.2318 36.7841 9.98653 36.8173 9.73011L36.8174 9.72814C36.8284 9.59502 36.8394 9.46189 36.8394 9.32877C36.8457 9.33515 36.8484 9.33787 36.8496 9.34114C36.8505 9.34357 36.8505 9.3463 36.8505 9.35105C36.8505 9.34634 36.8505 9.34362 36.8513 9.34121C36.8524 9.33793 36.8552 9.3352 36.8615 9.32877C36.8615 9.34513 36.8675 9.3555 36.875 9.36866C36.8777 9.37344 36.8807 9.37858 36.8836 9.38451C39.9461 12.4504 47.2651 24.0894 39.2827 35.316C39.4486 33.5211 39.338 31.7039 38.9621 29.9424C38.4093 33.4988 36.7841 36.8099 34.3076 39.4187C33.4121 40.3551 32.4281 41.1801 31.3557 41.8937C32.8593 39.7531 33.8764 37.3004 34.3297 34.7251C32.0854 38.7943 28.3374 41.8156 23.8819 43.1423C22.6547 43.499 21.3833 43.7109 20.1118 43.8C22.8647 42.518 25.2197 40.567 26.9775 38.1477C25.9493 38.5825 24.8769 38.9504 23.7713 39.218C23.7381 39.2291 23.705 39.2375 23.6718 39.2459C23.6386 39.2543 23.6055 39.2626 23.5723 39.2737C23.5336 39.2793 23.4949 39.2877 23.4562 39.296C23.4175 39.3044 23.3788 39.3128 23.3402 39.3183C23.3125 39.3239 23.2876 39.3295 23.2628 39.3351C23.2379 39.3406 23.213 39.3462 23.1854 39.3518C23.108 39.3741 23.0195 39.3964 22.9421 39.4075C22.6547 39.4633 22.3672 39.519 22.0798 39.5636H22.0687L21.6044 39.6305H21.5933L21.5601 39.5636C21.6486 39.5079 21.726 39.4521 21.8033 39.3964C21.8144 39.3852 21.8282 39.3769 21.8421 39.3685C21.8559 39.3601 21.8697 39.3518 21.8807 39.3406C21.9692 39.2738 22.0576 39.2069 22.1461 39.1511C23.4728 38.1478 24.5342 36.8657 25.2528 35.4052C25.2583 35.3997 25.261 35.3941 25.2638 35.3885C25.2666 35.383 25.2693 35.3774 25.2749 35.3718C25.286 35.3495 25.297 35.3272 25.308 35.2937C25.3504 35.2168 25.3863 35.1333 25.4207 35.0533C25.4311 35.029 25.4415 35.005 25.4518 34.9816H25.4629C25.485 34.9257 25.5072 34.8727 25.5293 34.8196C25.5514 34.7668 25.5734 34.7139 25.5955 34.6583C25.621 34.6005 25.6428 34.5391 25.6651 34.4761C25.6816 34.4296 25.6984 34.3823 25.7171 34.335C25.7392 34.2793 25.7585 34.2264 25.7779 34.1735C25.7972 34.1205 25.8166 34.0675 25.8388 34.0117L25.9383 33.6772C25.9383 33.6772 25.9383 33.6661 25.9493 33.6549C25.9662 33.5782 25.9896 33.5014 26.0145 33.4197C26.0222 33.3945 26.03 33.369 26.0378 33.3428V33.3093C26.0709 33.209 26.0931 33.1086 26.1152 33.0083C26.1152 33.0027 26.1179 32.9944 26.1207 32.986C26.1235 32.9776 26.1262 32.9693 26.1262 32.9637L26.1926 32.6627V32.6292C26.2036 32.5791 26.2147 32.5261 26.2257 32.4732C26.2368 32.4202 26.2479 32.3672 26.2589 32.3171V32.3059V32.2947C26.2644 32.239 26.2727 32.186 26.281 32.1331C26.2893 32.0801 26.2976 32.0272 26.3031 31.9714C26.3142 31.938 26.3142 31.9045 26.3142 31.8711C26.3198 31.8266 26.3253 31.7848 26.3308 31.7431C26.3363 31.7012 26.3418 31.6594 26.3474 31.6147C26.3474 31.5812 26.3474 31.5478 26.3585 31.5143C26.3585 31.4683 26.3614 31.4252 26.3643 31.3835C26.367 31.3445 26.3695 31.3068 26.3695 31.2691C26.3806 31.2133 26.3806 31.1687 26.3806 31.1241C26.3806 31.0851 26.3834 31.0489 26.3862 31.0127C26.3889 30.9764 26.3917 30.9402 26.3917 30.9012V30.7451C26.3917 30.7116 26.3945 30.6782 26.3972 30.6448C26.4 30.6113 26.4028 30.5779 26.4028 30.5444C26.4028 30.5165 26.4 30.4859 26.3972 30.4552C26.3945 30.4246 26.3917 30.3939 26.3917 30.366V30.1877C26.3917 30.065 26.3807 29.9424 26.3696 29.8198C26.3696 29.7306 26.3586 29.6302 26.3475 29.5299V29.4853C26.3463 29.4754 26.345 29.4654 26.3438 29.4553C26.3338 29.3739 26.3229 29.2847 26.3033 29.1954V29.1843C26.2876 29.034 26.2608 28.8838 26.2347 28.7375C26.224 28.6776 26.2134 28.6183 26.2038 28.5599C26.1927 28.5098 26.1816 28.4624 26.1706 28.415C26.1595 28.3676 26.1485 28.3202 26.1374 28.2701C25.4077 33.22 21.3944 36.9771 16.4967 37.3227C15.5569 37.3784 14.6282 37.3115 13.7106 37.122V37.1109C13.3789 37.0217 12.6271 36.8098 11.9195 36.5757C11.3999 36.3639 10.9024 36.1186 10.427 35.8288L10.4491 35.8065C10.637 35.6616 11.3114 35.5166 11.9748 35.394C10.2169 34.2457 8.68014 30.2768 11.2562 28.5822C11.3034 28.5618 11.3465 28.5373 11.388 28.5136C11.4145 28.4985 11.4404 28.4838 11.4662 28.4708C11.5049 28.454 11.5409 28.4373 11.5768 28.4206C11.6128 28.4039 11.6487 28.3871 11.6873 28.3704C11.7647 28.337 11.8421 28.3147 11.9195 28.2924C11.9965 28.2702 12.0735 28.259 12.1505 28.2479L12.1517 28.2478C12.2291 28.2255 12.3065 28.2143 12.3949 28.2143C12.4226 28.2143 12.4502 28.2115 12.4778 28.2087C12.5055 28.2059 12.5331 28.2032 12.5608 28.2032C12.6382 28.2032 12.7266 28.2143 12.804 28.2254C12.8814 28.2254 12.9588 28.2366 13.0362 28.2589C13.1132 28.27 13.1902 28.2921 13.2672 28.3143L13.2683 28.3146C13.2849 28.3202 13.2988 28.3258 13.3126 28.3313C13.3264 28.3369 13.3402 28.3425 13.3568 28.3481C13.3789 28.3536 13.4038 28.362 13.4286 28.3704C13.4535 28.3787 13.4784 28.3871 13.5005 28.3927C13.5779 28.4261 13.6442 28.4596 13.7106 28.5042C14.0533 28.7606 14.0533 29.1954 13.8654 29.7305C13.8285 29.7825 13.8015 29.8345 13.7745 29.8864C13.761 29.9125 13.7475 29.9386 13.7327 29.9646C13.6995 30.0427 13.6774 30.1207 13.6553 30.1987C13.6332 30.2768 13.6111 30.3548 13.6 30.4329V30.6001C13.6 30.6893 13.6 30.7673 13.6111 30.8454C13.6222 30.9234 13.6443 31.0014 13.6774 31.0795C13.6995 31.1575 13.7327 31.2355 13.7658 31.3135L13.7659 31.3136C13.7791 31.3314 13.7889 31.3528 13.7986 31.3742C13.8132 31.4064 13.8278 31.4385 13.8543 31.4585C14.4071 32.2278 15.4574 32.7406 16.5077 32.6626C17.16 31.8376 17.6354 30.8788 17.8787 29.8531C18.0335 30.5889 18.0666 31.347 17.9892 32.0828C18.8958 31.4251 19.4597 30.366 19.7913 29.541C20.4658 29.3737 21.9362 30.0427 22.0799 31.2467C21.3281 23.5319 14.1749 18.0691 6.33632 19.8975C5.76141 20.8563 5.09806 21.7259 4.97644 21.4471C4.86588 21.1796 4.91011 20.2765 4.97644 19.5073C4.48998 20.2877 4.00352 20.9678 3.90402 20.7448C3.81554 20.5441 3.82661 19.9755 3.85978 19.3735C3.83765 19.3679 3.81276 19.3624 3.78788 19.3568C3.76302 19.3512 3.73816 19.3457 3.71606 19.3401C3.70764 19.3358 3.70083 19.3332 3.69501 19.331C3.68552 19.3273 3.67868 19.3247 3.67182 19.3178C3.59442 19.2955 3.51703 19.2732 3.4507 19.2397C3.36225 19.2063 3.27381 19.1617 3.19641 19.1171C3.10797 19.0725 3.03057 19.0279 2.95318 18.9722C2.88685 18.9276 2.82051 18.8718 2.75418 18.8161C2.74316 18.8161 2.73208 18.8049 2.73208 18.8049C2.72228 18.7965 2.71266 18.7882 2.70319 18.78C2.63789 18.7237 2.57995 18.6738 2.52202 18.6154C2.45568 18.5485 2.38935 18.4705 2.33407 18.4036L2.16823 18.1695C2.12401 18.0914 2.0798 18.0134 2.03556 17.9242C2.02464 17.9132 2.01376 17.8913 2.00284 17.8694L2.00239 17.8685C1.98581 17.835 1.97199 17.8016 1.95817 17.7681C1.94435 17.7347 1.93053 17.7012 1.91395 17.6678C1.88078 17.5897 1.84759 17.5006 1.8255 17.4002C1.80339 17.311 1.78129 17.2218 1.77022 17.1327C1.75915 17.1104 1.75915 17.0992 1.75915 17.0769C1.75361 17.0769 1.74808 17.0741 1.74256 17.0713C1.73704 17.0685 1.73151 17.0657 1.72598 17.0657C1.70299 17.0541 1.68132 17.0439 1.66053 17.0341C1.62132 17.0155 1.5852 16.9984 1.54908 16.9765C1.25039 16.8211 1.16162 16.7418 0.968103 16.5691C0.939572 16.5436 0.908763 16.5161 0.874668 16.486C0.79728 16.4303 0.730945 16.3745 0.664609 16.3076C0.59829 16.2519 0.53197 16.185 0.476701 16.1293L0.476659 16.1293C0.421522 16.0625 0.377396 15.9958 0.333268 15.9291L0.332929 15.9286L0.332873 15.9285C0.288672 15.8616 0.244469 15.7948 0.211315 15.7279V15.7167C0.178168 15.6499 0.156022 15.583 0.133927 15.5161C0.11178 15.4492 0.100759 15.3823 0.0896861 15.3042C0.0786133 15.2597 0.0786133 15.2039 0.0786133 15.1593C0.0786133 15.0898 0.0873511 15.0292 0.0970829 14.9616C0.0982809 14.9533 0.099494 14.9449 0.100708 14.9364C0.105064 14.91 0.107707 14.8734 0.110655 14.8324C0.115201 14.7694 0.120474 14.6962 0.133876 14.6353C0.133876 14.6297 0.136643 14.6242 0.139411 14.6186C0.14218 14.613 0.144948 14.6075 0.144948 14.6019C0.155935 14.5131 0.17793 14.4243 0.199924 14.3355L0.200227 14.3343C0.233394 14.234 0.266562 14.1337 0.29973 14.0445C0.325015 13.968 0.356714 13.898 0.389953 13.8246C0.400316 13.8017 0.410829 13.7784 0.421344 13.7546C0.46557 13.6654 0.520848 13.5762 0.576126 13.4982C0.603247 13.4435 0.638682 13.393 0.674783 13.3415C0.697552 13.3091 0.720586 13.2763 0.741966 13.2418C0.77948 13.1888 0.822087 13.141 0.86633 13.0913C0.88728 13.0678 0.908598 13.0439 0.929915 13.0188C0.996251 12.9519 1.07364 12.8739 1.15103 12.8181C1.21737 12.7512 1.29476 12.6843 1.37215 12.6286C1.41085 12.6007 1.45231 12.5756 1.49377 12.5506C1.53523 12.5255 1.57669 12.5004 1.61538 12.4725L1.61552 12.4725C1.70392 12.4279 1.79232 12.3833 1.88072 12.3499L2.14607 12.2495L2.15094 12.2483C2.23776 12.2264 2.32479 12.2045 2.42246 12.1827C2.45017 12.1792 2.47896 12.1746 2.50815 12.1699C2.57216 12.1597 2.63812 12.1492 2.69886 12.1492C2.95016 12.1287 3.2265 12.0492 3.50993 11.9677C3.68786 11.9166 3.86859 11.8646 4.04768 11.8259C4.29091 11.7479 4.53414 11.6587 4.76631 11.5583C5.00954 11.458 5.24171 11.3465 5.46283 11.2239C5.69501 11.0901 5.90507 10.9563 6.12619 10.8002C6.33625 10.6553 6.54631 10.4881 6.74532 10.3097C6.94432 10.1425 7.13227 9.95295 7.30917 9.76343L7.34234 9.72998C7.38657 9.68538 7.42804 9.64078 7.4695 9.59617C7.51095 9.55159 7.55241 9.507 7.59662 9.46241C7.60216 9.45126 7.61046 9.44289 7.61875 9.43453C7.62704 9.42617 7.63533 9.41781 7.64086 9.40667L7.6409 9.40663C7.70723 9.33975 7.77355 9.27287 7.82881 9.206C7.83986 9.19487 7.85367 9.18372 7.86748 9.17258C7.88131 9.16142 7.89514 9.15025 7.9062 9.1391C7.96148 9.07222 8.01676 9.01647 8.07204 8.96073C8.07885 8.96073 8.08145 8.95649 8.08506 8.95062C8.08729 8.94698 8.0899 8.94272 8.09414 8.93845C8.16047 8.87156 8.22681 8.80467 8.29314 8.74893C8.29735 8.74469 8.29995 8.74044 8.30217 8.7368C8.30578 8.73092 8.30839 8.72665 8.31524 8.72665C8.34841 8.6932 8.38158 8.66254 8.41475 8.63188C8.44791 8.60122 8.48108 8.57057 8.51425 8.53712C8.5176 8.53374 8.52197 8.53036 8.52673 8.52667C8.53769 8.51817 8.55077 8.50804 8.55849 8.49251C8.58615 8.47019 8.61381 8.44509 8.64147 8.41998C8.66909 8.39492 8.6967 8.36986 8.72432 8.34758C8.73537 8.34199 8.74643 8.33363 8.75749 8.32527C8.76855 8.31691 8.77961 8.30855 8.79066 8.30296L8.9565 8.16919L8.97859 8.14691C9.04493 8.09116 9.12231 8.03544 9.18865 7.99082C9.19417 7.98528 9.19968 7.9825 9.20519 7.97972C9.21073 7.97693 9.21627 7.97414 9.22182 7.96854C9.26321 7.93376 9.3089 7.90332 9.35622 7.87181C9.38473 7.85281 9.41383 7.83343 9.44293 7.81246C9.52033 7.75672 9.60877 7.70098 9.70828 7.64524C9.79673 7.58949 9.89623 7.53375 9.99573 7.47801C10.0178 7.46688 10.0621 7.44455 10.0952 7.42227C10.1166 7.41151 10.1391 7.39959 10.1623 7.38726C10.2114 7.36127 10.2639 7.33346 10.3164 7.31078C10.4159 7.25504 10.5375 7.18815 10.6591 7.13241C10.6812 7.12124 10.7033 7.11012 10.7365 7.09896C10.8021 7.06222 10.8676 7.03032 10.9364 6.99689C10.9719 6.97959 11.0083 6.96188 11.046 6.94288C11.0522 6.93665 11.0619 6.93391 11.0731 6.93074C11.0819 6.92826 11.0916 6.92551 11.1013 6.9206L11.4662 6.75337C11.5292 6.72615 11.5922 6.69707 11.6559 6.66765C11.7488 6.6248 11.8432 6.58121 11.9416 6.54155L12.4391 6.40777C12.7597 6.32973 13.0914 6.25168 13.4341 6.1848L13.4351 6.18461C13.6006 6.15123 13.7661 6.11784 13.9316 6.0956C14.606 5.98412 15.2804 5.89495 15.9549 5.85034C16.4303 5.81688 16.9167 5.7946 17.4032 5.7946C18.0665 5.7946 18.7188 5.82804 19.3822 5.89494C19.3932 5.89494 19.4015 5.89773 19.4098 5.90052C19.4181 5.90331 19.4264 5.9061 19.4375 5.9061C20.1119 5.97299 20.7863 6.07332 21.4496 6.2071L22.1462 6.37433C22.5773 6.47467 22.9975 6.58615 23.4286 6.70879L25.9715 7.70101C25.9645 7.6869 25.9564 7.67168 25.9479 7.65569C25.9295 7.62115 25.9092 7.58304 25.8941 7.54493C25.8775 7.50034 25.8637 7.45576 25.8499 7.41118C25.8361 7.36657 25.8223 7.32197 25.8057 7.27737C25.7835 7.18817 25.7615 7.09899 25.7504 7.0098C25.7283 6.90946 25.7172 6.82028 25.7172 6.73109C25.7061 6.66421 25.7061 6.59733 25.7061 6.53045V6.53041C25.7061 6.48582 25.7089 6.43844 25.7117 6.39106C25.7144 6.34368 25.7172 6.2963 25.7172 6.2517C25.7227 6.22945 25.7255 6.20721 25.7282 6.18497C25.731 6.16263 25.7338 6.14028 25.7393 6.11792C25.7448 6.09567 25.7476 6.07064 25.7503 6.04561C25.7531 6.02048 25.7559 5.99534 25.7614 5.97299L25.7614 5.97294C25.7835 5.88377 25.8056 5.79459 25.8388 5.69427C25.8561 5.6245 25.8802 5.56154 25.9057 5.49474C25.9128 5.47615 25.92 5.45727 25.9272 5.43786C25.9493 5.39331 25.9687 5.35155 25.988 5.30979C26.0073 5.26793 26.0267 5.22608 26.0489 5.18144C26.0931 5.1034 26.1484 5.02536 26.2036 4.94732C26.2445 4.87522 26.3042 4.80313 26.3567 4.73982C26.361 4.7346 26.3653 4.72944 26.3695 4.72435C26.3739 4.71909 26.3784 4.71388 26.3827 4.70872C26.4434 4.63729 26.4963 4.57491 26.5685 4.51253C26.6348 4.44563 26.7012 4.38989 26.7785 4.33415C26.8268 4.28546 26.881 4.24858 26.9367 4.21062C26.9576 4.19643 26.9786 4.18209 26.9997 4.16692C27.1018 4.09669 27.2079 4.03235 27.3137 3.96814C27.4599 3.87945 27.6057 3.79099 27.7404 3.68754C27.791 3.65107 27.8369 3.60984 27.8812 3.57008C27.9046 3.54905 27.9275 3.52844 27.9505 3.50916V3.498C28.0021 3.46083 28.0438 3.41376 28.0856 3.36669C28.1065 3.34315 28.1274 3.31962 28.1495 3.29732C28.2048 3.23043 28.26 3.15239 28.3153 3.07435L28.3817 2.97401C28.3982 2.9517 28.4121 2.9294 28.4259 2.90709C28.4397 2.88481 28.4535 2.86252 28.4701 2.84023C28.4922 2.7957 28.5115 2.75394 28.5308 2.71219C28.5502 2.67033 28.5696 2.62847 28.5917 2.58381L28.5918 2.58346C28.625 2.49439 28.6581 2.40532 28.6802 2.31625C28.7133 2.22706 28.7355 2.13787 28.7576 2.04868C28.763 2.00419 28.7658 1.95415 28.7686 1.9041C28.7713 1.85382 28.7741 1.80352 28.7796 1.75882C28.7837 1.70949 28.7818 1.68744 28.7799 1.66641ZM113.212 14.2777C112.543 14.8947 111.453 15.5309 109.943 16.1672L109.943 16.1672C109.932 16.4447 109.922 16.6572 109.914 16.8047L109.914 16.8049C109.908 16.9238 109.905 17.0004 109.905 17.0349C109.905 17.1505 109.943 17.2469 110.019 17.3626L110.268 17.4205L111.664 17.4012L112.256 17.4205V22.954L112.18 26.3473C112.18 27.9476 112.543 29.1237 113.289 29.8949C114.035 30.6469 114.991 31.0325 116.195 31.0325C117.113 31.0325 117.973 30.8397 118.776 30.4348C119.599 30.0299 120.229 29.4708 120.688 28.7574L120.612 28.526C120.421 28.2754 120.153 28.0247 119.847 27.7933C119.787 27.8384 119.731 27.8776 119.679 27.9133C119.599 27.9691 119.53 28.0162 119.484 28.0633C119.101 28.3718 118.815 28.5453 118.642 28.6224C118.47 28.6803 118.222 28.7188 117.878 28.7188C117.514 28.7188 117.189 28.6417 116.903 28.5067C116.673 28.179 116.52 27.8512 116.444 27.4849C116.367 27.1378 116.348 26.2316 116.367 24.8049L116.405 17.4012L117.323 17.3627L117.667 17.382H118.662C118.967 17.4205 119.178 17.4205 119.273 17.4205C119.503 17.4205 119.809 17.4012 120.229 17.3433C120.325 16.9577 120.382 16.6107 120.382 16.3022C120.382 16.0323 120.325 15.7238 120.249 15.3767C119.723 15.3885 119.34 15.4002 119.1 15.4076C118.947 15.4123 118.852 15.4153 118.815 15.4153C117.686 15.4731 117.075 15.4924 117.017 15.4924L116.577 15.4731C116.558 15.2418 116.558 15.0876 116.558 15.0297L116.616 13.8921C116.616 13.7261 116.619 13.5351 116.623 13.3175L116.623 13.3165C116.629 13.0289 116.635 12.695 116.635 12.3111C116.635 11.9448 116.577 11.5977 116.463 11.2507H115.373C114.608 12.6389 113.901 13.6607 113.212 14.2777ZM75.6794 20.5825C76.0235 19.4834 76.3103 18.7508 76.578 18.4037C77.2854 17.3433 78.0503 16.5143 78.8533 15.9166C79.6755 15.3189 80.402 14.9333 81.0521 14.7405C81.9125 14.4898 82.5817 14.3741 83.1171 14.3741C84.3217 14.3741 85.2968 14.4705 86.0234 14.6633C86.7691 14.8369 87.4 15.1068 87.8972 15.4538C88.6046 15.9551 89.1782 16.4757 89.618 16.977C90.0578 17.4976 90.4019 18.1145 90.6696 18.8086C90.9564 19.5027 91.1094 20.3511 91.1476 21.3344L89.0061 21.2958C88.4134 21.2958 87.1324 21.238 85.1247 21.1223C84.8576 21.1085 84.6223 21.0947 84.4172 21.0826L84.4167 21.0826L84.4163 21.0826L84.416 21.0826C84.0493 21.061 83.779 21.0452 83.5951 21.0452C83.5857 21.0452 83.5704 21.0454 83.5493 21.0457C83.525 21.0461 83.493 21.0467 83.4532 21.0474L83.4518 21.0474L83.4517 21.0475H83.4516H83.4515C83.1765 21.0526 82.5361 21.0645 81.5301 21.0645H79.8667C79.8628 21.1034 79.8589 21.1408 79.8552 21.1767L79.8551 21.1783L79.855 21.1785L79.855 21.1789C79.8405 21.3193 79.8285 21.4354 79.8285 21.5272C79.8285 22.2213 79.9241 22.9347 80.077 23.7059C80.2491 24.4578 80.4977 25.1134 80.8227 25.6918C81.1669 26.2702 81.5684 26.7522 82.0655 27.1571C82.5627 27.5813 83.0789 27.8705 83.5951 28.0633L84.7041 28.4296C85.6984 28.4296 86.3485 28.3911 86.6926 28.3332C87.3045 28.1982 87.8398 28.044 88.2987 27.8512C88.7767 27.6391 89.3312 27.2921 90.0004 26.8101L90.0009 26.8104L90.001 26.8105C90.4596 27.1574 90.8419 27.4464 91.1668 27.7355C90.0387 28.9695 88.8532 29.8949 87.6486 30.4541C86.4441 31.0132 85.0865 31.2831 83.5951 31.2831C82.5818 31.2831 81.7596 31.206 81.1095 31.0132C80.2682 30.7818 79.4843 30.4348 78.796 29.9528C78.1077 29.4708 77.5149 28.8731 77.0178 28.179C76.5207 27.4656 76.1383 26.7329 75.8897 25.981C75.5838 24.9977 75.4117 24.2072 75.4117 23.6288C75.4117 22.4912 75.5073 21.4886 75.6794 20.5825ZM86.8456 19.7534C86.8264 19.0207 86.6926 18.3459 86.4249 17.6711C86.1572 17.0155 85.7366 16.5143 85.163 16.1479C84.6085 15.7816 84.0349 15.5888 83.4613 15.5888C82.6009 15.5888 81.836 15.9744 81.1286 16.7263C80.4403 17.4976 80.0579 18.5194 79.9623 19.8305L84.3408 19.8498C84.6276 19.8498 85.0291 19.8305 85.5263 19.792C85.9087 19.7534 86.1764 19.7341 86.3293 19.7341C86.444 19.7341 86.6161 19.7341 86.8456 19.7534ZM94.1878 25.4219C94.5702 25.3447 94.857 25.3061 95.0291 25.3061C95.1246 25.3061 95.2585 25.3061 95.4306 25.3255L95.6027 25.5183C96.3101 26.7522 96.7499 27.4849 96.9793 27.7548C97.4191 28.2754 97.8588 28.6995 98.2986 29.0273C98.5854 29.2201 99.0443 29.4515 99.6753 29.6636C100.096 29.8178 100.555 29.8949 101.033 29.8949C101.836 29.8949 102.524 29.6443 103.098 29.1237C103.671 28.5839 103.958 28.0247 103.958 27.4077C103.958 27.0028 103.843 26.6558 103.633 26.3666C103.423 26.0774 102.983 25.7882 102.333 25.499C102.008 25.364 101.205 25.1326 99.9047 24.8049C98.6236 24.4771 97.8588 24.265 97.5912 24.1686C96.9793 23.9373 96.4439 23.6095 95.9851 23.2046C95.5071 22.7804 95.1629 22.3177 94.9143 21.7971C94.5893 21.0645 94.4172 20.4282 94.4172 19.9076C94.4172 18.9243 94.5702 18.1338 94.8378 17.4976C95.1246 16.8806 95.5262 16.3215 96.0424 15.8395C96.4057 15.4731 96.9602 15.1454 97.7059 14.8562C98.4516 14.567 99.2737 14.4127 100.115 14.4127C101.339 14.4127 102.409 14.4899 103.327 14.6634C104.245 14.8369 105.029 15.0875 105.66 15.4153C105.748 15.6832 105.837 16.2984 105.971 17.2304L106.004 17.459C106.138 18.5387 106.214 19.175 106.214 19.3678C106.214 19.4642 106.195 19.5606 106.157 19.657C105.813 19.7534 105.545 19.8112 105.316 19.8112C105.232 19.8112 105.108 19.801 104.95 19.788L104.949 19.7879C104.891 19.7831 104.828 19.7779 104.761 19.7727C104.671 19.6355 104.556 19.426 104.417 19.1728L104.417 19.1721L104.417 19.1721L104.363 19.0725C104.343 19.0367 104.323 19.0002 104.302 18.9629C103.691 17.8061 103.06 16.9963 102.409 16.5336C101.759 16.0516 101.033 15.8202 100.172 15.8202C99.2929 15.8202 98.5472 16.0901 97.9544 16.5914C97.5147 16.977 97.3044 17.4783 97.3044 18.1339C97.3044 18.558 97.5338 18.9822 97.9927 19.4257C98.4325 19.8691 99.2164 20.2162 100.325 20.4475C102.008 20.8139 103.251 21.1995 104.035 21.5658C105.182 22.1056 106.004 22.7612 106.463 23.4938C106.922 24.2265 107.17 25.0748 107.17 26.0389C107.17 27.5427 106.597 28.796 105.469 29.7985C104.36 30.7818 102.735 31.2831 100.574 31.2831C100.306 31.2831 99.5605 31.2253 98.3751 31.0903C97.8397 31.0325 97.2088 30.8975 96.4822 30.7047C96.291 30.6469 95.8321 30.4734 95.0673 30.1456C94.9334 30.0684 94.8378 29.9721 94.7614 29.8757C94.7232 29.76 94.6275 29.2201 94.5128 28.2561L94.4986 28.1389L94.4986 28.1387L94.4986 28.1382L94.4985 28.138M53.0984 29.8564C53.4234 29.7021 53.7294 29.6057 54.0162 29.5479C54.7236 29.4322 55.1252 29.3358 55.2399 29.2587C55.4311 29.143 55.5649 28.9887 55.6223 28.8345C55.6988 28.5646 55.737 28.0054 55.737 27.1185V25.4411L55.7561 24.0722L55.6988 22.0285V20.8138C55.6988 20.004 55.6414 19.3292 55.5076 18.8279C55.4694 18.6351 55.2973 18.4423 55.0296 18.2495C54.6663 17.9796 54.0736 17.7289 53.2132 17.4783L53.194 16.5528L53.1969 16.5521L53.197 16.5521C53.349 16.5138 53.5008 16.4756 53.6338 16.4564C53.7529 16.4392 54.1751 16.3304 54.9003 16.1435L54.9004 16.1435L55.1825 16.0708C55.89 15.8202 56.3488 15.6274 56.54 15.531C56.5718 15.5149 56.607 15.4956 56.6481 15.4729C56.7059 15.441 56.7757 15.4025 56.8651 15.3574C56.9947 15.2431 57.1381 15.1425 57.2952 15.0324C57.3235 15.0125 57.3522 14.9924 57.3813 14.9718C57.7637 14.7019 58.2226 14.2199 58.758 13.5644L59.7714 13.4872L59.7332 15.6659C59.714 15.878 59.714 16.0515 59.714 16.1865C59.714 16.3022 59.714 16.5914 59.7332 17.0734C60.8039 16.1479 61.7599 15.5117 62.6394 15.1453C63.7675 14.6633 64.8574 14.4319 65.8708 14.4319C67.0753 14.4319 68.1461 14.7404 69.0447 15.3381C69.9625 15.9358 70.5552 16.6299 70.8229 17.4011C71.1097 18.1916 71.2435 19.7919 71.2435 22.1634L71.167 28.4874C71.167 28.7766 71.2244 29.0273 71.32 29.2201C71.4538 29.3165 71.8171 29.4129 72.3907 29.5093L73.3276 29.6828C73.4423 29.8563 73.4997 30.0491 73.4997 30.2998C73.4997 30.454 73.4997 30.6661 73.4805 30.936L69.7139 30.6661L68.6049 30.7046H67.7253L65.1824 30.8974H64.5323C64.5131 30.7239 64.5131 30.6082 64.5131 30.5118C64.5131 30.2981 64.5295 30.068 64.547 29.8214L64.547 29.8212L64.5513 29.7599C64.688 29.7293 65.0054 29.6865 65.4844 29.6219L65.4864 29.6217C65.6102 29.605 65.7448 29.5868 65.8898 29.5671C66.0401 29.5519 66.2022 29.5129 66.3854 29.4688C66.4352 29.4569 66.4867 29.4445 66.5398 29.4321C66.7884 29.3357 66.9414 29.22 66.9796 29.1236C67.0752 28.8923 67.1326 28.4874 67.1326 27.8704C67.1326 26.7714 67.1134 25.9424 67.0944 25.3639L67.1135 23.1274C67.1135 20.3896 66.9605 18.6929 66.6164 18.0374C66.1193 17.0541 65.3927 16.5721 64.4176 16.5721C63.7101 16.5721 62.9644 16.7649 62.1996 17.1312C61.4157 17.4975 60.6318 18.0567 59.8096 18.8086L59.7714 19.1364L59.8096 20.351L59.7904 21.6428L59.8669 24.747L59.8287 25.229C59.8287 27.3305 59.9052 28.5259 60.0773 28.7959C60.2494 29.0658 60.8803 29.355 61.9893 29.6828C62.0275 29.8948 62.0467 30.0684 62.0467 30.1648C62.0467 30.3065 61.9982 30.5135 61.931 30.8005L61.931 30.8006L61.9128 30.8781C61.5113 30.8975 61.1672 30.8975 60.8995 30.8975C60.6318 30.8975 60.2111 30.8589 59.6375 30.7818L57.5916 30.7433C56.5591 30.7433 55.0869 30.7818 53.1557 30.8782C53.0984 30.7433 53.0792 30.6083 53.0792 30.4733V30.4733C53.0792 30.3768 53.0792 30.1648 53.0984 29.8564Z" fill="#718096"/>
</svg>
