<svg width="134" height="27" viewBox="0 0 134 27" fill="none" xmlns="http://www.w3.org/2000/svg">
<path fill-rule="evenodd" clip-rule="evenodd" d="M27.4627 26.0755L6.05618 0.300049H0.3125V26.2586H4.90745V5.84867L21.8513 26.2694L27.4627 26.2694L27.6238 26.2694L50.627 26.2694V22.1233H32.0577V15.2731H46.9911V11.1269H32.0577V4.45703H50.627V0.310877H27.4608V4.45703H27.4627V26.0755ZM111.893 0.310877H88.7268V4.45703H98.108V26.2694H102.703V4.45703H111.893V0.310877ZM62.1946 0.321705H56.1813L77.7198 26.2802H83.7507L72.9801 13.3099L83.7335 0.34151L77.7198 0.350521L69.9694 9.68426L62.1946 0.321705ZM65.3539 15.2334L68.3653 18.864L62.1947 26.3H56.1641L65.3539 15.2334ZM112.064 25.7717C112.303 25.9978 112.59 26.1108 112.926 26.1108C113.144 26.1108 113.343 26.0573 113.524 25.9532C113.708 25.8521 113.854 25.7122 113.969 25.5337C114.081 25.3582 114.137 25.1619 114.14 24.9477C114.137 24.6324 114.016 24.3616 113.773 24.1356C113.533 23.9095 113.25 23.7964 112.926 23.7964C112.59 23.7964 112.303 23.9095 112.064 24.1356C111.824 24.3616 111.706 24.6324 111.709 24.9477C111.706 25.272 111.824 25.5457 112.064 25.7717ZM120.769 15.1753H122.805V22.782C122.802 23.4811 122.646 24.079 122.341 24.5818C122.033 25.0845 121.606 25.4683 121.058 25.739C120.513 26.0067 119.875 26.1436 119.15 26.1436C118.486 26.1436 117.892 26.0275 117.363 25.8015C116.833 25.5754 116.413 25.2362 116.105 24.79C115.793 24.3438 115.641 23.7875 115.641 23.1211H117.68C117.683 23.4127 117.752 23.6655 117.883 23.8767C118.013 24.0879 118.194 24.2486 118.424 24.3616C118.658 24.4747 118.926 24.5312 119.227 24.5312C119.554 24.5312 119.835 24.4657 120.062 24.3319C120.289 24.201 120.464 24.0046 120.585 23.7428C120.703 23.4841 120.766 23.1628 120.769 22.782V15.1753ZM130.535 17.0732C130.915 17.3291 131.133 17.689 131.183 18.1501H133.157C133.147 17.5403 132.967 17.0019 132.621 16.5318C132.276 16.0618 131.799 15.6929 131.192 15.4282C130.585 15.1604 129.882 15.0295 129.078 15.0295C128.288 15.0295 127.578 15.1604 126.949 15.4282C126.323 15.6929 125.828 16.0648 125.467 16.5437C125.102 17.0227 124.922 17.582 124.922 18.2186C124.922 18.995 125.19 19.6138 125.731 20.0808C126.27 20.5479 127.008 20.8959 127.939 21.125L129.228 21.4403C129.632 21.5385 129.987 21.6516 130.292 21.7765C130.594 21.9014 130.831 22.0561 131.002 22.2405C131.17 22.425 131.258 22.66 131.261 22.9426C131.258 23.252 131.161 23.5227 130.968 23.7518C130.778 23.9838 130.513 24.1623 130.177 24.2902C129.838 24.4181 129.446 24.4836 129 24.4836C128.574 24.4836 128.188 24.4211 127.842 24.2992C127.5 24.1742 127.219 23.9898 127.005 23.7399C126.793 23.487 126.669 23.1746 126.641 22.7998H124.623C124.651 23.5168 124.847 24.1266 125.211 24.6264C125.576 25.1262 126.08 25.507 126.728 25.7658C127.372 26.0276 128.138 26.1584 129.016 26.1584C129.925 26.1584 130.697 26.0216 131.335 25.7539C131.977 25.4831 132.466 25.1083 132.805 24.6294C133.144 24.1474 133.312 23.5911 133.312 22.9575C133.312 22.4875 133.219 22.0799 133.035 21.7319C132.852 21.3838 132.603 21.0863 132.288 20.8394C131.974 20.5925 131.616 20.3872 131.22 20.2266C130.825 20.063 130.411 19.935 129.984 19.8399L128.922 19.587C128.692 19.5335 128.462 19.468 128.231 19.3906C128.004 19.3133 127.795 19.2181 127.609 19.1021C127.419 18.9891 127.272 18.8492 127.163 18.6826C127.054 18.519 126.998 18.3227 126.998 18.0966C127.005 17.8259 127.086 17.5849 127.247 17.3737C127.41 17.1625 127.646 16.9959 127.951 16.871C128.256 16.749 128.624 16.6865 129.05 16.6865C129.657 16.6865 130.152 16.8144 130.535 17.0732Z" fill="#718096"/>
</svg>
