<svg width="1401" height="639" viewBox="0 0 1401 639" fill="none" xmlns="http://www.w3.org/2000/svg">
<g opacity="0.8">
<mask id="mask0_614_9632" style="mask-type:alpha" maskUnits="userSpaceOnUse" x="-313" y="0" width="1715" height="639">
<rect x="-312.844" y="0.35498" width="1714" height="638" fill="url(#paint0_radial_614_9632)"/>
</mask>
<g mask="url(#mask0_614_9632)">
<path d="M1231.3 -103.075C1174.54 -22.6105 1093.95 37.1266 1022.54 104.783C904.532 216.729 807.235 360.157 788.478 521.771C769.722 683.384 845.724 862.302 994.112 928.883C1142.5 995.464 1349.5 907.667 1375.19 746.934C1382.03 704.111 1376.85 659.528 1388.48 617.78C1400.1 576.033 1437.71 535.752 1480.4 543.084C1529.83 551.59 1551.33 614.847 1598.12 633.13C1647.45 652.391 1703.33 610.448 1719.25 559.901C1735.17 509.354 1722.77 454.798 1711.14 403.176C1699.42 351.554 1688.68 296.216 1707.33 246.647C1731.56 182.412 1797.4 146.042 1850.45 102.535C1903.59 59.0271 1949.5 -14.6912 1916.68 -75.1128C1872.62 -156.164 1742.5 -126.051 1670.51 -183.637C1626.15 -219.128 1613.46 -279.842 1598.8 -334.691C1584.15 -389.54 1558.46 -449.766 1504.83 -468.244C1459.6 -483.888 1356.34 -372.626 1346.57 -358.156C1304.08 -295.388 1289.33 -185.201 1231.49 -103.075H1231.3Z" stroke="#5A67D8" stroke-width="2" stroke-miterlimit="10"/>
<path d="M1242.05 -73.6432C1190.17 -0.0226628 1116.42 54.5328 1051.07 116.421C943.121 218.786 854.224 349.895 837.031 497.722C819.838 645.55 889.392 809.119 1025.08 870.029C1160.77 930.939 1350.09 850.671 1373.53 703.723C1379.79 664.615 1375 623.845 1385.65 585.617C1396.3 547.487 1430.68 510.628 1469.76 517.374C1514.99 525.098 1534.62 582.977 1577.31 599.696C1622.35 617.295 1673.54 578.969 1687.99 532.724C1702.55 486.479 1691.22 436.616 1680.57 389.394C1669.92 342.171 1660.05 291.624 1677.15 246.259C1699.33 187.499 1759.5 154.258 1808.05 114.466C1856.6 74.6734 1898.61 7.21233 1868.62 -47.9297C1828.37 -122.039 1709.29 -94.5659 1643.45 -147.166C1602.91 -179.625 1591.28 -235.159 1577.8 -285.314C1564.42 -335.47 1540.87 -390.514 1491.93 -407.526C1450.61 -421.801 1356.15 -320.12 1347.16 -306.824C1308.28 -249.433 1294.9 -148.633 1241.95 -73.5455L1242.05 -73.6432Z" stroke="#5A67D8" stroke-width="2" stroke-miterlimit="10"/>
<path d="M1252.79 -44.2201C1205.81 22.4588 1138.89 71.9303 1079.69 128.05C981.807 220.833 901.214 339.721 885.681 473.666C870.149 607.61 933.158 755.927 1056.15 811.166C1179.14 866.406 1350.77 793.568 1371.97 660.406C1377.64 624.915 1373.34 587.958 1382.91 553.348C1392.59 518.737 1423.75 485.398 1459.11 491.46C1500.14 498.499 1517.92 550.904 1556.6 566.058C1597.44 582.092 1643.84 547.188 1656.93 505.343C1670.12 463.498 1659.86 418.23 1650.19 375.407C1640.52 332.584 1631.53 286.828 1647.06 245.667C1667.09 192.382 1721.7 162.269 1765.66 126.192C1809.71 90.1154 1847.81 29.0094 1820.56 -21.0486C1784.02 -88.2164 1676.17 -63.2851 1616.49 -110.997C1579.76 -140.425 1569.21 -190.777 1556.99 -236.24C1544.88 -281.703 1523.59 -331.565 1479.14 -347.013C1441.62 -360.016 1356.05 -267.721 1347.94 -255.794C1312.77 -203.78 1300.56 -112.365 1252.6 -44.4156L1252.79 -44.2201Z" stroke="#5A67D8" stroke-width="2" stroke-miterlimit="10"/>
<path d="M1263.45 -14.7872C1221.25 45.0478 1161.36 89.4352 1108.22 139.787C1020.5 222.988 948.208 329.557 934.238 449.716C920.269 569.875 976.83 702.842 1087.12 752.411C1197.41 801.882 1351.27 736.67 1370.42 617.196C1375.5 585.42 1371.59 552.277 1380.28 521.186C1388.98 490.193 1416.92 460.275 1448.66 465.653C1485.4 471.91 1501.42 518.937 1536.1 532.527C1572.73 546.899 1614.34 515.613 1626.07 478.069C1637.89 440.526 1628.7 399.951 1620.01 361.528C1611.32 323.105 1603.3 282.041 1617.18 245.182C1635.15 197.373 1684.09 170.388 1723.56 138.027C1763.02 105.665 1797.22 50.8161 1772.79 6.0376C1740.07 -54.1885 1643.26 -31.897 1589.73 -74.6223C1556.81 -101.02 1547.33 -146.19 1536.39 -186.96C1525.45 -227.729 1506.4 -272.508 1466.54 -286.293C1432.94 -297.928 1356.15 -215.215 1348.83 -204.46C1317.27 -157.824 1306.33 -75.8933 1263.35 -14.8851L1263.45 -14.7872Z" stroke="#5A67D8" stroke-width="2" stroke-miterlimit="10"/>
<path d="M1274.18 14.6381C1236.86 67.5314 1183.82 106.835 1136.83 151.418C1059.17 225.038 995.18 319.386 982.871 425.759C970.465 532.133 1020.58 649.749 1118.17 693.55C1215.76 737.351 1351.94 679.569 1368.84 573.88C1373.33 545.723 1369.91 516.392 1377.53 488.918C1385.15 461.445 1409.96 434.95 1438 439.838C1470.53 445.411 1484.7 487.061 1515.37 499.086C1547.8 511.796 1584.53 484.128 1594.99 450.886C1605.44 417.644 1597.33 381.763 1589.61 347.837C1581.9 313.813 1574.86 277.541 1587.17 244.886C1603.09 202.649 1646.37 178.695 1681.34 150.049C1716.31 121.402 1746.5 72.9089 1724.91 33.2144C1695.9 -20.07 1610.32 -0.32059 1562.94 -38.1574C1533.73 -61.5244 1525.43 -101.414 1515.76 -137.589C1506.09 -173.666 1489.19 -213.263 1453.92 -225.484C1424.13 -235.75 1356.24 -162.618 1349.79 -153.037C1321.85 -111.778 1312.18 -39.233 1274.08 14.7358L1274.18 14.6381Z" stroke="#5A67D8" stroke-width="2" stroke-miterlimit="10"/>
<path d="M1284.93 44.0689C1252.49 90.1184 1206.29 124.24 1165.45 163.055C1097.95 227.094 1042.27 309.22 1031.52 401.71C1020.78 494.2 1064.25 596.565 1149.24 634.695C1234.13 672.825 1352.63 622.572 1367.28 530.571C1371.19 506.128 1368.16 480.61 1374.9 456.657C1381.54 432.801 1403.13 409.727 1427.55 413.931C1455.88 418.82 1468.19 454.995 1494.86 465.456C1523.09 476.504 1555.04 452.453 1564.12 423.513C1573.21 394.573 1566.17 363.384 1559.43 333.858C1552.79 304.332 1546.54 272.654 1557.28 244.301C1571.15 207.54 1608.76 186.715 1639.14 161.784C1669.53 136.852 1695.8 94.7137 1677.05 60.1032C1651.84 13.7604 1577.31 30.9678 1536.18 -1.98054C1510.78 -22.3166 1503.55 -57.0248 1495.15 -88.4088C1486.75 -119.793 1472.1 -154.208 1441.42 -164.865C1415.54 -173.86 1356.44 -110.114 1350.87 -101.901C1326.54 -66.0196 1318.14 -2.86055 1285.02 44.0689H1284.93Z" stroke="#5A67D8" stroke-width="2" stroke-miterlimit="10"/>
<path d="M1295.67 73.498C1268.02 112.704 1228.85 141.741 1194.08 174.69C1136.63 229.147 1089.26 298.955 1080.17 377.659C1070.99 456.364 1108.01 543.379 1180.3 575.838C1252.49 608.2 1353.31 565.475 1365.81 487.259C1369.13 466.434 1366.59 444.729 1372.26 424.393C1377.92 404.057 1396.19 384.503 1417 388.023C1441.03 392.129 1451.48 422.927 1474.24 431.824C1498.28 441.209 1525.43 420.776 1533.15 396.138C1540.87 371.5 1534.91 345.004 1529.15 319.877C1523.48 294.751 1518.2 267.864 1527.29 243.715C1539.11 212.429 1571.15 194.732 1596.94 173.516C1622.83 152.3 1645.2 116.419 1629.18 87.0879C1607.78 47.6868 1544.39 62.2544 1509.31 34.1945C1487.73 16.8893 1481.57 -12.6372 1474.44 -39.3283C1467.31 -66.0194 1454.8 -95.3502 1428.72 -104.345C1406.74 -111.971 1356.43 -57.8067 1351.65 -50.7673C1330.94 -20.2632 1323.8 33.4123 1295.67 73.4001V73.498Z" stroke="#5A67D8" stroke-width="2" stroke-miterlimit="10"/>
<path d="M1306.32 102.928C1283.56 135.192 1251.22 159.145 1222.6 186.325C1175.22 231.202 1136.24 288.788 1128.72 353.609C1121.2 418.43 1151.68 490.193 1211.17 516.982C1270.66 543.673 1353.7 508.476 1364.05 444.046C1366.79 426.838 1364.74 409.044 1369.33 392.228C1374.02 375.509 1389.06 359.377 1406.25 362.311C1426.08 365.732 1434.68 391.055 1453.44 398.387C1473.17 406.111 1495.64 389.295 1501.99 368.959C1508.34 348.721 1503.45 326.82 1498.76 306.093C1494.08 285.366 1489.78 263.172 1497.2 243.325C1506.87 217.514 1533.35 202.946 1554.64 185.445C1575.94 167.945 1594.4 138.418 1581.21 114.171C1563.53 81.614 1511.37 93.7374 1482.45 70.6637C1464.67 56.3894 1459.59 32.0448 1453.63 10.0466C1447.77 -11.9516 1437.42 -36.1006 1415.92 -43.5311C1397.75 -49.7883 1356.33 -5.20537 1352.43 0.660808C1335.43 25.7876 1329.47 70.0772 1306.32 103.026V102.928Z" stroke="#5A67D8" stroke-width="2" stroke-miterlimit="10"/>
<path d="M1317.08 132.353C1299.2 157.773 1273.7 176.545 1251.14 197.956C1213.92 233.251 1183.15 278.518 1177.28 329.554C1171.32 380.59 1195.36 437.003 1242.15 458.023C1288.94 479.044 1354.29 451.375 1362.4 400.633C1364.55 387.141 1362.89 373.062 1366.6 359.863C1370.32 346.664 1382.14 333.954 1395.62 336.3C1411.25 338.94 1417.99 358.983 1432.74 364.751C1448.27 370.813 1465.95 357.614 1470.93 341.678C1475.92 325.741 1472.01 308.534 1468.39 292.206C1464.68 275.879 1461.26 258.476 1467.22 242.833C1474.84 222.594 1495.65 211.057 1512.35 197.37C1529.16 183.584 1543.61 160.315 1533.26 141.348C1519.39 115.732 1478.26 125.216 1455.5 107.128C1441.53 95.8849 1437.53 76.722 1432.84 59.4168C1428.24 42.1116 1420.14 23.1443 1403.14 17.2781C1388.88 12.2919 1356.25 47.489 1353.22 51.9864C1339.84 71.8336 1335.15 106.542 1316.88 132.451L1317.08 132.353Z" stroke="#5A67D8" stroke-width="2" stroke-miterlimit="10"/>
<path d="M1327.82 161.688C1314.73 180.167 1296.17 193.952 1279.76 209.498C1252.6 235.211 1230.23 268.257 1225.93 305.41C1221.63 342.562 1239.12 383.723 1273.21 399.073C1307.3 414.423 1354.98 394.184 1360.94 357.228C1362.5 347.353 1361.33 337.087 1363.96 327.506C1366.6 317.924 1375.3 308.636 1385.16 310.298C1396.49 312.254 1401.48 326.821 1412.22 331.025C1423.55 335.425 1436.45 325.844 1440.06 314.209C1443.68 302.574 1440.84 290.06 1438.21 278.132C1435.57 266.204 1433.03 253.494 1437.33 242.153C1442.9 227.39 1458.04 218.981 1470.25 209.009C1482.46 199.036 1493.01 182.024 1485.49 168.141C1475.33 149.467 1445.44 156.409 1428.83 143.112C1418.67 134.997 1415.74 121.016 1412.32 108.306C1408.9 95.6939 1403.04 81.8106 1390.73 77.6065C1380.28 73.989 1356.54 99.6046 1354.29 102.929C1344.52 117.399 1341.1 142.721 1327.82 161.591V161.688Z" stroke="#5A67D8" stroke-width="2" stroke-miterlimit="10"/>
</g>
</g>
<defs>
<radialGradient id="paint0_radial_614_9632" cx="0" cy="0" r="1" gradientUnits="userSpaceOnUse" gradientTransform="translate(544.156 222.124) rotate(90) scale(570.161 834.963)">
<stop stop-color="white" stop-opacity="0.63"/>
<stop offset="1" stop-color="white" stop-opacity="0"/>
</radialGradient>
</defs>
</svg>
